<?xml version="1.0" encoding="UTF-8" standalone="no"?>
<!DOCTYPE svg PUBLIC "-//W3C//DTD SVG 1.1//EN"
 "http://www.w3.org/Graphics/SVG/1.1/DTD/svg11.dtd">
<!-- Generated by graphviz version 2.47.3 (20210619.1520)
 -->
<!-- Title: dependencies Pages: 1 -->
<svg width="496pt" height="174pt"
 viewBox="0.00 0.00 496.00 173.80" xmlns="http://www.w3.org/2000/svg" xmlns:xlink="http://www.w3.org/1999/xlink">
<g id="graph0" class="graph" transform="scale(1 1) rotate(0) translate(4 169.8)">
<title>dependencies</title>
<polygon fill="white" stroke="transparent" points="-4,4 -4,-169.8 492,-169.8 492,4 -4,4"/>
<text text-anchor="middle" x="244" y="-8.2" font-family="sans-serif" font-size="14.00">dependencies</text>
<g id="clust1" class="cluster">
<title>cluster_UsersModule</title>
<polygon fill="none" stroke="black" stroke-dasharray="1,5" points="8,-32.8 8,-157.8 480,-157.8 480,-32.8 8,-32.8"/>
</g>
<g id="clust2" class="cluster">
<title>cluster_UsersModule_declarations</title>
<polygon fill="none" stroke="black" points="176,-40.8 176,-92.8 472,-92.8 472,-40.8 176,-40.8"/>
</g>
<g id="clust5" class="cluster">
<title>cluster_UsersModule_imports</title>
<polygon fill="none" stroke="black" points="16,-40.8 16,-92.8 168,-92.8 168,-40.8 16,-40.8"/>
</g>
<!-- EditProfileComponent -->
<g id="node1" class="node">
<title>EditProfileComponent</title>
<polygon fill="#ffffb3" stroke="black" points="464.27,-84.8 321.73,-84.8 321.73,-48.8 464.27,-48.8 464.27,-84.8"/>
<text text-anchor="middle" x="393" y="-62.6" font-family="Times,serif" font-size="14.00">EditProfileComponent</text>
</g>
<!-- UsersModule -->
<g id="node3" class="node">
<title>UsersModule</title>
<polygon fill="#8dd3c7" stroke="black" points="289.92,-149.8 286.92,-153.8 265.92,-153.8 262.92,-149.8 198.08,-149.8 198.08,-113.8 289.92,-113.8 289.92,-149.8"/>
<text text-anchor="middle" x="244" y="-127.6" font-family="Times,serif" font-size="14.00">UsersModule</text>
</g>
<!-- EditProfileComponent&#45;&gt;UsersModule -->
<g id="edge1" class="edge">
<title>EditProfileComponent&#45;&gt;UsersModule</title>
<path fill="none" stroke="black" d="M393,-84.91C393,-104.14 393,-131.8 393,-131.8 393,-131.8 299.92,-131.8 299.92,-131.8"/>
<polygon fill="black" stroke="black" points="299.92,-128.3 289.92,-131.8 299.92,-135.3 299.92,-128.3"/>
</g>
<!-- ProfileComponent -->
<g id="node2" class="node">
<title>ProfileComponent</title>
<polygon fill="#ffffb3" stroke="black" points="303.93,-84.8 184.07,-84.8 184.07,-48.8 303.93,-48.8 303.93,-84.8"/>
<text text-anchor="middle" x="244" y="-62.6" font-family="Times,serif" font-size="14.00">ProfileComponent</text>
</g>
<!-- ProfileComponent&#45;&gt;UsersModule -->
<g id="edge2" class="edge">
<title>ProfileComponent&#45;&gt;UsersModule</title>
<path fill="none" stroke="black" d="M244,-84.91C244,-84.91 244,-103.79 244,-103.79"/>
<polygon fill="black" stroke="black" points="240.5,-103.79 244,-113.79 247.5,-103.79 240.5,-103.79"/>
</g>
<!-- UsersRoutingModule -->
<g id="node4" class="node">
<title>UsersRoutingModule</title>
<polygon fill="#8dd3c7" stroke="black" points="160.04,-84.8 157.04,-88.8 136.04,-88.8 133.04,-84.8 23.96,-84.8 23.96,-48.8 160.04,-48.8 160.04,-84.8"/>
<text text-anchor="middle" x="92" y="-62.6" font-family="Times,serif" font-size="14.00">UsersRoutingModule</text>
</g>
<!-- UsersRoutingModule&#45;&gt;UsersModule -->
<g id="edge3" class="edge">
<title>UsersRoutingModule&#45;&gt;UsersModule</title>
<path fill="none" stroke="black" d="M92,-84.91C92,-104.14 92,-131.8 92,-131.8 92,-131.8 187.98,-131.8 187.98,-131.8"/>
<polygon fill="black" stroke="black" points="187.98,-135.3 197.98,-131.8 187.98,-128.3 187.98,-135.3"/>
</g>
</g>
</svg>
