<?xml version="1.0" encoding="UTF-8" standalone="no"?>
<!DOCTYPE svg PUBLIC "-//W3C//DTD SVG 1.1//EN"
 "http://www.w3.org/Graphics/SVG/1.1/DTD/svg11.dtd">
<!-- Generated by graphviz version 2.47.3 (20210619.1520)
 -->
<!-- Title: dependencies Pages: 1 -->
<svg width="1407pt" height="174pt"
 viewBox="0.00 0.00 1407.00 173.80" xmlns="http://www.w3.org/2000/svg" xmlns:xlink="http://www.w3.org/1999/xlink">
<g id="graph0" class="graph" transform="scale(1 1) rotate(0) translate(4 169.8)">
<title>dependencies</title>
<polygon fill="white" stroke="transparent" points="-4,4 -4,-169.8 1403,-169.8 1403,4 -4,4"/>
<text text-anchor="middle" x="699.5" y="-8.2" font-family="sans-serif" font-size="14.00">dependencies</text>
<g id="clust1" class="cluster">
<title>cluster_UsersModule</title>
<polygon fill="none" stroke="black" stroke-dasharray="1,5" points="8,-32.8 8,-157.8 1391,-157.8 1391,-32.8 8,-32.8"/>
</g>
<g id="clust2" class="cluster">
<title>cluster_UsersModule_declarations</title>
<polygon fill="none" stroke="black" points="176,-40.8 176,-92.8 1383,-92.8 1383,-40.8 176,-40.8"/>
</g>
<g id="clust11" class="cluster">
<title>cluster_UsersModule_imports</title>
<polygon fill="none" stroke="black" points="16,-40.8 16,-92.8 168,-92.8 168,-40.8 16,-40.8"/>
</g>
<!-- AccountComponent -->
<g id="node1" class="node">
<title>AccountComponent</title>
<polygon fill="#ffffb3" stroke="black" points="1375.26,-84.8 1246.74,-84.8 1246.74,-48.8 1375.26,-48.8 1375.26,-84.8"/>
<text text-anchor="middle" x="1311" y="-62.6" font-family="Times,serif" font-size="14.00">AccountComponent</text>
</g>
<!-- UsersModule -->
<g id="node9" class="node">
<title>UsersModule</title>
<polygon fill="#8dd3c7" stroke="black" points="735.92,-149.8 732.92,-153.8 711.92,-153.8 708.92,-149.8 644.08,-149.8 644.08,-113.8 735.92,-113.8 735.92,-149.8"/>
<text text-anchor="middle" x="690" y="-127.6" font-family="Times,serif" font-size="14.00">UsersModule</text>
</g>
<!-- AccountComponent&#45;&gt;UsersModule -->
<g id="edge1" class="edge">
<title>AccountComponent&#45;&gt;UsersModule</title>
<path fill="none" stroke="black" d="M1311,-84.81C1311,-107.29 1311,-142.8 1311,-142.8 1311,-142.8 745.92,-142.8 745.92,-142.8"/>
<polygon fill="black" stroke="black" points="745.92,-139.3 735.92,-142.8 745.92,-146.3 745.92,-139.3"/>
</g>
<!-- ContactComponent -->
<g id="node2" class="node">
<title>ContactComponent</title>
<polygon fill="#ffffb3" stroke="black" points="1228.38,-84.8 1103.62,-84.8 1103.62,-48.8 1228.38,-48.8 1228.38,-84.8"/>
<text text-anchor="middle" x="1166" y="-62.6" font-family="Times,serif" font-size="14.00">ContactComponent</text>
</g>
<!-- ContactComponent&#45;&gt;UsersModule -->
<g id="edge2" class="edge">
<title>ContactComponent&#45;&gt;UsersModule</title>
<path fill="none" stroke="black" d="M1166,-84.93C1166,-105.37 1166,-135.8 1166,-135.8 1166,-135.8 746.07,-135.8 746.07,-135.8"/>
<polygon fill="black" stroke="black" points="746.07,-132.3 736.07,-135.8 746.07,-139.3 746.07,-132.3"/>
</g>
<!-- CreateUserComponent -->
<g id="node3" class="node">
<title>CreateUserComponent</title>
<polygon fill="#ffffb3" stroke="black" points="1085.29,-84.8 940.71,-84.8 940.71,-48.8 1085.29,-48.8 1085.29,-84.8"/>
<text text-anchor="middle" x="1013" y="-62.6" font-family="Times,serif" font-size="14.00">CreateUserComponent</text>
</g>
<!-- CreateUserComponent&#45;&gt;UsersModule -->
<g id="edge3" class="edge">
<title>CreateUserComponent&#45;&gt;UsersModule</title>
<path fill="none" stroke="black" d="M1013,-85.07C1013,-103.36 1013,-128.8 1013,-128.8 1013,-128.8 745.93,-128.8 745.93,-128.8"/>
<polygon fill="black" stroke="black" points="745.94,-125.3 735.93,-128.8 745.93,-132.3 745.94,-125.3"/>
</g>
<!-- EditProfileComponent -->
<g id="node4" class="node">
<title>EditProfileComponent</title>
<polygon fill="#ffffb3" stroke="black" points="922.27,-84.8 779.73,-84.8 779.73,-48.8 922.27,-48.8 922.27,-84.8"/>
<text text-anchor="middle" x="851" y="-62.6" font-family="Times,serif" font-size="14.00">EditProfileComponent</text>
</g>
<!-- EditProfileComponent&#45;&gt;UsersModule -->
<g id="edge4" class="edge">
<title>EditProfileComponent&#45;&gt;UsersModule</title>
<path fill="none" stroke="black" d="M851,-84.81C851,-100.85 851,-121.8 851,-121.8 851,-121.8 746.14,-121.8 746.14,-121.8"/>
<polygon fill="black" stroke="black" points="746.14,-118.3 736.14,-121.8 746.14,-125.3 746.14,-118.3"/>
</g>
<!-- PermissionComponent -->
<g id="node5" class="node">
<title>PermissionComponent</title>
<polygon fill="#ffffb3" stroke="black" points="761.55,-84.8 618.45,-84.8 618.45,-48.8 761.55,-48.8 761.55,-84.8"/>
<text text-anchor="middle" x="690" y="-62.6" font-family="Times,serif" font-size="14.00">PermissionComponent</text>
</g>
<!-- PermissionComponent&#45;&gt;UsersModule -->
<g id="edge5" class="edge">
<title>PermissionComponent&#45;&gt;UsersModule</title>
<path fill="none" stroke="black" d="M690,-84.91C690,-84.91 690,-103.79 690,-103.79"/>
<polygon fill="black" stroke="black" points="686.5,-103.79 690,-113.79 693.5,-103.79 686.5,-103.79"/>
</g>
<!-- ProfileComponent -->
<g id="node6" class="node">
<title>ProfileComponent</title>
<polygon fill="#ffffb3" stroke="black" points="600.93,-84.8 481.07,-84.8 481.07,-48.8 600.93,-48.8 600.93,-84.8"/>
<text text-anchor="middle" x="541" y="-62.6" font-family="Times,serif" font-size="14.00">ProfileComponent</text>
</g>
<!-- ProfileComponent&#45;&gt;UsersModule -->
<g id="edge6" class="edge">
<title>ProfileComponent&#45;&gt;UsersModule</title>
<path fill="none" stroke="black" d="M541,-84.81C541,-100.85 541,-121.8 541,-121.8 541,-121.8 634.08,-121.8 634.08,-121.8"/>
<polygon fill="black" stroke="black" points="634.08,-125.3 644.08,-121.8 634.08,-118.3 634.08,-125.3"/>
</g>
<!-- SettingsComponent -->
<g id="node7" class="node">
<title>SettingsComponent</title>
<polygon fill="#ffffb3" stroke="black" points="463.45,-84.8 336.55,-84.8 336.55,-48.8 463.45,-48.8 463.45,-84.8"/>
<text text-anchor="middle" x="400" y="-62.6" font-family="Times,serif" font-size="14.00">SettingsComponent</text>
</g>
<!-- SettingsComponent&#45;&gt;UsersModule -->
<g id="edge7" class="edge">
<title>SettingsComponent&#45;&gt;UsersModule</title>
<path fill="none" stroke="black" d="M400,-85.07C400,-103.36 400,-128.8 400,-128.8 400,-128.8 634.05,-128.8 634.05,-128.8"/>
<polygon fill="black" stroke="black" points="634.05,-132.3 644.05,-128.8 634.05,-125.3 634.05,-132.3"/>
</g>
<!-- UsersListComponent -->
<g id="node8" class="node">
<title>UsersListComponent</title>
<polygon fill="#ffffb3" stroke="black" points="318.48,-84.8 183.52,-84.8 183.52,-48.8 318.48,-48.8 318.48,-84.8"/>
<text text-anchor="middle" x="251" y="-62.6" font-family="Times,serif" font-size="14.00">UsersListComponent</text>
</g>
<!-- UsersListComponent&#45;&gt;UsersModule -->
<g id="edge8" class="edge">
<title>UsersListComponent&#45;&gt;UsersModule</title>
<path fill="none" stroke="black" d="M251,-84.93C251,-105.37 251,-135.8 251,-135.8 251,-135.8 634.26,-135.8 634.26,-135.8"/>
<polygon fill="black" stroke="black" points="634.26,-139.3 644.26,-135.8 634.26,-132.3 634.26,-139.3"/>
</g>
<!-- UsersRoutingModule -->
<g id="node10" class="node">
<title>UsersRoutingModule</title>
<polygon fill="#8dd3c7" stroke="black" points="160.04,-84.8 157.04,-88.8 136.04,-88.8 133.04,-84.8 23.96,-84.8 23.96,-48.8 160.04,-48.8 160.04,-84.8"/>
<text text-anchor="middle" x="92" y="-62.6" font-family="Times,serif" font-size="14.00">UsersRoutingModule</text>
</g>
<!-- UsersRoutingModule&#45;&gt;UsersModule -->
<g id="edge9" class="edge">
<title>UsersRoutingModule&#45;&gt;UsersModule</title>
<path fill="none" stroke="black" d="M92,-84.81C92,-107.29 92,-142.8 92,-142.8 92,-142.8 634.07,-142.8 634.07,-142.8"/>
<polygon fill="black" stroke="black" points="634.07,-146.3 644.07,-142.8 634.07,-139.3 634.07,-146.3"/>
</g>
</g>
</svg>
