<svg xmlns="http://www.w3.org/2000/svg" width="36.855" height="36.855" viewBox="0 0 36.855 36.855">
  <path id="Icon_awesome-fingerprint" data-name="Icon awesome-fingerprint" d="M18.436,17.705a1.728,1.728,0,0,0-1.728,1.728,52.636,52.636,0,0,1-1.994,15.228,1.727,1.727,0,1,0,3.326.934,55.713,55.713,0,0,0,2.122-16.162A1.727,1.727,0,0,0,18.436,17.705Zm-.062-5.883A7.2,7.2,0,0,0,10.949,19.1,47.227,47.227,0,0,1,9.986,29.36a1.727,1.727,0,0,0,3.383.7A50.679,50.679,0,0,0,14.4,19.045a3.751,3.751,0,0,1,3.919-3.768,4.166,4.166,0,0,1,4.148,3.993A57.871,57.871,0,0,1,21.707,29.6a1.727,1.727,0,1,0,3.408.562,61.4,61.4,0,0,0,.811-10.949A7.648,7.648,0,0,0,18.374,11.822ZM10.407,10.4a1.729,1.729,0,0,0-2.43.251,12.485,12.485,0,0,0-2.789,8.062,41.8,41.8,0,0,1-.656,8.066,1.728,1.728,0,1,0,3.4.614,45.276,45.276,0,0,0,.71-8.734,8.9,8.9,0,0,1,2.016-5.828,1.729,1.729,0,0,0-.251-2.43Zm7.88-4.487a12.867,12.867,0,0,0-3.3.358,1.728,1.728,0,1,0,.8,3.363,10.331,10.331,0,0,1,2.447-.266,10.076,10.076,0,0,1,10,9.688,63.422,63.422,0,0,1-.4,8.179,1.728,1.728,0,1,0,3.433.394A66.877,66.877,0,0,0,31.687,19a13.557,13.557,0,0,0-13.4-13.089Zm18.145,8.742a1.727,1.727,0,1,0-3.374.744,17.95,17.95,0,0,1,.338,4.434,1.727,1.727,0,0,0,1.713,1.742h.014a1.727,1.727,0,0,0,1.728-1.713,21.391,21.391,0,0,0-.42-5.207Zm-2.888-6.53A19.148,19.148,0,0,0,18.2,0,18.03,18.03,0,0,0,5.072,5.25,17.167,17.167,0,0,0,.01,17.755L0,19.3a1.726,1.726,0,0,0,1.676,1.777h.052A1.728,1.728,0,0,0,3.454,19.4l.012-1.7A13.733,13.733,0,0,1,7.517,7.694,14.588,14.588,0,0,1,18.148,3.457a15.682,15.682,0,0,1,12.57,6.651,1.727,1.727,0,1,0,2.826-1.985Z" transform="translate(-0.001 0)" fill="#07c828"/>
</svg>
