<?xml version="1.0" encoding="UTF-8" standalone="no"?>
<!DOCTYPE svg PUBLIC "-//W3C//DTD SVG 1.1//EN"
 "http://www.w3.org/Graphics/SVG/1.1/DTD/svg11.dtd">
<!-- Generated by graphviz version 2.47.3 (20210619.1520)
 -->
<!-- Title: dependencies Pages: 1 -->
<svg width="1058pt" height="174pt"
 viewBox="0.00 0.00 1058.00 173.80" xmlns="http://www.w3.org/2000/svg" xmlns:xlink="http://www.w3.org/1999/xlink">
<g id="graph0" class="graph" transform="scale(1 1) rotate(0) translate(4 169.8)">
<title>dependencies</title>
<polygon fill="white" stroke="transparent" points="-4,4 -4,-169.8 1054,-169.8 1054,4 -4,4"/>
<text text-anchor="middle" x="525" y="-8.2" font-family="sans-serif" font-size="14.00">dependencies</text>
<g id="clust1" class="cluster">
<title>cluster_AuthenticationModule</title>
<polygon fill="none" stroke="black" stroke-dasharray="1,5" points="8,-32.8 8,-157.8 1042,-157.8 1042,-32.8 8,-32.8"/>
</g>
<g id="clust8" class="cluster">
<title>cluster_AuthenticationModule_imports</title>
<polygon fill="none" stroke="black" points="830,-40.8 830,-92.8 1034,-92.8 1034,-40.8 830,-40.8"/>
</g>
<g id="clust2" class="cluster">
<title>cluster_AuthenticationModule_declarations</title>
<polygon fill="none" stroke="black" points="16,-40.8 16,-92.8 822,-92.8 822,-40.8 16,-40.8"/>
</g>
<!-- ConfirmPasswordComponent -->
<g id="node1" class="node">
<title>ConfirmPasswordComponent</title>
<polygon fill="#ffffb3" stroke="black" points="814.43,-84.8 631.57,-84.8 631.57,-48.8 814.43,-48.8 814.43,-84.8"/>
<text text-anchor="middle" x="723" y="-62.6" font-family="Times,serif" font-size="14.00">ConfirmPasswordComponent</text>
</g>
<!-- AuthenticationModule -->
<g id="node6" class="node">
<title>AuthenticationModule</title>
<polygon fill="#8dd3c7" stroke="black" points="554.25,-149.8 551.25,-153.8 530.25,-153.8 527.25,-149.8 411.75,-149.8 411.75,-113.8 554.25,-113.8 554.25,-149.8"/>
<text text-anchor="middle" x="483" y="-127.6" font-family="Times,serif" font-size="14.00">AuthenticationModule</text>
</g>
<!-- ConfirmPasswordComponent&#45;&gt;AuthenticationModule -->
<g id="edge1" class="edge">
<title>ConfirmPasswordComponent&#45;&gt;AuthenticationModule</title>
<path fill="none" stroke="black" d="M723,-84.82C723,-102.17 723,-125.8 723,-125.8 723,-125.8 564.36,-125.8 564.36,-125.8"/>
<polygon fill="black" stroke="black" points="564.36,-122.3 554.36,-125.8 564.36,-129.3 564.36,-122.3"/>
</g>
<!-- LoginComponent -->
<g id="node2" class="node">
<title>LoginComponent</title>
<polygon fill="#ffffb3" stroke="black" points="613.28,-84.8 498.72,-84.8 498.72,-48.8 613.28,-48.8 613.28,-84.8"/>
<text text-anchor="middle" x="556" y="-62.6" font-family="Times,serif" font-size="14.00">LoginComponent</text>
</g>
<!-- LoginComponent&#45;&gt;AuthenticationModule -->
<g id="edge2" class="edge">
<title>LoginComponent&#45;&gt;AuthenticationModule</title>
<path fill="none" stroke="black" d="M526.49,-84.91C526.49,-84.91 526.49,-103.79 526.49,-103.79"/>
<polygon fill="black" stroke="black" points="522.99,-103.79 526.49,-113.79 529.99,-103.79 522.99,-103.79"/>
</g>
<!-- LoginPageComponent -->
<g id="node3" class="node">
<title>LoginPageComponent</title>
<polygon fill="#ffffb3" stroke="black" points="480.99,-84.8 339.01,-84.8 339.01,-48.8 480.99,-48.8 480.99,-84.8"/>
<text text-anchor="middle" x="410" y="-62.6" font-family="Times,serif" font-size="14.00">LoginPageComponent</text>
</g>
<!-- LoginPageComponent&#45;&gt;AuthenticationModule -->
<g id="edge3" class="edge">
<title>LoginPageComponent&#45;&gt;AuthenticationModule</title>
<path fill="none" stroke="black" d="M446.31,-84.91C446.31,-84.91 446.31,-103.79 446.31,-103.79"/>
<polygon fill="black" stroke="black" points="442.81,-103.79 446.31,-113.79 449.81,-103.79 442.81,-103.79"/>
</g>
<!-- ResetPhoneComponent -->
<g id="node4" class="node">
<title>ResetPhoneComponent</title>
<polygon fill="#ffffb3" stroke="black" points="320.93,-84.8 173.07,-84.8 173.07,-48.8 320.93,-48.8 320.93,-84.8"/>
<text text-anchor="middle" x="247" y="-62.6" font-family="Times,serif" font-size="14.00">ResetPhoneComponent</text>
</g>
<!-- ResetPhoneComponent&#45;&gt;AuthenticationModule -->
<g id="edge4" class="edge">
<title>ResetPhoneComponent&#45;&gt;AuthenticationModule</title>
<path fill="none" stroke="black" d="M247,-84.82C247,-102.17 247,-125.8 247,-125.8 247,-125.8 401.55,-125.8 401.55,-125.8"/>
<polygon fill="black" stroke="black" points="401.55,-129.3 411.55,-125.8 401.55,-122.3 401.55,-129.3"/>
</g>
<!-- ResetPinComponent -->
<g id="node5" class="node">
<title>ResetPinComponent</title>
<polygon fill="#ffffb3" stroke="black" points="155.61,-84.8 24.39,-84.8 24.39,-48.8 155.61,-48.8 155.61,-84.8"/>
<text text-anchor="middle" x="90" y="-62.6" font-family="Times,serif" font-size="14.00">ResetPinComponent</text>
</g>
<!-- ResetPinComponent&#45;&gt;AuthenticationModule -->
<g id="edge5" class="edge">
<title>ResetPinComponent&#45;&gt;AuthenticationModule</title>
<path fill="none" stroke="black" d="M90,-85.08C90,-106.12 90,-137.8 90,-137.8 90,-137.8 401.37,-137.8 401.37,-137.8"/>
<polygon fill="black" stroke="black" points="401.37,-141.3 411.37,-137.8 401.37,-134.3 401.37,-141.3"/>
</g>
<!-- AuthenticationRoutingModule -->
<g id="node7" class="node">
<title>AuthenticationRoutingModule</title>
<polygon fill="#8dd3c7" stroke="black" points="1025.87,-84.8 1022.87,-88.8 1001.87,-88.8 998.87,-84.8 838.13,-84.8 838.13,-48.8 1025.87,-48.8 1025.87,-84.8"/>
<text text-anchor="middle" x="932" y="-62.6" font-family="Times,serif" font-size="14.00">AuthenticationRoutingModule</text>
</g>
<!-- AuthenticationRoutingModule&#45;&gt;AuthenticationModule -->
<g id="edge6" class="edge">
<title>AuthenticationRoutingModule&#45;&gt;AuthenticationModule</title>
<path fill="none" stroke="black" d="M932,-85.08C932,-106.12 932,-137.8 932,-137.8 932,-137.8 564.64,-137.8 564.64,-137.8"/>
<polygon fill="black" stroke="black" points="564.64,-134.3 554.64,-137.8 564.64,-141.3 564.64,-134.3"/>
</g>
</g>
</svg>
