<?xml version="1.0" encoding="UTF-8" standalone="no"?>
<!DOCTYPE svg PUBLIC "-//W3C//DTD SVG 1.1//EN"
 "http://www.w3.org/Graphics/SVG/1.1/DTD/svg11.dtd">
<!-- Generated by graphviz version 2.47.3 (20210619.1520)
 -->
<!-- Title: dependencies Pages: 1 -->
<svg width="1212pt" height="174pt"
 viewBox="0.00 0.00 1212.00 173.80" xmlns="http://www.w3.org/2000/svg" xmlns:xlink="http://www.w3.org/1999/xlink">
<g id="graph0" class="graph" transform="scale(1 1) rotate(0) translate(4 169.8)">
<title>dependencies</title>
<polygon fill="white" stroke="transparent" points="-4,4 -4,-169.8 1208,-169.8 1208,4 -4,4"/>
<text text-anchor="middle" x="602" y="-8.2" font-family="sans-serif" font-size="14.00">dependencies</text>
<g id="clust1" class="cluster">
<title>cluster_AuthenticationModule</title>
<polygon fill="none" stroke="black" stroke-dasharray="1,5" points="8,-32.8 8,-157.8 1196,-157.8 1196,-32.8 8,-32.8"/>
</g>
<g id="clust2" class="cluster">
<title>cluster_AuthenticationModule_declarations</title>
<polygon fill="none" stroke="black" points="228,-40.8 228,-92.8 1188,-92.8 1188,-40.8 228,-40.8"/>
</g>
<g id="clust9" class="cluster">
<title>cluster_AuthenticationModule_imports</title>
<polygon fill="none" stroke="black" points="16,-40.8 16,-92.8 220,-92.8 220,-40.8 16,-40.8"/>
</g>
<!-- AuthCardComponent -->
<g id="node1" class="node">
<title>AuthCardComponent</title>
<polygon fill="#ffffb3" stroke="black" points="1180.04,-84.8 1043.96,-84.8 1043.96,-48.8 1180.04,-48.8 1180.04,-84.8"/>
<text text-anchor="middle" x="1112" y="-62.6" font-family="Times,serif" font-size="14.00">AuthCardComponent</text>
</g>
<!-- AuthenticationModule -->
<g id="node7" class="node">
<title>AuthenticationModule</title>
<polygon fill="#8dd3c7" stroke="black" points="693.25,-149.8 690.25,-153.8 669.25,-153.8 666.25,-149.8 550.75,-149.8 550.75,-113.8 693.25,-113.8 693.25,-149.8"/>
<text text-anchor="middle" x="622" y="-127.6" font-family="Times,serif" font-size="14.00">AuthenticationModule</text>
</g>
<!-- AuthCardComponent&#45;&gt;AuthenticationModule -->
<g id="edge1" class="edge">
<title>AuthCardComponent&#45;&gt;AuthenticationModule</title>
<path fill="none" stroke="black" d="M1112,-85.09C1112,-107.01 1112,-140.8 1112,-140.8 1112,-140.8 703.51,-140.8 703.51,-140.8"/>
<polygon fill="black" stroke="black" points="703.51,-137.3 693.51,-140.8 703.51,-144.3 703.51,-137.3"/>
</g>
<!-- ConfirmPasswordComponent -->
<g id="node2" class="node">
<title>ConfirmPasswordComponent</title>
<polygon fill="#ffffb3" stroke="black" points="1026.43,-84.8 843.57,-84.8 843.57,-48.8 1026.43,-48.8 1026.43,-84.8"/>
<text text-anchor="middle" x="935" y="-62.6" font-family="Times,serif" font-size="14.00">ConfirmPasswordComponent</text>
</g>
<!-- ConfirmPasswordComponent&#45;&gt;AuthenticationModule -->
<g id="edge2" class="edge">
<title>ConfirmPasswordComponent&#45;&gt;AuthenticationModule</title>
<path fill="none" stroke="black" d="M935,-84.91C935,-104.14 935,-131.8 935,-131.8 935,-131.8 703.42,-131.8 703.42,-131.8"/>
<polygon fill="black" stroke="black" points="703.42,-128.3 693.42,-131.8 703.42,-135.3 703.42,-128.3"/>
</g>
<!-- LoginComponent -->
<g id="node3" class="node">
<title>LoginComponent</title>
<polygon fill="#ffffb3" stroke="black" points="825.28,-84.8 710.72,-84.8 710.72,-48.8 825.28,-48.8 825.28,-84.8"/>
<text text-anchor="middle" x="768" y="-62.6" font-family="Times,serif" font-size="14.00">LoginComponent</text>
</g>
<!-- LoginComponent&#45;&gt;AuthenticationModule -->
<g id="edge3" class="edge">
<title>LoginComponent&#45;&gt;AuthenticationModule</title>
<path fill="none" stroke="black" d="M768,-84.83C768,-101.2 768,-122.8 768,-122.8 768,-122.8 703.29,-122.8 703.29,-122.8"/>
<polygon fill="black" stroke="black" points="703.29,-119.3 693.29,-122.8 703.29,-126.3 703.29,-119.3"/>
</g>
<!-- LoginPageComponent -->
<g id="node4" class="node">
<title>LoginPageComponent</title>
<polygon fill="#ffffb3" stroke="black" points="692.99,-84.8 551.01,-84.8 551.01,-48.8 692.99,-48.8 692.99,-84.8"/>
<text text-anchor="middle" x="622" y="-62.6" font-family="Times,serif" font-size="14.00">LoginPageComponent</text>
</g>
<!-- LoginPageComponent&#45;&gt;AuthenticationModule -->
<g id="edge4" class="edge">
<title>LoginPageComponent&#45;&gt;AuthenticationModule</title>
<path fill="none" stroke="black" d="M622,-84.91C622,-84.91 622,-103.79 622,-103.79"/>
<polygon fill="black" stroke="black" points="618.5,-103.79 622,-113.79 625.5,-103.79 618.5,-103.79"/>
</g>
<!-- ResetPhoneComponent -->
<g id="node5" class="node">
<title>ResetPhoneComponent</title>
<polygon fill="#ffffb3" stroke="black" points="532.93,-84.8 385.07,-84.8 385.07,-48.8 532.93,-48.8 532.93,-84.8"/>
<text text-anchor="middle" x="459" y="-62.6" font-family="Times,serif" font-size="14.00">ResetPhoneComponent</text>
</g>
<!-- ResetPhoneComponent&#45;&gt;AuthenticationModule -->
<g id="edge5" class="edge">
<title>ResetPhoneComponent&#45;&gt;AuthenticationModule</title>
<path fill="none" stroke="black" d="M459,-84.83C459,-101.2 459,-122.8 459,-122.8 459,-122.8 540.51,-122.8 540.51,-122.8"/>
<polygon fill="black" stroke="black" points="540.51,-126.3 550.51,-122.8 540.51,-119.3 540.51,-126.3"/>
</g>
<!-- ResetPinComponent -->
<g id="node6" class="node">
<title>ResetPinComponent</title>
<polygon fill="#ffffb3" stroke="black" points="367.61,-84.8 236.39,-84.8 236.39,-48.8 367.61,-48.8 367.61,-84.8"/>
<text text-anchor="middle" x="302" y="-62.6" font-family="Times,serif" font-size="14.00">ResetPinComponent</text>
</g>
<!-- ResetPinComponent&#45;&gt;AuthenticationModule -->
<g id="edge6" class="edge">
<title>ResetPinComponent&#45;&gt;AuthenticationModule</title>
<path fill="none" stroke="black" d="M302,-84.91C302,-104.14 302,-131.8 302,-131.8 302,-131.8 540.58,-131.8 540.58,-131.8"/>
<polygon fill="black" stroke="black" points="540.58,-135.3 550.58,-131.8 540.58,-128.3 540.58,-135.3"/>
</g>
<!-- AuthenticationRoutingModule -->
<g id="node8" class="node">
<title>AuthenticationRoutingModule</title>
<polygon fill="#8dd3c7" stroke="black" points="211.87,-84.8 208.87,-88.8 187.87,-88.8 184.87,-84.8 24.13,-84.8 24.13,-48.8 211.87,-48.8 211.87,-84.8"/>
<text text-anchor="middle" x="118" y="-62.6" font-family="Times,serif" font-size="14.00">AuthenticationRoutingModule</text>
</g>
<!-- AuthenticationRoutingModule&#45;&gt;AuthenticationModule -->
<g id="edge7" class="edge">
<title>AuthenticationRoutingModule&#45;&gt;AuthenticationModule</title>
<path fill="none" stroke="black" d="M118,-85.09C118,-107.01 118,-140.8 118,-140.8 118,-140.8 540.59,-140.8 540.59,-140.8"/>
<polygon fill="black" stroke="black" points="540.59,-144.3 550.59,-140.8 540.59,-137.3 540.59,-144.3"/>
</g>
</g>
</svg>
