<?xml version="1.0" encoding="utf-8"?>
<!-- Generator: Adobe Illustrator 25.0.1, SVG Export Plug-In . SVG Version: 6.00 Build 0)  -->
<svg version="1.1" id="Layer_1" xmlns="http://www.w3.org/2000/svg" xmlns:xlink="http://www.w3.org/1999/xlink" x="0px" y="0px"
	 viewBox="0 0 1366 768" style="enable-background:new 0 0 1366 768;" xml:space="preserve">
<style type="text/css">
	.st0{fill:url(#SVGID_1_);}
	.st1{fill:url(#SVGID_2_);}
	.st2{fill:url(#SVGID_3_);}
	.st3{fill:url(#SVGID_4_);}
	.st4{fill:url(#SVGID_5_);}
	.st5{fill:url(#SVGID_6_);}
	.st6{fill:url(#SVGID_7_);}
	.st7{fill:url(#SVGID_8_);}
	.st8{fill:url(#SVGID_9_);}
	.st9{fill:url(#SVGID_10_);}
	.st10{fill:url(#SVGID_11_);}
	.st11{fill:url(#SVGID_12_);}
	.st12{fill:url(#SVGID_13_);}
	.st13{fill:url(#SVGID_14_);}
	.st14{fill:url(#SVGID_15_);}
	.st15{fill:url(#SVGID_16_);}
	.st16{fill:url(#SVGID_17_);}
	.st17{fill:url(#SVGID_18_);}
	.st18{fill:url(#SVGID_19_);}
	.st19{fill:url(#SVGID_20_);}
	.st20{fill:url(#SVGID_21_);}
	.st21{fill:url(#SVGID_22_);}
	.st22{fill:url(#SVGID_23_);}
	.st23{fill:url(#SVGID_24_);}
	.st24{fill:url(#SVGID_25_);}
	.st25{fill:url(#SVGID_26_);}
	.st26{fill:url(#SVGID_27_);}
</style>
<g>
	
		<image style="overflow:visible;opacity:0.42;" width="357" height="357" xlink:href="A0143DBE.png"  transform="matrix(1 0 0 1 473.7217 194.5621)">
	</image>
	<g>
		<g>
			<radialGradient id="SVGID_1_" cx="801.6921" cy="322.9703" r="50.0759" gradientUnits="userSpaceOnUse">
				<stop  offset="2.061856e-02" style="stop-color:#000A55"/>
				<stop  offset="0.7861" style="stop-color:#9D80FF"/>
				<stop  offset="0.9201" style="stop-color:#4243A7"/>
				<stop  offset="1" style="stop-color:#8C83FF"/>
				<stop  offset="1" style="stop-color:#8C83FF"/>
			</radialGradient>
			<path class="st0" d="M826.6,365.4c-0.1-2.2-0.2-4.3-0.4-6.5l0,0c-1.4-18.8-5.7-37-12.9-54.3c-7-16.8-16.5-32.4-28.4-46.3
				c-1.7-2-4.6-2.2-6.5-0.5s-2.2,4.6-0.5,6.5c11.2,13.2,20.3,27.9,26.9,43.8c6.8,16.3,10.9,33.6,12.2,51.4c0,0.4,0,0.8,0,1.2
				c0,1.7,0.1,3.3,0.1,4.9c0,2.1,0.1,4.2,0.1,6.3s0,4.2-0.1,6.3c0,2-0.1,4.1-0.2,6.2c0,0.2,0,0.3,0,0.5c0,0.1,0,0.1,0,0.2
				c0,0.1,0,0.2,0,0.3c0,0.1,0,0.1,0,0.2c0,0.1,0,0.1,0,0.2c0,0.1,0,0.1,0.1,0.2c0,0.1,0,0.1,0.1,0.2c0,0.1,0.1,0.1,0.1,0.2
				c0,0.1,0,0.1,0.1,0.2c0,0.1,0.1,0.1,0.1,0.2c0,0.1,0.1,0.1,0.1,0.2c0,0.1,0.1,0.1,0.1,0.2c0,0.1,0.1,0.1,0.1,0.2s0.1,0.1,0.1,0.2
				c0,0.1,0.1,0.1,0.2,0.2c0,0,0.1,0.1,0.2,0.1c0,0,0.1,0.1,0.2,0.2c0,0,0.1,0.1,0.2,0.1c0.1,0,0.1,0.1,0.2,0.1
				c0.1,0,0.1,0.1,0.2,0.1c0.1,0,0.1,0.1,0.2,0.1c0.1,0,0.1,0.1,0.2,0.1c0.1,0,0.1,0.1,0.2,0.1c0.1,0,0.1,0.1,0.2,0.1
				c0.1,0,0.1,0.1,0.2,0.1c0.1,0,0.1,0,0.2,0.1c0.1,0,0.2,0,0.2,0.1c0.1,0,0.2,0,0.2,0c0.1,0,0.2,0,0.2,0s0.2,0,0.2,0
				c0.1,0,0.1,0,0.2,0c0,0,0,0,0.1,0c0,0,0,0,0,0c0.1,0,0.1,0,0.2,0l0,0l0,0l0,0c0.3,0,0.6,0,0.9-0.1c0,0,0,0,0,0
				c0.3,0,0.5-0.1,0.8-0.2c0,0,0,0,0,0c0.2-0.1,0.5-0.2,0.7-0.4c0,0,0,0,0,0c0.2-0.1,0.4-0.3,0.6-0.5c0,0,0,0,0.1,0
				c0.2-0.2,0.4-0.4,0.5-0.6c0,0,0,0,0-0.1c0.2-0.2,0.3-0.4,0.4-0.7c0,0,0,0,0-0.1c0.1-0.2,0.2-0.5,0.3-0.7c0,0,0-0.1,0-0.1
				c0.1-0.3,0.1-0.5,0.1-0.8c0,0,0,0,0-0.1c0.2-2.1,0.3-4.3,0.4-6.5c0.1-2.2,0.1-4.4,0.1-6.5C826.7,369.8,826.6,367.6,826.6,365.4z"
				/>
			<radialGradient id="SVGID_2_" cx="761.1161" cy="444.0344" r="56.6806" gradientUnits="userSpaceOnUse">
				<stop  offset="2.061856e-02" style="stop-color:#000A55"/>
				<stop  offset="0.7861" style="stop-color:#9D80FF"/>
				<stop  offset="0.9201" style="stop-color:#4243A7"/>
				<stop  offset="1" style="stop-color:#8C83FF"/>
				<stop  offset="1" style="stop-color:#8C83FF"/>
			</radialGradient>
			<path class="st1" d="M784.3,371.9c0-2.6-2.1-4.6-4.6-4.6s-4.6,2.1-4.6,4.6c0,17-1.5,34.1-4.4,50.7c-2.8,16.2-7.1,32.4-12.6,47.9
				c-2.7,7.5-5.7,14.9-8.9,22.2c-3.2,7.2-6.8,14.3-10.6,21.2c-1.2,2.2-0.4,5.1,1.8,6.3c0.7,0.4,1.5,0.6,2.2,0.6
				c1.6,0,3.2-0.9,4.1-2.4c3.9-7.1,7.6-14.5,11-21.9c3.4-7.5,6.5-15.2,9.2-22.9c5.7-16,10.1-32.6,13-49.4
				C782.8,407.1,784.3,389.5,784.3,371.9z"/>
			<radialGradient id="SVGID_3_" cx="746.9691" cy="355.403" r="101.9658" gradientUnits="userSpaceOnUse">
				<stop  offset="2.061856e-02" style="stop-color:#000A55"/>
				<stop  offset="0.7861" style="stop-color:#9D80FF"/>
				<stop  offset="0.9201" style="stop-color:#4243A7"/>
				<stop  offset="1" style="stop-color:#8C83FF"/>
				<stop  offset="1" style="stop-color:#8C83FF"/>
			</radialGradient>
			<path class="st2" d="M765.9,268.7L765.9,268.7c-5.5-6-11.4-11.7-17.7-16.8c-6.3-5.1-13.2-9.8-20.2-13.8l0,0
				c-5.3-3-10.8-5.7-16.3-8.1c-5.6-2.4-11.5-4.5-17.3-6.1c-2.5-0.7-5,0.7-5.7,3.2c-0.7,2.5,0.7,5,3.2,5.7c5.5,1.6,11,3.5,16.3,5.8
				c5.2,2.2,10.4,4.8,15.3,7.6l0,0c6.6,3.8,13,8.2,19,13c6,4.8,11.6,10.1,16.7,15.8l0,0c11.8,13,21,27.9,27.4,44.2
				c6.6,16.8,10,34.6,10,52.9c0,18.9-1.7,37.7-5,56.1c-3.2,18-8.1,35.8-14.4,52.9c-0.9,2.4,0.3,5.1,2.7,5.9c0.5,0.2,1.1,0.3,1.6,0.3
				c1.9,0,3.7-1.2,4.3-3c6.5-17.6,11.5-35.9,14.8-54.4c3.4-18.9,5.1-38.4,5.1-57.8c0-19.4-3.6-38.4-10.6-56.3
				C788.2,298.3,778.4,282.5,765.9,268.7z"/>
			<radialGradient id="SVGID_4_" cx="724.3826" cy="497.6336" r="33.119" gradientUnits="userSpaceOnUse">
				<stop  offset="2.061856e-02" style="stop-color:#000A55"/>
				<stop  offset="0.7861" style="stop-color:#9D80FF"/>
				<stop  offset="0.9201" style="stop-color:#4243A7"/>
				<stop  offset="1" style="stop-color:#8C83FF"/>
				<stop  offset="1" style="stop-color:#8C83FF"/>
			</radialGradient>
			<path class="st3" d="M739.3,483.9c3-6.8,5.7-13.8,8.1-20.8c0.8-2.4-0.5-5-2.9-5.9c-2.4-0.8-5,0.5-5.9,2.9
				c-2.3,6.8-4.9,13.5-7.8,20.1c-2.8,6.5-6,13-9.3,19.3l0,0c-2.9,5.4-6,10.8-9.2,16c-3.2,5.2-6.7,10.4-10.3,15.3c-1.5,2.1-1,5,1,6.5
				c0.8,0.6,1.8,0.9,2.7,0.9c1.4,0,2.9-0.7,3.8-1.9c3.7-5.2,7.3-10.5,10.6-15.9c3.4-5.4,6.6-11,9.6-16.6v0
				C733.2,497.4,736.4,490.7,739.3,483.9z"/>
			<radialGradient id="SVGID_5_" cx="687.6604" cy="521.0424" r="22.0864" gradientUnits="userSpaceOnUse">
				<stop  offset="2.061856e-02" style="stop-color:#000A55"/>
				<stop  offset="0.7861" style="stop-color:#9D80FF"/>
				<stop  offset="0.9201" style="stop-color:#4243A7"/>
				<stop  offset="1" style="stop-color:#8C83FF"/>
				<stop  offset="1" style="stop-color:#8C83FF"/>
			</radialGradient>
			<path class="st4" d="M704.5,497c-2.2-1.3-5-0.5-6.3,1.7c-2.8,4.8-5.9,9.7-9,14.3c-3,4.4-6.1,8.7-9.3,12.9
				c-3.2,4.2-6.6,8.3-10.1,12.2c-1.7,1.9-1.5,4.8,0.4,6.5c0.9,0.8,2,1.2,3.1,1.2c1.3,0,2.6-0.5,3.5-1.6c3.6-4.1,7.1-8.4,10.5-12.7
				c3.3-4.3,6.6-8.8,9.7-13.3c3.3-4.8,6.4-9.8,9.4-14.8C707.4,501.1,706.7,498.3,704.5,497z"/>
			<radialGradient id="SVGID_6_" cx="741.624" cy="356.7029" r="48.8942" gradientUnits="userSpaceOnUse">
				<stop  offset="2.061856e-02" style="stop-color:#000A55"/>
				<stop  offset="0.7861" style="stop-color:#9D80FF"/>
				<stop  offset="0.9201" style="stop-color:#4243A7"/>
				<stop  offset="1" style="stop-color:#8C83FF"/>
				<stop  offset="1" style="stop-color:#8C83FF"/>
			</radialGradient>
			<path class="st5" d="M753.3,422.6c0.3,0,0.5,0.1,0.8,0.1c2.2,0,4.2-1.6,4.6-3.9c2.6-15.4,3.9-31.1,3.9-46.8
				c0-15.3-3.1-30.2-9.1-44.1c-5.8-13.5-14.2-25.5-24.8-35.7c-1.8-1.8-4.8-1.7-6.5,0.1c-1.8,1.8-1.7,4.8,0.1,6.5
				c9.7,9.4,17.4,20.4,22.7,32.8c5.5,12.8,8.3,26.4,8.3,40.4c0,15.2-1.3,30.4-3.8,45.3C749.1,419.8,750.8,422.1,753.3,422.6z"/>
			<radialGradient id="SVGID_7_" cx="701.5071" cy="386.731" r="78.6122" gradientUnits="userSpaceOnUse">
				<stop  offset="2.061856e-02" style="stop-color:#000A55"/>
				<stop  offset="0.7861" style="stop-color:#9D80FF"/>
				<stop  offset="0.9201" style="stop-color:#4243A7"/>
				<stop  offset="1" style="stop-color:#8C83FF"/>
				<stop  offset="1" style="stop-color:#8C83FF"/>
			</radialGradient>
			<path class="st6" d="M721,447.1L721,447.1c-2,6.3-4.2,12.6-6.7,18.7c-2.4,6.1-5.2,12.1-8.1,18c-1.1,2.3-0.2,5.1,2.1,6.2
				c0.7,0.3,1.4,0.5,2.1,0.5c1.7,0,3.3-0.9,4.2-2.6c3-6.1,5.8-12.3,8.4-18.6c2.5-6.3,4.9-12.9,6.9-19.4l0,0
				c3.9-12.4,6.8-25.2,8.8-38c2-13.1,3-26.5,3-39.9c0-13.6-2.9-26.6-8.7-38.8c-5.5-11.6-13.7-22.1-23.5-30.3
				c-4.3-3.6-9-6.9-13.9-9.6c-5-2.8-10.2-5.1-15.6-6.9c-4.2-1.4-8.6-2.5-13-3.2c-2.5-0.4-4.9,1.3-5.3,3.8s1.3,4.9,3.8,5.3
				c4,0.7,7.9,1.7,11.7,2.9c4.8,1.6,9.6,3.7,14,6.2c4.4,2.5,8.6,5.4,12.5,8.6c8.8,7.4,16.2,16.8,21.1,27.2
				c5.2,10.9,7.8,22.6,7.8,34.8c0,12.9-1,25.8-2.9,38.5C727.6,422.8,724.7,435.1,721,447.1z"/>
			<radialGradient id="SVGID_8_" cx="640.5526" cy="507.8232" r="33.0561" gradientUnits="userSpaceOnUse">
				<stop  offset="2.061856e-02" style="stop-color:#000A55"/>
				<stop  offset="0.7861" style="stop-color:#9D80FF"/>
				<stop  offset="0.9201" style="stop-color:#4243A7"/>
				<stop  offset="1" style="stop-color:#8C83FF"/>
				<stop  offset="1" style="stop-color:#8C83FF"/>
			</radialGradient>
			<path class="st7" d="M646.8,513.5c3-3.5,5.8-7,8.5-10.7l0,0c2.8-3.7,5.5-7.5,8-11.4c2.5-3.9,5-7.9,7.3-11.9
				c1.3-2.2,0.5-5-1.7-6.3s-5-0.5-6.3,1.7c-2.2,3.9-4.5,7.7-7,11.4c-0.6,0.9-1.2,1.8-1.8,2.7c-0.2,0.3-0.4,0.6-0.6,0.9
				c-0.4,0.6-0.8,1.2-1.2,1.8c-0.3,0.4-0.5,0.7-0.8,1.1c-0.4,0.5-0.7,1-1.1,1.5c-0.3,0.4-0.6,0.8-0.8,1.2s-0.6,0.8-0.8,1.2
				c-0.4,0.4-0.8,0.8-1,1.3c-2.5,3.2-5,6.4-7.7,9.5c-2.8,3.3-5.8,6.6-8.8,9.7l0,0c-3,3.1-6.2,6.2-9.4,9.1c-3.2,2.9-6.6,5.8-10,8.5
				c-2,1.6-2.3,4.5-0.7,6.5c0.9,1.1,2.3,1.7,3.6,1.7c1,0,2-0.3,2.9-1c3.5-2.8,7-5.8,10.4-8.9c3.3-3.1,6.7-6.3,9.8-9.5l0,0
				C640.7,520.4,643.8,517,646.8,513.5z"/>
			<radialGradient id="SVGID_9_" cx="679.0984" cy="457.0694" r="69.8636" gradientUnits="userSpaceOnUse">
				<stop  offset="2.061856e-02" style="stop-color:#000A55"/>
				<stop  offset="0.7861" style="stop-color:#9D80FF"/>
				<stop  offset="0.9201" style="stop-color:#4243A7"/>
				<stop  offset="1" style="stop-color:#8C83FF"/>
				<stop  offset="1" style="stop-color:#8C83FF"/>
			</radialGradient>
			<path class="st8" d="M675.1,512c2.9-4.1,5.8-8.3,8.5-12.5c2.8-4.5,5.6-9.2,8.1-13.9c2.5-4.7,5-9.6,7.2-14.5
				c2.4-5.2,4.6-10.5,6.6-15.9c2-5.4,3.8-10.9,5.4-16.4c3.1-10.7,5.5-21.7,7-32.7c1.6-11.2,2.4-22.7,2.4-34.2c0-2.6-2.1-4.6-4.6-4.6
				s-4.6,2.1-4.6,4.6c0,11-0.8,22-2.3,32.8c-1.5,10.6-3.8,21.1-6.8,31.4c-1.5,5.3-3.3,10.6-5.2,15.8c-1.9,5.1-4,10.3-6.3,15.3
				c-2.1,4.7-4.5,9.4-6.9,13.9c-2.4,4.5-5.1,9-7.8,13.3c-2.6,4.1-5.3,8.2-8.2,12.1c-2.8,3.9-5.8,7.8-8.9,11.5c0,0,0,0,0,0
				c-3,3.7-6.2,7.3-9.4,10.7c-3.2,3.5-6.6,6.9-10,10.1c-1.9,1.8-1.9,4.7-0.2,6.5c0.9,1,2.1,1.4,3.4,1.4c1.1,0,2.3-0.4,3.2-1.3
				c3.6-3.4,7.1-6.9,10.4-10.5c3.3-3.6,6.6-7.3,9.8-11.1c0,0,0,0,0,0C669.1,520.1,672.2,516,675.1,512z"/>
			<radialGradient id="SVGID_10_" cx="649.6351" cy="328.7992" r="48.1366" gradientUnits="userSpaceOnUse">
				<stop  offset="2.061856e-02" style="stop-color:#000A55"/>
				<stop  offset="0.7861" style="stop-color:#9D80FF"/>
				<stop  offset="0.9201" style="stop-color:#4243A7"/>
				<stop  offset="1" style="stop-color:#8C83FF"/>
				<stop  offset="1" style="stop-color:#8C83FF"/>
			</radialGradient>
			<path class="st9" d="M708.1,346.2c0.7,0,1.5-0.2,2.2-0.6c2.2-1.2,3.1-4,1.9-6.3c-5.2-9.6-12.7-18-21.8-24.2
				c-4-2.8-8.3-5.1-12.9-6.9c-4.6-1.9-9.4-3.3-14.3-4.1l0,0c-1.9-0.3-3.8-0.6-5.8-0.7c-4.1-0.4-8.2-0.3-12.3,0
				c-2.1,0.2-4.2,0.5-6.2,0.9c0,0,0,0,0,0c-3.9,0.7-7.7,1.8-11.4,3.2c-3.6,1.4-7.2,3-10.5,5c-3.5,2-6.9,4.4-10,7.1
				c-3.1,2.6-6,5.5-8.6,8.7c-5,6-8.9,12.8-11.5,20.1c-0.9,2.4,0.3,5.1,2.8,5.9c0.5,0.2,1.1,0.3,1.6,0.3c1.9,0,3.7-1.2,4.3-3
				c2.3-6.3,5.7-12.2,10-17.4c2.2-2.7,4.7-5.2,7.4-7.5c2.7-2.3,5.6-4.3,8.7-6.1c2.9-1.7,6-3.1,9.1-4.3c3.2-1.2,6.5-2.1,9.8-2.7l0,0
				c1.8-0.3,3.6-0.6,5.4-0.8c3.5-0.3,7.1-0.3,10.7,0c1.7,0.1,3.3,0.4,5,0.6l0,0c4.2,0.7,8.4,1.9,12.4,3.5c3.9,1.6,7.6,3.6,11.1,6
				c7.8,5.4,14.3,12.6,18.8,21C704.8,345.3,706.4,346.2,708.1,346.2z"/>
			<radialGradient id="SVGID_11_" cx="681.7259" cy="392.9548" r="47.4146" gradientUnits="userSpaceOnUse">
				<stop  offset="2.061856e-02" style="stop-color:#000A55"/>
				<stop  offset="0.7861" style="stop-color:#9D80FF"/>
				<stop  offset="0.9201" style="stop-color:#4243A7"/>
				<stop  offset="1" style="stop-color:#8C83FF"/>
				<stop  offset="1" style="stop-color:#8C83FF"/>
			</radialGradient>
			<path class="st10" d="M676.6,457.4c0.6,0.2,1.2,0.4,1.8,0.4c1.8,0,3.5-1.1,4.3-2.9c1.9-4.6,3.7-9.4,5.3-14.2
				c1.6-4.8,3-9.7,4.3-14.6c2.2-8.7,3.9-17.6,5-26.5c1.2-9.1,1.7-18.4,1.7-27.6c0-9.3-2.7-18.4-7.8-26.1c-5-7.6-12-13.5-20.2-17.2
				c-2.3-1-5.1,0-6.1,2.3c-1,2.3,0,5.1,2.3,6.1c6.6,3,12.3,7.8,16.3,13.9c4.1,6.2,6.3,13.5,6.3,21c0,8.8-0.6,17.7-1.7,26.4
				c-1.1,8.5-2.7,17.1-4.8,25.4c-1.2,4.7-2.6,9.4-4.1,14c-1.5,4.6-3.2,9.1-5,13.6C673.1,453.7,674.3,456.4,676.6,457.4z"/>
			<radialGradient id="SVGID_12_" cx="603.4896" cy="518.69" r="17.8637" gradientUnits="userSpaceOnUse">
				<stop  offset="2.061856e-02" style="stop-color:#000A55"/>
				<stop  offset="0.7861" style="stop-color:#9D80FF"/>
				<stop  offset="0.9201" style="stop-color:#4243A7"/>
				<stop  offset="1" style="stop-color:#8C83FF"/>
				<stop  offset="1" style="stop-color:#8C83FF"/>
			</radialGradient>
			<path class="st11" d="M621.2,509.9c1.8-1.8,1.8-4.8,0-6.5c-1.8-1.8-4.8-1.8-6.5,0c-2.8,2.9-5.8,5.7-8.8,8.3
				c-3,2.7-6.2,5.4-9.4,7.9c-3.2,2.5-6.5,5-9.9,7.2c-2.1,1.4-2.7,4.3-1.2,6.4c0.9,1.3,2.3,2,3.8,2c0.9,0,1.8-0.3,2.6-0.8
				c3.5-2.4,7-5,10.4-7.6c3.4-2.6,6.7-5.4,9.9-8.2C615.1,515.9,618.2,512.9,621.2,509.9z"/>
			<radialGradient id="SVGID_13_" cx="650.0875" cy="455.6002" r="29.9351" gradientUnits="userSpaceOnUse">
				<stop  offset="2.061856e-02" style="stop-color:#000A55"/>
				<stop  offset="0.7861" style="stop-color:#9D80FF"/>
				<stop  offset="0.9201" style="stop-color:#4243A7"/>
				<stop  offset="1" style="stop-color:#8C83FF"/>
				<stop  offset="1" style="stop-color:#8C83FF"/>
			</radialGradient>
			<path class="st12" d="M647.1,458.8C647.1,458.8,647.1,458.8,647.1,458.8c-0.1,0.2-0.2,0.4-0.3,0.6c-0.4,0.7-0.8,1.5-1.2,2.2
				c-0.2,0.3-0.3,0.6-0.5,0.9c-0.5,1-1.1,2-1.7,3c-1.9,3.3-3.9,6.6-6,9.8l0,0c-2.2,3.4-4.6,6.7-7,9.9c-1.5,2-1.2,4.9,0.9,6.5
				c0.8,0.6,1.8,0.9,2.8,0.9c1.4,0,2.8-0.6,3.7-1.8c2.6-3.4,5-6.9,7.4-10.4c0,0,0,0,0,0c2.2-3.3,4.3-6.8,6.3-10.2
				c2-3.5,3.9-7,5.7-10.6l0,0l0,0c1.8-3.7,3.5-7.4,5.1-11.2c1.6-3.8,3.1-7.7,4.4-11.6c0,0,0,0,0,0c1.4-4,2.7-8.1,3.8-12.2
				c0.7-2.5-0.8-5-3.2-5.7c-2.5-0.7-5,0.8-5.7,3.2c-1.1,3.9-2.3,7.8-3.6,11.6l0,0c-1.3,3.7-2.7,7.4-4.2,11c-0.5,1.2-1.1,2.5-1.6,3.7
				c-0.1,0.3-0.3,0.6-0.4,0.9c-0.5,1.2-1.1,2.4-1.7,3.6c0,0,0,0.1-0.1,0.1c0,0,0,0-0.1,0c-0.2,0.1-0.4,0.1-0.5,0.2c0,0,0,0-0.1,0
				c-0.2,0.1-0.4,0.2-0.5,0.3c0,0-0.1,0.1-0.1,0.1c-0.2,0.1-0.3,0.3-0.5,0.4c0,0,0,0,0,0c-0.1,0.1-0.3,0.3-0.4,0.5
				c0,0,0,0.1-0.1,0.1c-0.1,0.2-0.2,0.3-0.3,0.5c0,0,0,0.1,0,0.1c-0.1,0.2-0.2,0.3-0.2,0.5c0,0,0,0.1,0,0.1
				c-0.1,0.2-0.1,0.4-0.2,0.6c0,0,0,0.1,0,0.1c0,0.2,0,0.4,0,0.7c0,0.2,0,0.4,0,0.6c0,0,0,0.1,0,0.1
				C647,458.4,647,458.6,647.1,458.8z"/>
			<radialGradient id="SVGID_14_" cx="648.0223" cy="383.7194" r="34.0735" gradientUnits="userSpaceOnUse">
				<stop  offset="2.061856e-02" style="stop-color:#000A55"/>
				<stop  offset="0.7861" style="stop-color:#9D80FF"/>
				<stop  offset="0.9201" style="stop-color:#4243A7"/>
				<stop  offset="1" style="stop-color:#8C83FF"/>
				<stop  offset="1" style="stop-color:#8C83FF"/>
			</radialGradient>
			<path class="st13" d="M672,396.4c2.3,0,4.4-1.8,4.6-4.2c0.7-6.7,1-13.5,1-20.3c0-7-2.7-13.6-7.7-18.5s-11.5-7.7-18.5-7.7
				c-0.2,0-0.5,0-0.7,0c-0.2,0-0.4,0-0.7,0l0,0c-5.2,0.3-10.2,2-14.3,5.2c-4.1,3.1-7.2,7.2-8.9,12c-0.5,1.4-0.9,2.9-1.2,4.4
				c-0.3,1.5-0.4,3.1-0.4,4.6c0,5.7-0.3,11.4-1,17c-0.6,5.5-1.6,11-2.9,16.4c-0.8,3.5-1.8,7-2.9,10.4c-0.8,2.4,0.6,5,3,5.8
				c0.5,0.1,0.9,0.2,1.4,0.2c2,0,3.8-1.3,4.4-3.2c1.2-3.6,2.2-7.4,3-11c1.3-5.7,2.4-11.6,3.1-17.4c0.7-6,1-12,1-18c0-1,0.1-2,0.3-3
				c0.2-1,0.4-1.9,0.8-2.8c1.1-3.1,3.1-5.8,5.8-7.8c2.7-2,5.9-3.2,9.2-3.3l0,0c0.2,0,0.3,0,0.5,0c0.1,0,0.3,0,0.4,0
				c4.5,0,8.8,1.8,12,5c3.2,3.2,5,7.4,5,12c0,6.5-0.3,13-1,19.4c-0.3,2.5,1.6,4.8,4.1,5.1C671.7,396.4,671.9,396.4,672,396.4z"/>
			<radialGradient id="SVGID_15_" cx="608.9896" cy="456.607" r="58.4018" gradientUnits="userSpaceOnUse">
				<stop  offset="2.061856e-02" style="stop-color:#000A55"/>
				<stop  offset="0.7861" style="stop-color:#9D80FF"/>
				<stop  offset="0.9201" style="stop-color:#4243A7"/>
				<stop  offset="1" style="stop-color:#8C83FF"/>
				<stop  offset="1" style="stop-color:#8C83FF"/>
			</radialGradient>
			<path class="st14" d="M598.3,502.3c3-2.7,5.9-5.5,8.6-8.3c2.8-2.8,5.4-5.8,8-8.8c2.6-3,5-6.2,7.4-9.4c2.2-3,4.3-6.1,6.3-9.2
				c2-3.1,3.9-6.4,5.8-9.6c1.8-3.2,3.5-6.6,5.1-10c1.6-3.4,3.1-6.9,4.5-10.3c1.4-3.4,2.6-6.9,3.8-10.4c1.2-3.5,2.2-7.1,3.1-10.7l0,0
				c0.9-3.5,1.7-7.1,2.4-10.7c0.5-2.6,1-5.3,1.3-8c0.9-0.9,1.5-2.1,1.5-3.5c0-2.6-2.1-4.6-4.6-4.6c-0.2,0-0.3,0-0.5,0
				c-0.2,0-0.3,0-0.4,0c-2.4-0.1-4.5,1.6-4.8,4c-0.4,3.5-1,6.9-1.6,10.4c-0.6,3.4-1.4,6.8-2.3,10.1l0,0c-0.9,3.4-1.9,6.8-3,10.1
				c-1.1,3.3-2.3,6.6-3.6,9.9c-1.3,3.3-2.7,6.6-4.3,9.8c-1.5,3.2-3.2,6.4-4.9,9.4c-1.7,3.1-3.5,6.1-5.4,9.1c-1.9,3-3.9,5.9-6,8.7
				c-2.2,3-4.6,6-7,8.9c-2.4,2.9-5,5.7-7.6,8.4c-2.6,2.7-5.4,5.4-8.2,7.9s-5.7,5-8.7,7.3c-3,2.4-6.2,4.7-9.4,6.8
				c-3.2,2.2-6.5,4.2-9.9,6.2c-2.2,1.3-3,4.1-1.7,6.3c0.9,1.5,2.4,2.3,4,2.3c0.8,0,1.6-0.2,2.3-0.6c3.5-2,7-4.2,10.4-6.5
				c3.4-2.3,6.7-4.7,9.9-7.2C592.2,507.6,595.3,505,598.3,502.3z"/>
			<radialGradient id="SVGID_16_" cx="639.8923" cy="223.3787" r="78.1779" gradientUnits="userSpaceOnUse">
				<stop  offset="2.061856e-02" style="stop-color:#000A55"/>
				<stop  offset="0.7861" style="stop-color:#9D80FF"/>
				<stop  offset="0.9201" style="stop-color:#4243A7"/>
				<stop  offset="1" style="stop-color:#8C83FF"/>
				<stop  offset="1" style="stop-color:#8C83FF"/>
			</radialGradient>
			<path class="st15" d="M537.2,250c1.1,0,2.2-0.4,3.1-1.2c2.8-2.5,5.8-5,8.7-7.4l0,0c3.1-2.4,6.3-4.8,9.6-7
				c3.3-2.2,6.7-4.4,10.1-6.3l0,0c3.5-2,7.1-3.9,10.8-5.7c3.7-1.8,7.5-3.4,11.2-4.9l0,0c4-1.6,8-3,12.1-4.2
				c4.1-1.3,8.3-2.4,12.5-3.3c4.4-1,9-1.8,13.5-2.4c4.6-0.6,9.2-1.1,13.8-1.3l0,0c1.5-0.1,2.9-0.1,4.4-0.2c5-0.1,10,0,15,0.3
				c3.5,0.2,7,0.6,10.4,1c5.4,0.7,10.8,1.6,16.1,2.9c5.2,1.2,10.5,2.7,15.6,4.4c6.3,2.1,12.5,4.6,18.5,7.5c5.9,2.8,11.8,6,17.3,9.6
				c0.8,0.5,1.6,0.7,2.5,0.7c1.5,0,3-0.8,3.9-2.1c1.4-2.2,0.7-5-1.4-6.4c-5.9-3.7-12-7.1-18.3-10.1c-6.3-3-12.9-5.7-19.5-7.9
				c-5.4-1.8-10.9-3.4-16.4-4.6c-5.6-1.3-11.3-2.3-17-3h0c-3.6-0.5-7.3-0.8-11-1c-5.2-0.3-10.6-0.4-15.8-0.3c-1.5,0-3.1,0.1-4.6,0.2
				l0,0c-4.9,0.2-9.8,0.7-14.6,1.4c-4.8,0.6-9.5,1.5-14.2,2.5c-4.4,1-8.9,2.1-13.2,3.5c-4.3,1.3-8.6,2.8-12.8,4.5l0,0
				c-4,1.6-8,3.3-11.9,5.2c-3.8,1.9-7.7,3.9-11.4,6l0,0c-3.6,2.1-7.2,4.3-10.7,6.7c-3.5,2.3-6.9,4.8-10.2,7.4l0,0
				c-3.1,2.5-6.2,5.1-9.2,7.8c-1.9,1.7-2,4.6-0.3,6.5C534.7,249.5,535.9,250,537.2,250z"/>
			<radialGradient id="SVGID_17_" cx="578.0479" cy="476.3622" r="35.4338" gradientUnits="userSpaceOnUse">
				<stop  offset="2.061856e-02" style="stop-color:#000A55"/>
				<stop  offset="0.7861" style="stop-color:#9D80FF"/>
				<stop  offset="0.9201" style="stop-color:#4243A7"/>
				<stop  offset="1" style="stop-color:#8C83FF"/>
				<stop  offset="1" style="stop-color:#8C83FF"/>
			</radialGradient>
			<path class="st16" d="M568.6,498.3c3.1-2.2,6.2-4.5,9.2-6.9s5.9-5,8.7-7.6l0,0c2.8-2.6,5.5-5.4,8-8.2c2.6-2.8,5.1-5.8,7.4-8.7
				l0,0c2.2-2.8,4.3-5.7,6.3-8.7c2-3,3.9-6,5.7-9.1c1.3-2.2,0.5-5-1.7-6.3s-5-0.5-6.3,1.7c-1.7,2.9-3.5,5.8-5.4,8.6s-3.9,5.5-6,8.2
				l0,0c-2.2,2.8-4.5,5.6-7,8.2c-2.4,2.6-4.9,5.2-7.5,7.7l0,0c-2.6,2.5-5.3,4.9-8.1,7.1s-5.7,4.5-8.7,6.5l0,0c-3,2.1-6.2,4.1-9.3,6
				c-3.2,1.9-6.5,3.7-9.8,5.3c-2.3,1.1-3.2,3.9-2.1,6.2c0.8,1.6,2.5,2.6,4.2,2.6c0.7,0,1.4-0.2,2-0.5c3.5-1.7,7-3.6,10.4-5.6
				C562,502.6,565.3,500.5,568.6,498.3L568.6,498.3z"/>
			<radialGradient id="SVGID_18_" cx="637.7454" cy="278.9973" r="45.351" gradientUnits="userSpaceOnUse">
				<stop  offset="2.061856e-02" style="stop-color:#000A55"/>
				<stop  offset="0.7861" style="stop-color:#9D80FF"/>
				<stop  offset="0.9201" style="stop-color:#4243A7"/>
				<stop  offset="1" style="stop-color:#8C83FF"/>
				<stop  offset="1" style="stop-color:#8C83FF"/>
			</radialGradient>
			<path class="st17" d="M580.9,297.1c1.1,0,2.2-0.4,3.1-1.2c2.5-2.3,5.2-4.4,8-6.4c2.8-2,5.7-3.9,8.6-5.6c3.1-1.8,6.2-3.4,9.5-4.9
				c3.2-1.5,6.6-2.8,10-3.9l0,0c3.5-1.1,7.1-2.1,10.6-2.8c3.6-0.8,7.4-1.3,11.1-1.7l0,0c1.6-0.2,3.3-0.3,4.9-0.4
				c4.1-0.2,8.2-0.1,12.2,0.1c2.4,0.2,4.8,0.4,7.2,0.8c4.7,0.7,9.3,1.7,13.8,3c4.4,1.3,8.8,2.9,13,4.8c0.6,0.3,1.2,0.4,1.9,0.4
				c1.8,0,3.5-1,4.2-2.8c1-2.3,0-5.1-2.3-6.1c-4.6-2-9.4-3.8-14.2-5.2c-4.9-1.4-10-2.5-15-3.2c-2.6-0.4-5.2-0.6-7.8-0.8
				c-4.4-0.3-8.9-0.4-13.3-0.1c-1.8,0.1-3.5,0.2-5.3,0.4c0,0,0,0,0,0c-4,0.4-8.1,1-12.1,1.8c-3.9,0.8-7.8,1.9-11.6,3.1l0,0
				c-3.7,1.2-7.4,2.6-10.9,4.2c-3.5,1.6-7,3.4-10.3,5.3c-3.2,1.9-6.4,3.9-9.4,6.1c-3,2.2-5.9,4.5-8.7,7c-1.9,1.7-2.1,4.6-0.4,6.5
				C578.3,296.5,579.6,297.1,580.9,297.1z"/>
			<radialGradient id="SVGID_19_" cx="550.7312" cy="422.4745" r="48.6933" gradientUnits="userSpaceOnUse">
				<stop  offset="2.061856e-02" style="stop-color:#000A55"/>
				<stop  offset="0.7861" style="stop-color:#9D80FF"/>
				<stop  offset="0.9201" style="stop-color:#4243A7"/>
				<stop  offset="1" style="stop-color:#8C83FF"/>
				<stop  offset="1" style="stop-color:#8C83FF"/>
			</radialGradient>
			<path class="st18" d="M536.2,468.2C536.2,468.2,536.2,468.2,536.2,468.2c3.2-1.9,6.4-3.9,9.4-6c3-2.1,5.9-4.5,8.7-6.9l0,0
				c2.9-2.5,5.7-5.2,8.2-8c2.6-2.8,5.1-5.8,7.4-8.9l0,0c2.4-3.2,4.6-6.6,6.7-10c2-3.5,3.9-7.1,5.6-10.8c3.2-7,5.6-14.4,7.2-21.9
				c1.7-7.7,2.5-15.7,2.5-23.6c0-2.6-2.1-4.6-4.6-4.6s-4.6,2.1-4.6,4.6c0,7.3-0.8,14.6-2.3,21.7c-1.5,6.9-3.7,13.6-6.6,20.1
				c-1.5,3.4-3.2,6.7-5.1,9.9c-1.9,3.2-3.9,6.2-6.1,9.2l0,0c-2.1,2.8-4.4,5.5-6.8,8.1c-2.4,2.6-4.9,5.1-7.6,7.4l0,0
				c-2.5,2.2-5.2,4.4-8,6.4c-2.8,2-5.7,3.9-8.6,5.5c0,0,0,0,0,0c-3,1.7-6.1,3.3-9.2,4.7c-3.2,1.4-6.4,2.7-9.7,3.8
				c-2.4,0.8-3.8,3.4-3,5.8c0.6,2,2.5,3.2,4.4,3.2c0.5,0,1-0.1,1.4-0.2c3.6-1.2,7.2-2.5,10.6-4.1C529.6,471.8,533,470.1,536.2,468.2
				z"/>
			<radialGradient id="SVGID_20_" cx="582.1528" cy="411.2379" r="72.0198" gradientUnits="userSpaceOnUse">
				<stop  offset="2.061856e-02" style="stop-color:#000A55"/>
				<stop  offset="0.7861" style="stop-color:#9D80FF"/>
				<stop  offset="0.9201" style="stop-color:#4243A7"/>
				<stop  offset="1" style="stop-color:#8C83FF"/>
				<stop  offset="1" style="stop-color:#8C83FF"/>
			</radialGradient>
			<path class="st19" d="M551,484.2c3.2-2,6.3-4.1,9.3-6.4c3-2.2,5.9-4.6,8.7-7.1l0,0c2.8-2.5,5.5-5.1,8.1-7.9
				c2.6-2.7,5.1-5.6,7.4-8.5l0,0c2.3-2.8,4.4-5.8,6.5-8.8c2-3,4-6.2,5.7-9.4c1.9-3.5,3.7-7.1,5.3-10.7c1.6-3.7,3.1-7.4,4.4-11.2
				c2.3-6.7,4-13.6,5.1-20.6c1.2-7.1,1.8-14.4,1.8-21.7c0-6.1,1.4-12,4.2-17.5c2.7-5.2,6.5-9.8,11.2-13.2l0,0c2.6-2,5.5-3.6,8.5-4.8
				c2.4-1,3.5-3.6,2.6-6s-3.7-3.5-6-2.6c-3.8,1.5-7.3,3.5-10.6,5.9c0,0,0,0,0,0c-5.8,4.3-10.6,10-14,16.5
				c-3.4,6.7-5.2,14.2-5.2,21.7c0,6.8-0.6,13.6-1.7,20.2c-1.1,6.5-2.7,12.9-4.8,19.1c-1.2,3.5-2.5,7-4.1,10.4c-1.5,3.4-3.2,6.7-5,10
				c-1.7,3-3.4,5.9-5.3,8.7c-1.9,2.8-3.9,5.6-6,8.2l0,0c-2.2,2.7-4.5,5.4-6.9,7.9s-4.9,5-7.5,7.3l0,0c-2.6,2.3-5.3,4.5-8.1,6.6
				c-2.8,2.1-5.7,4.1-8.6,5.9c0,0,0,0,0,0c-3,1.9-6.1,3.6-9.3,5.3c-3.2,1.6-6.5,3.1-9.8,4.5c-2.4,1-3.5,3.7-2.6,6
				c0.7,1.8,2.5,2.9,4.3,2.9c0.6,0,1.2-0.1,1.7-0.3c3.5-1.4,7.1-3,10.5-4.8C544.4,488.1,547.8,486.2,551,484.2L551,484.2z"/>
			<radialGradient id="SVGID_21_" cx="585.2797" cy="255.4204" r="51.2711" gradientUnits="userSpaceOnUse">
				<stop  offset="2.061856e-02" style="stop-color:#000A55"/>
				<stop  offset="0.7861" style="stop-color:#9D80FF"/>
				<stop  offset="0.9201" style="stop-color:#4243A7"/>
				<stop  offset="1" style="stop-color:#8C83FF"/>
				<stop  offset="1" style="stop-color:#8C83FF"/>
			</radialGradient>
			<path class="st20" d="M525.1,291.9c0.8,0.5,1.7,0.8,2.6,0.8c1.5,0,2.9-0.7,3.8-2c1.9-2.8,3.9-5.5,6-8.2c2.2-2.8,4.5-5.5,6.8-8
				c2.3-2.6,4.8-5.1,7.4-7.5l0,0c2.6-2.5,5.3-4.9,8.2-7.2c2.8-2.3,5.7-4.5,8.7-6.6l0,0c3.1-2.2,6.3-4.2,9.6-6.2
				c3.3-1.9,6.7-3.8,10.1-5.4l0,0c3.5-1.7,7.1-3.3,10.8-4.7c3.7-1.4,7.4-2.7,11.2-3.8c4-1.2,8-2.2,12.1-3c4.1-0.8,8.3-1.5,12.5-2
				l0,0c2.8-0.3,5.5-0.6,8.3-0.7c2.5-0.1,4.5-2.3,4.3-4.9s-2.3-4.5-4.9-4.4c-2.9,0.2-5.9,0.4-8.8,0.8l0,0c-4.4,0.5-8.9,1.2-13.3,2.1
				c-4.3,0.9-8.7,2-12.9,3.2c-4,1.2-8,2.6-11.9,4.1c-3.9,1.5-7.7,3.2-11.5,5h0c-3.6,1.8-7.2,3.7-10.7,5.8c-3.5,2-6.9,4.2-10.2,6.6
				l0,0c-3.2,2.2-6.3,4.6-9.2,7c-3,2.4-5.9,5-8.7,7.6l0,0l0,0c-2.7,2.6-5.3,5.3-7.8,8s-4.9,5.6-7.2,8.6l0,0
				c-2.2,2.8-4.3,5.7-6.4,8.7C522.5,287.6,523,290.5,525.1,291.9z"/>
			<radialGradient id="SVGID_22_" cx="601.5955" cy="342.5099" r="52.5072" gradientUnits="userSpaceOnUse">
				<stop  offset="2.061856e-02" style="stop-color:#000A55"/>
				<stop  offset="0.7861" style="stop-color:#9D80FF"/>
				<stop  offset="0.9201" style="stop-color:#4243A7"/>
				<stop  offset="1" style="stop-color:#8C83FF"/>
				<stop  offset="1" style="stop-color:#8C83FF"/>
			</radialGradient>
			<path class="st21" d="M571.1,363.5c0-0.4,0.1-0.9,0.2-1.3c0-0.4,0.1-0.7,0.1-1c0.1-0.4,0.1-0.9,0.2-1.3c0-0.3,0.1-0.7,0.2-1
				c0.1-0.5,0.2-0.9,0.2-1.4c0.1-0.3,0.1-0.6,0.2-1c0.1-0.5,0.2-0.9,0.3-1.4c0.1-0.3,0.1-0.6,0.2-0.9c0.1-0.5,0.2-1,0.3-1.5
				c0.1-0.3,0.1-0.5,0.2-0.8c0.1-0.5,0.3-1.1,0.4-1.6c0.1-0.2,0.1-0.4,0.2-0.6c0.2-0.8,0.4-1.5,0.7-2.2c0.2-0.7,0.5-1.5,0.7-2.2
				c1.8-5.1,4.1-10,6.8-14.6l0,0c1.9-3.2,4-6.3,6.3-9.1c2.3-2.9,4.8-5.6,7.5-8.2c2.5-2.3,5.1-4.5,7.8-6.5c2.7-2,5.6-3.9,8.6-5.5l0,0
				c3-1.7,6.2-3.2,9.3-4.5c3.2-1.3,6.6-2.4,10-3.2c3.2-0.8,6.5-1.5,9.8-1.9c2.5-0.3,4.3-2.6,4-5.2c-0.3-2.5-2.6-4.3-5.2-4
				c-3.7,0.5-7.4,1.2-11,2.1c-3.8,1-7.5,2.2-11.1,3.6c-3.5,1.4-7.1,3.1-10.4,5l0,0c-3.3,1.8-6.5,3.9-9.6,6.1c-3,2.2-6,4.7-8.7,7.3
				c-3,2.8-5.8,5.9-8.4,9.1c-2.6,3.2-4.9,6.6-7,10.2c0,0,0,0,0,0c-2.6,4.4-4.9,9.1-6.7,13.9c-0.6,1.6-1.2,3.2-1.7,4.8
				c-2.1,6.7-3.5,13.6-4,20.7l0,0c-0.1,1.1-0.1,2.2-0.2,3.3c0,1.1-0.1,2.2-0.1,3.3s0,2.2,0.1,3.3c0,1,0.1,2,0.2,2.9
				c0,0.4-0.1,0.8-0.1,1.1c0,0.4-0.1,0.7-0.1,1.1c0,0.4-0.1,0.9-0.2,1.3c0,0.3-0.1,0.7-0.1,1c-0.1,0.5-0.1,0.9-0.2,1.3
				c0,0.3-0.1,0.6-0.2,1c-0.1,0.5-0.2,0.9-0.2,1.4c-0.1,0.3-0.1,0.6-0.2,0.9c-0.1,0.5-0.2,0.9-0.3,1.4c-0.1,0.3-0.1,0.6-0.2,0.9
				c-0.1,0.5-0.2,1-0.3,1.5c-0.1,0.3-0.1,0.5-0.2,0.8c-0.1,0.5-0.3,1.1-0.4,1.6c-0.1,0.2-0.1,0.4-0.2,0.6c-0.2,0.8-0.4,1.5-0.7,2.2
				c-0.8,2.4,0.6,5,3,5.8c0.5,0.1,0.9,0.2,1.4,0.2c2,0,3.8-1.3,4.4-3.2c2.1-6.7,3.5-13.6,4-20.7l0,0c0.1-1.1,0.1-2.2,0.2-3.3
				c0-1.1,0.1-2.2,0.1-3.3s0-2.2-0.1-3.3c0-1-0.1-2-0.2-2.9c0-0.4,0.1-0.8,0.1-1.1C571,364.2,571,363.8,571.1,363.5z"/>
			<radialGradient id="SVGID_23_" cx="528.4384" cy="435.1525" r="27.6376" gradientUnits="userSpaceOnUse">
				<stop  offset="2.061856e-02" style="stop-color:#000A55"/>
				<stop  offset="0.7861" style="stop-color:#9D80FF"/>
				<stop  offset="0.9201" style="stop-color:#4243A7"/>
				<stop  offset="1" style="stop-color:#8C83FF"/>
				<stop  offset="1" style="stop-color:#8C83FF"/>
			</radialGradient>
			<path class="st22" d="M524.4,450.9c3.3-1.8,6.5-3.9,9.6-6.1c3-2.2,6-4.6,8.7-7.2l0,0c3.1-2.9,5.9-6,8.6-9.3
				c2.6-3.3,5.1-6.8,7.2-10.4c1.3-2.2,0.6-5-1.6-6.4s-5-0.6-6.3,1.6c-1.9,3.2-4.1,6.4-6.5,9.3c-2.4,2.9-5,5.7-7.7,8.3l0,0
				c-2.5,2.3-5.1,4.5-7.8,6.5c-2.7,2-5.6,3.8-8.6,5.5c-2.9,1.6-6,3-9.1,4.3c-3.1,1.2-6.4,2.3-9.6,3.1c-2.5,0.6-4,3.2-3.3,5.6
				c0.5,2.1,2.4,3.5,4.5,3.5c0.4,0,0.8,0,1.2-0.1c3.6-0.9,7.3-2.1,10.8-3.5C517.7,454.3,521.1,452.7,524.4,450.9z"/>
			<radialGradient id="SVGID_24_" cx="526.4074" cy="376.4977" r="52.1319" gradientUnits="userSpaceOnUse">
				<stop  offset="2.061856e-02" style="stop-color:#000A55"/>
				<stop  offset="0.7861" style="stop-color:#9D80FF"/>
				<stop  offset="0.9201" style="stop-color:#4243A7"/>
				<stop  offset="1" style="stop-color:#8C83FF"/>
				<stop  offset="1" style="stop-color:#8C83FF"/>
			</radialGradient>
			<path class="st23" d="M515.1,431.7C515.1,431.7,515.1,431.7,515.1,431.7c3.5-2,6.9-4.4,10-7c3.1-2.6,6-5.5,8.6-8.6l0,0
				c5.1-6.1,9.1-12.9,11.8-20.3c2.8-7.6,4.3-15.7,4.3-23.9c0-7.3,0.8-14.6,2.3-21.7c1.5-6.9,3.7-13.6,6.6-20.1l0,0
				c1.5-3.4,3.2-6.7,5.1-9.9c1.3-2.2,0.6-5-1.6-6.3c-2.2-1.3-5-0.6-6.3,1.6c-2,3.5-3.9,7.1-5.6,10.8l0,0c-3.2,7-5.6,14.4-7.2,21.9
				c-1.7,7.7-2.5,15.7-2.5,23.6c0,7.1-1.2,14.1-3.7,20.7c-2.4,6.4-5.8,12.3-10.2,17.5l0,0c-2.2,2.7-4.8,5.2-7.5,7.4
				c-2.7,2.3-5.6,4.3-8.7,6l0,0c-2.8,1.6-5.8,3-8.8,4.1c-3.1,1.1-6.3,2-9.5,2.6c-2.5,0.5-4.2,2.9-3.7,5.4c0.4,2.2,2.4,3.8,4.5,3.8
				c0.3,0,0.6,0,0.9-0.1c3.8-0.7,7.5-1.7,11-3.1C508.4,435.2,511.8,433.6,515.1,431.7z"/>
			<radialGradient id="SVGID_25_" cx="628.0823" cy="329.0994" r="121.5007" gradientUnits="userSpaceOnUse">
				<stop  offset="2.061856e-02" style="stop-color:#000A55"/>
				<stop  offset="0.7861" style="stop-color:#9D80FF"/>
				<stop  offset="0.9201" style="stop-color:#4243A7"/>
				<stop  offset="1" style="stop-color:#8C83FF"/>
				<stop  offset="1" style="stop-color:#8C83FF"/>
			</radialGradient>
			<path class="st24" d="M508.8,410.4L508.8,410.4c5.2-3.8,9.6-8.5,12.9-14c3.4-5.7,5.5-11.9,6.4-18.4l0,0c0.1-1,0.2-2,0.3-3
				c0.1-1,0.1-2,0.1-3s0-2-0.1-3c0-0.8-0.1-1.6-0.2-2.4c0-0.1,0-0.1,0-0.2c0-0.8,0.1-1.6,0.1-2.4c0-0.6,0.1-1.3,0.1-1.9
				c0.1-0.9,0.2-1.8,0.2-2.7c0.1-0.6,0.1-1.2,0.2-1.7c0.1-1,0.2-2,0.4-3c0.1-0.5,0.1-0.9,0.2-1.4c0.2-1.5,0.5-2.9,0.7-4.3
				c1.1-5.7,2.5-11.4,4.4-16.8c1.2-3.5,2.6-7,4.1-10.4c1.5-3.4,3.2-6.7,5-9.9l0,0c1.7-3,3.4-5.9,5.3-8.7c1.9-2.8,3.9-5.5,6-8.2l0,0
				c2.1-2.7,4.4-5.3,6.7-7.8c2.3-2.5,4.8-4.9,7.4-7.2l0,0c2.6-2.3,5.3-4.6,8.1-6.7c2.8-2.1,5.7-4.1,8.6-6c3.1-2,6.3-3.8,9.5-5.5
				c3.3-1.7,6.7-3.2,10.1-4.6c3.5-1.4,7.1-2.7,10.7-3.8c3.7-1.1,7.4-2,11.1-2.8l0,0c3.9-0.8,8-1.4,12-1.8c4.1-0.4,8.2-0.6,12.3-0.6
				c0,0,0.1,0,0.2,0l0,0c4.6,0,9.2,0.3,13.7,0.8c4.5,0.5,8.9,1.2,13.3,2.2c0,0,0,0,0,0c5.2,1.2,10.3,2.7,15.2,4.5
				c4.9,1.8,9.7,3.9,14.4,6.3c5.8,3,11.4,6.5,16.7,10.4c5.2,3.9,10.2,8.2,14.8,12.9c11.1,11.3,19.8,24.4,25.8,39
				c0.7,1.8,2.5,2.9,4.3,2.9c0.6,0,1.2-0.1,1.8-0.4c2.4-1,3.5-3.7,2.5-6.1c-6.5-15.6-15.9-29.7-27.8-41.9c-4.9-5-10.2-9.7-15.9-13.8
				c-5.7-4.2-11.7-8-17.9-11.2c-5-2.6-10.2-4.9-15.4-6.8c-5.3-2-10.8-3.6-16.4-4.8h0c-4.7-1-9.5-1.9-14.3-2.4
				c-4.9-0.5-9.8-0.8-14.7-0.8h0c0,0-0.1,0-0.1,0c-4.4,0-8.9,0.2-13.3,0.7c-4.3,0.4-8.7,1.1-12.9,1.9l0,0c-4,0.8-8.1,1.8-12,3
				c-3.9,1.2-7.8,2.5-11.5,4c-3.7,1.5-7.3,3.1-10.8,4.9c-3.5,1.8-7,3.8-10.3,5.9c-3.2,2-6.3,4.2-9.3,6.4c-3,2.3-5.9,4.7-8.7,7.2l0,0
				c-2.7,2.5-5.4,5-7.9,7.7c-2.5,2.7-5,5.5-7.2,8.4l0,0c-2.3,2.8-4.4,5.8-6.4,8.8c-2,3-4,6.2-5.7,9.3l0,0c-1.9,3.5-3.7,7-5.3,10.6
				c-1.6,3.6-3.1,7.4-4.4,11.2c-2,5.9-3.6,12-4.7,18.1c-1.2,6.2-1.9,12.6-2.2,19l0,0c0,0.9-0.1,1.9-0.1,2.8c0,0.9,0,1.9,0,2.8
				s0,1.9,0,2.8c0,0.8,0,1.6,0.1,2.4c0,0.3-0.1,0.6-0.1,0.9c0,0.3-0.1,0.6-0.2,0.9c-0.1,0.3-0.1,0.7-0.2,1c-0.1,0.3-0.1,0.6-0.2,0.9
				c-0.1,0.3-0.2,0.7-0.3,1c-0.1,0.3-0.2,0.6-0.2,0.9c-0.1,0.3-0.2,0.7-0.3,1c-0.1,0.3-0.2,0.5-0.3,0.8c-0.1,0.4-0.3,0.7-0.4,1
				c-0.1,0.3-0.2,0.5-0.3,0.8c-0.2,0.4-0.3,0.7-0.5,1.1c-0.1,0.2-0.2,0.5-0.3,0.7c-0.2,0.4-0.4,0.8-0.6,1.1
				c-0.1,0.2-0.2,0.4-0.3,0.6c-0.3,0.6-0.6,1.1-1,1.7c-2.7,4.5-6.2,8.3-10.4,11.3l0,0c-2.6,1.9-5.3,3.4-8.3,4.6
				c-3,1.2-6.2,2-9.4,2.4c-2.5,0.3-4.3,2.6-4,5.2c0.3,2.3,2.3,4.1,4.6,4.1c0.2,0,0.4,0,0.6,0c4-0.5,7.9-1.5,11.7-3
				C502.2,414.6,505.6,412.7,508.8,410.4z"/>
			<radialGradient id="SVGID_26_" cx="497.5481" cy="321.392" r="41.7904" gradientUnits="userSpaceOnUse">
				<stop  offset="2.061856e-02" style="stop-color:#000A55"/>
				<stop  offset="0.7861" style="stop-color:#9D80FF"/>
				<stop  offset="0.9201" style="stop-color:#4243A7"/>
				<stop  offset="1" style="stop-color:#8C83FF"/>
				<stop  offset="1" style="stop-color:#8C83FF"/>
			</radialGradient>
			<path class="st25" d="M481,376.6c2.6,0,4.6-2.1,4.6-4.6c0-7,0.5-14.1,1.3-21.1c0.9-6.8,2.2-13.6,3.9-20.3l0,0
				c0.9-3.4,1.9-6.8,3-10.1c1.1-3.3,2.3-6.6,3.6-9.8l0,0c1.3-3.3,2.7-6.6,4.3-9.8c1.5-3.2,3.2-6.4,4.9-9.4c1.7-3.1,3.5-6.1,5.4-9.1
				c1.9-3,3.9-5.9,6-8.7c1.5-2.1,1.1-5-1-6.5c-2.1-1.5-5-1.1-6.5,1c-2.2,3-4.3,6.1-6.3,9.2c-2,3.1-3.9,6.4-5.8,9.6
				c-1.8,3.2-3.5,6.6-5.1,10c-1.6,3.4-3.1,6.9-4.5,10.3v0c-1.4,3.4-2.6,6.9-3.8,10.4c-1.2,3.5-2.2,7.1-3.1,10.7c0,0,0,0,0,0
				c-1.8,7-3.2,14.2-4.1,21.4c-0.9,7.3-1.4,14.8-1.4,22.3C476.3,374.5,478.4,376.6,481,376.6z"/>
			<radialGradient id="SVGID_27_" cx="496.8788" cy="356.4328" r="34.8982" gradientUnits="userSpaceOnUse">
				<stop  offset="2.061856e-02" style="stop-color:#000A55"/>
				<stop  offset="0.7861" style="stop-color:#9D80FF"/>
				<stop  offset="0.9201" style="stop-color:#4243A7"/>
				<stop  offset="1" style="stop-color:#8C83FF"/>
				<stop  offset="1" style="stop-color:#8C83FF"/>
			</radialGradient>
			<path class="st26" d="M495,395.9L495,395.9c3.2-2.3,5.8-5.2,7.9-8.6c2.1-3.5,3.4-7.3,3.9-11.3c0-0.2,0-0.5,0-0.7c0,0,0,0,0-0.1
				c0-0.5,0-1,0-1.5c0-0.5,0-1,0-1.4s0-1,0-1.4c0-0.5,0-1,0-1.5c0-0.3,0-0.7-0.1-1c0.1-4.6,0.4-9.2,1-13.7
				c0.7-5.5,1.6-11.1,2.9-16.5l0,0c0.8-3.5,1.8-7,2.9-10.4c1.1-3.4,2.3-6.7,3.6-10c1-2.4-0.2-5.1-2.6-6c-2.4-1-5.1,0.2-6,2.6
				c-1.4,3.5-2.7,7.1-3.8,10.7c-1.2,3.6-2.2,7.3-3.1,11v0c-1.4,5.8-2.4,11.7-3.1,17.6c-0.7,6-1.1,12.1-1.1,18.2c0,0.2,0,0.5,0.1,0.7
				c0,0.5,0,1,0,1.4c0,0.4,0,0.8,0,1.2c0,0.1,0,0.2-0.1,0.4c0,0.1,0,0.3-0.1,0.5c0,0.2-0.1,0.4-0.1,0.5c0,0.1-0.1,0.3-0.1,0.5
				c0,0.2-0.1,0.4-0.1,0.5c0,0.1-0.1,0.3-0.1,0.4c0,0.2-0.1,0.4-0.2,0.5c0,0.1-0.1,0.3-0.1,0.4c-0.1,0.2-0.1,0.4-0.2,0.5
				c0,0.1-0.1,0.3-0.2,0.4c-0.1,0.2-0.2,0.4-0.2,0.6c0,0.1-0.1,0.2-0.2,0.4c-0.1,0.2-0.2,0.4-0.3,0.6c0,0.1-0.1,0.2-0.2,0.3
				c-0.2,0.3-0.3,0.6-0.5,0.9c-1.4,2.3-3.2,4.3-5.4,5.9l0,0c-1.3,1-2.8,1.8-4.3,2.4c-1.6,0.6-3.2,1-4.8,1.2c-2.5,0.3-4.3,2.6-4,5.2
				c0.3,2.3,2.3,4.1,4.6,4.1c0.2,0,0.4,0,0.6,0c2.5-0.3,4.8-0.9,7.1-1.8C490.9,398.5,493,397.3,495,395.9z"/>
		</g>
	</g>
</g>
</svg>
