<?xml version="1.0" encoding="UTF-8" standalone="no"?>
<!DOCTYPE svg PUBLIC "-//W3C//DTD SVG 1.1//EN"
 "http://www.w3.org/Graphics/SVG/1.1/DTD/svg11.dtd">
<!-- Generated by graphviz version 2.47.3 (20210619.1520)
 -->
<!-- Title: dependencies Pages: 1 -->
<svg width="999pt" height="174pt"
 viewBox="0.00 0.00 999.00 173.80" xmlns="http://www.w3.org/2000/svg" xmlns:xlink="http://www.w3.org/1999/xlink">
<g id="graph0" class="graph" transform="scale(1 1) rotate(0) translate(4 169.8)">
<title>dependencies</title>
<polygon fill="white" stroke="transparent" points="-4,4 -4,-169.8 995,-169.8 995,4 -4,4"/>
<text text-anchor="middle" x="495.5" y="-8.2" font-family="sans-serif" font-size="14.00">dependencies</text>
<g id="clust1" class="cluster">
<title>cluster_HomeModule</title>
<polygon fill="none" stroke="black" stroke-dasharray="1,5" points="8,-32.8 8,-157.8 983,-157.8 983,-32.8 8,-32.8"/>
</g>
<g id="clust9" class="cluster">
<title>cluster_HomeModule_imports</title>
<polygon fill="none" stroke="black" points="821,-40.8 821,-92.8 975,-92.8 975,-40.8 821,-40.8"/>
</g>
<g id="clust2" class="cluster">
<title>cluster_HomeModule_declarations</title>
<polygon fill="none" stroke="black" points="16,-40.8 16,-92.8 813,-92.8 813,-40.8 16,-40.8"/>
</g>
<!-- DeviceComponent -->
<g id="node1" class="node">
<title>DeviceComponent</title>
<polygon fill="#ffffb3" stroke="black" points="805.47,-84.8 684.53,-84.8 684.53,-48.8 805.47,-48.8 805.47,-84.8"/>
<text text-anchor="middle" x="745" y="-62.6" font-family="Times,serif" font-size="14.00">DeviceComponent</text>
</g>
<!-- HomeModule -->
<g id="node7" class="node">
<title>HomeModule</title>
<polygon fill="#8dd3c7" stroke="black" points="564.76,-149.8 561.76,-153.8 540.76,-153.8 537.76,-149.8 471.24,-149.8 471.24,-113.8 564.76,-113.8 564.76,-149.8"/>
<text text-anchor="middle" x="518" y="-127.6" font-family="Times,serif" font-size="14.00">HomeModule</text>
</g>
<!-- DeviceComponent&#45;&gt;HomeModule -->
<g id="edge1" class="edge">
<title>DeviceComponent&#45;&gt;HomeModule</title>
<path fill="none" stroke="black" d="M745,-84.91C745,-104.14 745,-131.8 745,-131.8 745,-131.8 575.03,-131.8 575.03,-131.8"/>
<polygon fill="black" stroke="black" points="575.03,-128.3 565.03,-131.8 575.03,-135.3 575.03,-128.3"/>
</g>
<!-- FilterPipe -->
<g id="node2" class="node">
<title>FilterPipe</title>
<polygon fill="#ffffb3" stroke="black" points="666.72,-84.8 595.28,-84.8 595.28,-48.8 666.72,-48.8 666.72,-84.8"/>
<text text-anchor="middle" x="631" y="-62.6" font-family="Times,serif" font-size="14.00">FilterPipe</text>
</g>
<!-- FilterPipe&#45;&gt;HomeModule -->
<g id="edge2" class="edge">
<title>FilterPipe&#45;&gt;HomeModule</title>
<path fill="none" stroke="black" d="M631,-84.83C631,-101.2 631,-122.8 631,-122.8 631,-122.8 574.94,-122.8 574.94,-122.8"/>
<polygon fill="black" stroke="black" points="574.94,-119.3 564.94,-122.8 574.94,-126.3 574.94,-119.3"/>
</g>
<!-- FooterComponent -->
<g id="node3" class="node">
<title>FooterComponent</title>
<polygon fill="#ffffb3" stroke="black" points="576.88,-84.8 459.12,-84.8 459.12,-48.8 576.88,-48.8 576.88,-84.8"/>
<text text-anchor="middle" x="518" y="-62.6" font-family="Times,serif" font-size="14.00">FooterComponent</text>
</g>
<!-- FooterComponent&#45;&gt;HomeModule -->
<g id="edge3" class="edge">
<title>FooterComponent&#45;&gt;HomeModule</title>
<path fill="none" stroke="black" d="M518,-84.91C518,-84.91 518,-103.79 518,-103.79"/>
<polygon fill="black" stroke="black" points="514.5,-103.79 518,-113.79 521.5,-103.79 514.5,-103.79"/>
</g>
<!-- HomeComponent -->
<g id="node4" class="node">
<title>HomeComponent</title>
<polygon fill="#ffffb3" stroke="black" points="440.55,-84.8 325.45,-84.8 325.45,-48.8 440.55,-48.8 440.55,-84.8"/>
<text text-anchor="middle" x="383" y="-62.6" font-family="Times,serif" font-size="14.00">HomeComponent</text>
</g>
<!-- HomeComponent&#45;&gt;HomeModule -->
<g id="edge4" class="edge">
<title>HomeComponent&#45;&gt;HomeModule</title>
<path fill="none" stroke="black" d="M383,-84.83C383,-101.2 383,-122.8 383,-122.8 383,-122.8 461.16,-122.8 461.16,-122.8"/>
<polygon fill="black" stroke="black" points="461.16,-126.3 471.16,-122.8 461.16,-119.3 461.16,-126.3"/>
</g>
<!-- HomePageComponent -->
<g id="node5" class="node">
<title>HomePageComponent</title>
<polygon fill="#ffffb3" stroke="black" points="307.26,-84.8 164.74,-84.8 164.74,-48.8 307.26,-48.8 307.26,-84.8"/>
<text text-anchor="middle" x="236" y="-62.6" font-family="Times,serif" font-size="14.00">HomePageComponent</text>
</g>
<!-- HomePageComponent&#45;&gt;HomeModule -->
<g id="edge5" class="edge">
<title>HomePageComponent&#45;&gt;HomeModule</title>
<path fill="none" stroke="black" d="M236,-84.91C236,-104.14 236,-131.8 236,-131.8 236,-131.8 461.12,-131.8 461.12,-131.8"/>
<polygon fill="black" stroke="black" points="461.12,-135.3 471.12,-131.8 461.12,-128.3 461.12,-135.3"/>
</g>
<!-- NavbarComponent -->
<g id="node6" class="node">
<title>NavbarComponent</title>
<polygon fill="#ffffb3" stroke="black" points="146.03,-84.8 23.97,-84.8 23.97,-48.8 146.03,-48.8 146.03,-84.8"/>
<text text-anchor="middle" x="85" y="-62.6" font-family="Times,serif" font-size="14.00">NavbarComponent</text>
</g>
<!-- NavbarComponent&#45;&gt;HomeModule -->
<g id="edge6" class="edge">
<title>NavbarComponent&#45;&gt;HomeModule</title>
<path fill="none" stroke="black" d="M85,-85.09C85,-107.01 85,-140.8 85,-140.8 85,-140.8 460.84,-140.8 460.84,-140.8"/>
<polygon fill="black" stroke="black" points="460.84,-144.3 470.84,-140.8 460.84,-137.3 460.84,-144.3"/>
</g>
<!-- HomeRoutingModule -->
<g id="node8" class="node">
<title>HomeRoutingModule</title>
<polygon fill="#8dd3c7" stroke="black" points="967.38,-84.8 964.38,-88.8 943.38,-88.8 940.38,-84.8 828.62,-84.8 828.62,-48.8 967.38,-48.8 967.38,-84.8"/>
<text text-anchor="middle" x="898" y="-62.6" font-family="Times,serif" font-size="14.00">HomeRoutingModule</text>
</g>
<!-- HomeRoutingModule&#45;&gt;HomeModule -->
<g id="edge7" class="edge">
<title>HomeRoutingModule&#45;&gt;HomeModule</title>
<path fill="none" stroke="black" d="M898,-85.09C898,-107.01 898,-140.8 898,-140.8 898,-140.8 574.98,-140.8 574.98,-140.8"/>
<polygon fill="black" stroke="black" points="574.98,-137.3 564.98,-140.8 574.98,-144.3 574.98,-137.3"/>
</g>
</g>
</svg>
