<?xml version="1.0" encoding="UTF-8" standalone="no"?>
<!DOCTYPE svg PUBLIC "-//W3C//DTD SVG 1.1//EN"
 "http://www.w3.org/Graphics/SVG/1.1/DTD/svg11.dtd">
<!-- Generated by graphviz version 2.47.3 (20210619.1520)
 -->
<!-- Title: dependencies Pages: 1 -->
<svg width="909pt" height="174pt"
 viewBox="0.00 0.00 909.00 173.80" xmlns="http://www.w3.org/2000/svg" xmlns:xlink="http://www.w3.org/1999/xlink">
<g id="graph0" class="graph" transform="scale(1 1) rotate(0) translate(4 169.8)">
<title>dependencies</title>
<polygon fill="white" stroke="transparent" points="-4,4 -4,-169.8 905,-169.8 905,4 -4,4"/>
<text text-anchor="middle" x="450.5" y="-8.2" font-family="sans-serif" font-size="14.00">dependencies</text>
<g id="clust1" class="cluster">
<title>cluster_HomeModule</title>
<polygon fill="none" stroke="black" stroke-dasharray="1,5" points="8,-32.8 8,-157.8 893,-157.8 893,-32.8 8,-32.8"/>
</g>
<g id="clust2" class="cluster">
<title>cluster_HomeModule_declarations</title>
<polygon fill="none" stroke="black" points="178,-40.8 178,-92.8 885,-92.8 885,-40.8 178,-40.8"/>
</g>
<g id="clust8" class="cluster">
<title>cluster_HomeModule_imports</title>
<polygon fill="none" stroke="black" points="16,-40.8 16,-92.8 170,-92.8 170,-40.8 16,-40.8"/>
</g>
<!-- DeviceComponent -->
<g id="node1" class="node">
<title>DeviceComponent</title>
<polygon fill="#ffffb3" stroke="black" points="877.47,-84.8 756.53,-84.8 756.53,-48.8 877.47,-48.8 877.47,-84.8"/>
<text text-anchor="middle" x="817" y="-62.6" font-family="Times,serif" font-size="14.00">DeviceComponent</text>
</g>
<!-- HomeModule -->
<g id="node6" class="node">
<title>HomeModule</title>
<polygon fill="#8dd3c7" stroke="black" points="517.76,-149.8 514.76,-153.8 493.76,-153.8 490.76,-149.8 424.24,-149.8 424.24,-113.8 517.76,-113.8 517.76,-149.8"/>
<text text-anchor="middle" x="471" y="-127.6" font-family="Times,serif" font-size="14.00">HomeModule</text>
</g>
<!-- DeviceComponent&#45;&gt;HomeModule -->
<g id="edge1" class="edge">
<title>DeviceComponent&#45;&gt;HomeModule</title>
<path fill="none" stroke="black" d="M817,-85.08C817,-106.12 817,-137.8 817,-137.8 817,-137.8 528.02,-137.8 528.02,-137.8"/>
<polygon fill="black" stroke="black" points="528.02,-134.3 518.02,-137.8 528.02,-141.3 528.02,-134.3"/>
</g>
<!-- FooterComponent -->
<g id="node2" class="node">
<title>FooterComponent</title>
<polygon fill="#ffffb3" stroke="black" points="738.88,-84.8 621.12,-84.8 621.12,-48.8 738.88,-48.8 738.88,-84.8"/>
<text text-anchor="middle" x="680" y="-62.6" font-family="Times,serif" font-size="14.00">FooterComponent</text>
</g>
<!-- FooterComponent&#45;&gt;HomeModule -->
<g id="edge2" class="edge">
<title>FooterComponent&#45;&gt;HomeModule</title>
<path fill="none" stroke="black" d="M680,-84.82C680,-102.17 680,-125.8 680,-125.8 680,-125.8 527.9,-125.8 527.9,-125.8"/>
<polygon fill="black" stroke="black" points="527.9,-122.3 517.9,-125.8 527.9,-129.3 527.9,-122.3"/>
</g>
<!-- HomeComponent -->
<g id="node3" class="node">
<title>HomeComponent</title>
<polygon fill="#ffffb3" stroke="black" points="602.55,-84.8 487.45,-84.8 487.45,-48.8 602.55,-48.8 602.55,-84.8"/>
<text text-anchor="middle" x="545" y="-62.6" font-family="Times,serif" font-size="14.00">HomeComponent</text>
</g>
<!-- HomeComponent&#45;&gt;HomeModule -->
<g id="edge3" class="edge">
<title>HomeComponent&#45;&gt;HomeModule</title>
<path fill="none" stroke="black" d="M502.55,-84.91C502.55,-84.91 502.55,-103.79 502.55,-103.79"/>
<polygon fill="black" stroke="black" points="499.05,-103.79 502.55,-113.79 506.05,-103.79 499.05,-103.79"/>
</g>
<!-- HomePageComponent -->
<g id="node4" class="node">
<title>HomePageComponent</title>
<polygon fill="#ffffb3" stroke="black" points="469.26,-84.8 326.74,-84.8 326.74,-48.8 469.26,-48.8 469.26,-84.8"/>
<text text-anchor="middle" x="398" y="-62.6" font-family="Times,serif" font-size="14.00">HomePageComponent</text>
</g>
<!-- HomePageComponent&#45;&gt;HomeModule -->
<g id="edge4" class="edge">
<title>HomePageComponent&#45;&gt;HomeModule</title>
<path fill="none" stroke="black" d="M446.75,-84.91C446.75,-84.91 446.75,-103.79 446.75,-103.79"/>
<polygon fill="black" stroke="black" points="443.25,-103.79 446.75,-113.79 450.25,-103.79 443.25,-103.79"/>
</g>
<!-- NavbarComponent -->
<g id="node5" class="node">
<title>NavbarComponent</title>
<polygon fill="#ffffb3" stroke="black" points="308.03,-84.8 185.97,-84.8 185.97,-48.8 308.03,-48.8 308.03,-84.8"/>
<text text-anchor="middle" x="247" y="-62.6" font-family="Times,serif" font-size="14.00">NavbarComponent</text>
</g>
<!-- NavbarComponent&#45;&gt;HomeModule -->
<g id="edge5" class="edge">
<title>NavbarComponent&#45;&gt;HomeModule</title>
<path fill="none" stroke="black" d="M247,-84.82C247,-102.17 247,-125.8 247,-125.8 247,-125.8 414.04,-125.8 414.04,-125.8"/>
<polygon fill="black" stroke="black" points="414.04,-129.3 424.04,-125.8 414.04,-122.3 414.04,-129.3"/>
</g>
<!-- HomeRoutingModule -->
<g id="node7" class="node">
<title>HomeRoutingModule</title>
<polygon fill="#8dd3c7" stroke="black" points="162.38,-84.8 159.38,-88.8 138.38,-88.8 135.38,-84.8 23.62,-84.8 23.62,-48.8 162.38,-48.8 162.38,-84.8"/>
<text text-anchor="middle" x="93" y="-62.6" font-family="Times,serif" font-size="14.00">HomeRoutingModule</text>
</g>
<!-- HomeRoutingModule&#45;&gt;HomeModule -->
<g id="edge6" class="edge">
<title>HomeRoutingModule&#45;&gt;HomeModule</title>
<path fill="none" stroke="black" d="M93,-85.08C93,-106.12 93,-137.8 93,-137.8 93,-137.8 413.89,-137.8 413.89,-137.8"/>
<polygon fill="black" stroke="black" points="413.89,-141.3 423.89,-137.8 413.89,-134.3 413.89,-141.3"/>
</g>
</g>
</svg>
