<?xml version="1.0" encoding="UTF-8" standalone="no"?>
<!DOCTYPE svg PUBLIC "-//W3C//DTD SVG 1.1//EN"
 "http://www.w3.org/Graphics/SVG/1.1/DTD/svg11.dtd">
<!-- Generated by graphviz version 2.47.3 (20210619.1520)
 -->
<!-- Title: dependencies Pages: 1 -->
<svg width="716pt" height="247pt"
 viewBox="0.00 0.00 716.00 246.80" xmlns="http://www.w3.org/2000/svg" xmlns:xlink="http://www.w3.org/1999/xlink">
<g id="graph0" class="graph" transform="scale(1 1) rotate(0) translate(4 242.8)">
<title>dependencies</title>
<polygon fill="white" stroke="transparent" points="-4,4 -4,-242.8 712,-242.8 712,4 -4,4"/>
<text text-anchor="middle" x="354" y="-8.2" font-family="sans-serif" font-size="14.00">dependencies</text>
<g id="clust1" class="cluster">
<title>cluster_AppModule</title>
<polygon fill="none" stroke="black" stroke-dasharray="1,5" points="8,-32.8 8,-230.8 700,-230.8 700,-32.8 8,-32.8"/>
</g>
<g id="clust6" class="cluster">
<title>cluster_AppModule_bootstrap</title>
<polygon fill="none" stroke="black" points="258,-170.8 258,-222.8 382,-222.8 382,-170.8 258,-170.8"/>
</g>
<g id="clust7" class="cluster">
<title>cluster_AppModule_providers</title>
<polygon fill="none" stroke="black" points="298,-40.8 298,-92.8 692,-92.8 692,-40.8 298,-40.8"/>
</g>
<g id="clust2" class="cluster">
<title>cluster_AppModule_declarations</title>
<polygon fill="none" stroke="black" points="168,-40.8 168,-92.8 290,-92.8 290,-40.8 168,-40.8"/>
</g>
<g id="clust4" class="cluster">
<title>cluster_AppModule_imports</title>
<polygon fill="none" stroke="black" points="16,-40.8 16,-92.8 160,-92.8 160,-40.8 16,-40.8"/>
</g>
<!-- AppComponent -->
<g id="node1" class="node">
<title>AppComponent</title>
<polygon fill="#ffffb3" stroke="black" points="281.94,-84.8 176.06,-84.8 176.06,-48.8 281.94,-48.8 281.94,-84.8"/>
<text text-anchor="middle" x="229" y="-62.6" font-family="Times,serif" font-size="14.00">AppComponent</text>
</g>
<!-- AppModule -->
<g id="node2" class="node">
<title>AppModule</title>
<polygon fill="#8dd3c7" stroke="black" points="361.66,-149.8 358.66,-153.8 337.66,-153.8 334.66,-149.8 278.34,-149.8 278.34,-113.8 361.66,-113.8 361.66,-149.8"/>
<text text-anchor="middle" x="320" y="-127.6" font-family="Times,serif" font-size="14.00">AppModule</text>
</g>
<!-- AppComponent&#45;&gt;AppModule -->
<g id="edge1" class="edge">
<title>AppComponent&#45;&gt;AppModule</title>
<path fill="none" stroke="black" d="M271.85,-85.08C271.85,-106.12 271.85,-137.8 271.85,-137.8 271.85,-137.8 272.48,-137.8 272.48,-137.8"/>
<polygon fill="black" stroke="black" points="268.15,-141.3 278.15,-137.8 268.15,-134.3 268.15,-141.3"/>
</g>
<!-- AppComponent  -->
<g id="node4" class="node">
<title>AppComponent </title>
<polygon fill="#80b1d3" stroke="black" points="374.44,-214.8 265.56,-214.8 265.56,-178.8 374.44,-178.8 374.44,-214.8"/>
<text text-anchor="middle" x="320" y="-192.6" font-family="Times,serif" font-size="14.00">AppComponent </text>
</g>
<!-- AppModule&#45;&gt;AppComponent  -->
<g id="edge3" class="edge">
<title>AppModule&#45;&gt;AppComponent </title>
<path fill="none" stroke="black" stroke-dasharray="1,5" d="M320,-149.91C320,-149.91 320,-168.79 320,-168.79"/>
<polygon fill="black" stroke="black" points="316.5,-168.79 320,-178.79 323.5,-168.79 316.5,-168.79"/>
</g>
<!-- AppRoutingModule -->
<g id="node3" class="node">
<title>AppRoutingModule</title>
<polygon fill="#8dd3c7" stroke="black" points="152.27,-84.8 149.27,-88.8 128.27,-88.8 125.27,-84.8 23.73,-84.8 23.73,-48.8 152.27,-48.8 152.27,-84.8"/>
<text text-anchor="middle" x="88" y="-62.6" font-family="Times,serif" font-size="14.00">AppRoutingModule</text>
</g>
<!-- AppRoutingModule&#45;&gt;AppModule -->
<g id="edge2" class="edge">
<title>AppRoutingModule&#45;&gt;AppModule</title>
<path fill="none" stroke="black" d="M88,-84.82C88,-102.17 88,-125.8 88,-125.8 88,-125.8 268.26,-125.8 268.26,-125.8"/>
<polygon fill="black" stroke="black" points="268.26,-129.3 278.26,-125.8 268.26,-122.3 268.26,-129.3"/>
</g>
<!-- ErrorInterceptor -->
<g id="node5" class="node">
<title>ErrorInterceptor</title>
<ellipse fill="#fdb462" stroke="black" cx="610" cy="-66.8" rx="73.53" ry="18"/>
<text text-anchor="middle" x="610" y="-62.6" font-family="Times,serif" font-size="14.00">ErrorInterceptor</text>
</g>
<!-- ErrorInterceptor&#45;&gt;AppModule -->
<g id="edge4" class="edge">
<title>ErrorInterceptor&#45;&gt;AppModule</title>
<path fill="none" stroke="black" d="M610,-84.91C610,-104.14 610,-131.8 610,-131.8 610,-131.8 371.86,-131.8 371.86,-131.8"/>
<polygon fill="black" stroke="black" points="371.86,-128.3 361.86,-131.8 371.86,-135.3 371.86,-128.3"/>
</g>
<!-- TokenIntercepterService -->
<g id="node6" class="node">
<title>TokenIntercepterService</title>
<ellipse fill="#fdb462" stroke="black" cx="412" cy="-66.8" rx="106.46" ry="18"/>
<text text-anchor="middle" x="412" y="-62.6" font-family="Times,serif" font-size="14.00">TokenIntercepterService</text>
</g>
<!-- TokenIntercepterService&#45;&gt;AppModule -->
<g id="edge5" class="edge">
<title>TokenIntercepterService&#45;&gt;AppModule</title>
<path fill="none" stroke="black" d="M333.67,-79.03C333.67,-79.03 333.67,-103.48 333.67,-103.48"/>
<polygon fill="black" stroke="black" points="330.17,-103.48 333.67,-113.48 337.17,-103.48 330.17,-103.48"/>
</g>
</g>
</svg>
