<svg xmlns="http://www.w3.org/2000/svg" width="586.483" height="437" viewBox="0 0 586.483 437">
  <g id="My_password-rafiki" data-name="My password-rafiki" transform="translate(0 -55)">
    <g id="freepik--background-complete--inject-3" transform="translate(0 55)">
      <rect id="Rectangle_225" data-name="Rectangle 225" width="586.483" height="0.293" transform="translate(0 384.029)" fill="#ebebeb"/>
      <rect id="Rectangle_226" data-name="Rectangle 226" width="38.849" height="0.293" transform="translate(488.869 402.902)" fill="#ebebeb"/>
      <rect id="Rectangle_227" data-name="Rectangle 227" width="10.193" height="0.293" transform="translate(378.317 406.092)" fill="#ebebeb"/>
      <rect id="Rectangle_228" data-name="Rectangle 228" width="22.509" height="0.293" transform="translate(465.186 392.017)" fill="#ebebeb"/>
      <rect id="Rectangle_229" data-name="Rectangle 229" width="50.66" height="0.293" transform="translate(61.534 393.987)" fill="#ebebeb"/>
      <rect id="Rectangle_230" data-name="Rectangle 230" width="7.425" height="0.293" transform="translate(122.645 393.987)" fill="#ebebeb"/>
      <rect id="Rectangle_231" data-name="Rectangle 231" width="109.883" height="0.293" transform="translate(154.21 398.937)" fill="#ebebeb"/>
      <path id="Path_1480" data-name="Path 1480" d="M271.384,386.715H44.9a6.7,6.7,0,0,1-6.686-6.7V61.639A6.7,6.7,0,0,1,44.9,55H271.384a6.7,6.7,0,0,1,6.7,6.7V380.017A6.7,6.7,0,0,1,271.384,386.715ZM44.9,55.235a6.4,6.4,0,0,0-6.393,6.4V380.017a6.4,6.4,0,0,0,6.393,6.4H271.384a6.416,6.416,0,0,0,6.4-6.4V61.639a6.416,6.416,0,0,0-6.4-6.4Z" transform="translate(6.609 -55)" fill="#ebebeb"/>
      <path id="Path_1481" data-name="Path 1481" d="M487.7,386.715H261.2a6.709,6.709,0,0,1-6.7-6.7V61.639A6.709,6.709,0,0,1,261.2,55H487.7a6.7,6.7,0,0,1,6.674,6.639V380.017A6.7,6.7,0,0,1,487.7,386.715ZM261.2,55.235a6.416,6.416,0,0,0-6.4,6.4V380.017a6.416,6.416,0,0,0,6.4,6.4H487.7a6.416,6.416,0,0,0,6.4-6.4V61.639a6.416,6.416,0,0,0-6.4-6.4Z" transform="translate(44.02 -55)" fill="#ebebeb"/>
      <path id="Path_1482" data-name="Path 1482" d="M375.321,296.11v22.931L385,326.079H339.78l14.451-5.349V297.705Z" transform="translate(58.77 -13.296)" fill="#e0e0e0"/>
      <path id="Path_1483" data-name="Path 1483" d="M260.22,321.1v72.243H482.7V321.1Zm3.636,4.692H442.475V349.4H263.856Z" transform="translate(45.009 -8.974)" fill="#e0e0e0"/>
      <path id="Path_1484" data-name="Path 1484" d="M260.22,321.1v72.243H447.331V321.1Zm3.636,4.692H442.475V349.4H263.856Z" transform="translate(45.009 -8.974)" fill="#ebebeb"/>
      <rect id="Rectangle_232" data-name="Rectangle 232" width="32.562" height="23.612" transform="translate(341.438 340.418) rotate(180)" fill="#e0e0e0"/>
      <rect id="Rectangle_233" data-name="Rectangle 233" width="47.153" height="11.8" transform="translate(487.484 340.418) rotate(180)" fill="#e0e0e0"/>
      <rect id="Rectangle_234" data-name="Rectangle 234" width="30.333" height="7.014" transform="translate(437.352 340.418) rotate(180)" fill="#e0e0e0"/>
      <rect id="Rectangle_235" data-name="Rectangle 235" width="35.764" height="14.345" transform="translate(400.016 340.43) rotate(180)" fill="#e0e0e0"/>
      <path id="Path_1485" data-name="Path 1485" d="M388.589,349.6l.868,2.827h11.6l.868-2.827h22.181v31.342H366.42V349.6Z" transform="translate(63.378 -4.044)" fill="#e0e0e0"/>
      <path id="Path_1486" data-name="Path 1486" d="M337.111,349.6l.868,2.827h11.6l.856-2.827h22.181v31.342H314.93V349.6Z" transform="translate(54.472 -4.044)" fill="#e0e0e0"/>
      <path id="Path_1487" data-name="Path 1487" d="M285.631,349.6l.868,2.827h11.589l.868-2.827h22.181v31.342H263.45V349.6Z" transform="translate(45.568 -4.044)" fill="#e0e0e0"/>
      <rect id="Rectangle_236" data-name="Rectangle 236" width="161.588" height="97.638" rx="3.53" transform="translate(496.129 296.514) rotate(180)" fill="#e0e0e0"/>
      <rect id="Rectangle_237" data-name="Rectangle 237" width="161.588" height="97.638" rx="3.53" transform="translate(492.329 296.514) rotate(180)" fill="#e6e6e6"/>
      <rect id="Rectangle_238" data-name="Rectangle 238" width="88.137" height="152.087" transform="translate(487.59 203.627) rotate(90)" fill="#f0f0f0"/>
      <rect id="Rectangle_239" data-name="Rectangle 239" width="132.099" height="146.175" transform="translate(380.006 33.465)" fill="#e9e9e9"/>
      <rect id="Rectangle_240" data-name="Rectangle 240" width="120.815" height="134.891" transform="translate(385.812 39.259)" fill="#f4f4f4"/>
      <path id="Path_1488" data-name="Path 1488" d="M363.065,88.47,328.92,216.347V147.118L344.544,88.47Z" transform="translate(56.892 -49.211)" fill="#fff"/>
      <path id="Path_1489" data-name="Path 1489" d="M377.352,88.47l-36.01,134.891H334.55L370.56,88.47Z" transform="translate(57.866 -49.211)" fill="#fff"/>
      <path id="Path_1490" data-name="Path 1490" d="M435.779,119.83v69.24l-7.648,28.867H409.61Z" transform="translate(70.848 -43.787)" fill="#fff"/>
      <rect id="Rectangle_241" data-name="Rectangle 241" width="4.692" height="146.175" transform="translate(443.698 33.465)" fill="#e9e9e9"/>
      <rect id="Rectangle_242" data-name="Rectangle 242" width="127.267" height="4.692" transform="translate(382.293 63.129)" fill="#e9e9e9"/>
      <rect id="Rectangle_243" data-name="Rectangle 243" width="36.374" height="51.458" transform="translate(83.715 195.58) rotate(-90)" fill="#e0e0e0"/>
      <rect id="Rectangle_244" data-name="Rectangle 244" width="31.623" height="46.625" transform="translate(86.131 193.211) rotate(-90)" fill="#ebebeb"/>
      <rect id="Rectangle_245" data-name="Rectangle 245" width="36.374" height="51.458" transform="translate(101.567 149.905) rotate(-90)" fill="#e0e0e0"/>
      <rect id="Rectangle_246" data-name="Rectangle 246" width="31.623" height="46.625" transform="translate(103.983 147.536) rotate(-90)" fill="#ebebeb"/>
      <rect id="Rectangle_247" data-name="Rectangle 247" width="32.749" height="46.332" transform="translate(144.943 159.218)" fill="#e0e0e0"/>
      <rect id="Rectangle_248" data-name="Rectangle 248" width="28.48" height="41.98" transform="translate(147.078 161.4)" fill="#ebebeb"/>
      <rect id="Rectangle_249" data-name="Rectangle 249" width="36.374" height="51.458" transform="translate(159.946 98.435)" fill="#e0e0e0"/>
      <rect id="Rectangle_250" data-name="Rectangle 250" width="31.623" height="46.625" transform="translate(162.315 100.863)" fill="#ebebeb"/>
      <rect id="Rectangle_251" data-name="Rectangle 251" width="28.48" height="40.291" transform="translate(229.104 159.218) rotate(90)" fill="#e0e0e0"/>
      <rect id="Rectangle_252" data-name="Rectangle 252" width="24.761" height="36.503" transform="translate(227.203 161.072) rotate(90)" fill="#ebebeb"/>
      <path id="Path_1491" data-name="Path 1491" d="M65.534,260.51H192.707a10.369,10.369,0,0,1,10.357,10.369l14.076,89.685H69.206L55.13,270.879a10.357,10.357,0,0,1,10.4-10.369Z" transform="translate(9.536 -19.454)" fill="#ebebeb"/>
      <path id="Path_1492" data-name="Path 1492" d="M194.682,290.147l-.152-.457h49.265V398.776H182.8V302.769A12.457,12.457,0,0,1,194.682,290.147Z" transform="translate(31.618 -14.407)" fill="#e0e0e0"/>
      <path id="Path_1493" data-name="Path 1493" d="M237.1,290.06h0A12.645,12.645,0,0,1,249.726,302.7v96.007H224.46V302.7A12.645,12.645,0,0,1,237.1,290.06Z" transform="translate(38.824 -14.343)" fill="#f0f0f0"/>
      <path id="Path_1494" data-name="Path 1494" d="M73.682,290.147l-.152-.457h49.265V398.776H61.8V302.769a12.457,12.457,0,0,1,11.882-12.621Z" transform="translate(10.689 -14.407)" fill="#e0e0e0"/>
      <rect id="Rectangle_253" data-name="Rectangle 253" width="108.394" height="76.829" transform="translate(255.038 384.369) rotate(180)" fill="#e0e0e0"/>
      <path id="Path_1495" data-name="Path 1495" d="M13.325,0H135.313V26.638H13.325A13.325,13.325,0,0,1,0,13.313H0A13.325,13.325,0,0,1,13.325,0Z" transform="translate(261.302 326.295) rotate(180)" fill="#f5f5f5"/>
      <path id="Path_1496" data-name="Path 1496" d="M116.1,290.06h0A12.645,12.645,0,0,1,128.726,302.7v96.007H103.46V302.7A12.645,12.645,0,0,1,116.1,290.06Z" transform="translate(17.895 -14.343)" fill="#f0f0f0"/>
      <path id="Path_1497" data-name="Path 1497" d="M89.92,361.889H69.206L55.13,270.879a10.357,10.357,0,0,1,10.4-10.369h0A10.369,10.369,0,0,1,75.9,270.879Z" transform="translate(9.536 -19.454)" fill="#e0e0e0"/>
      <path id="Path_1498" data-name="Path 1498" d="M59.33,76.006v34.626a3.3,3.3,0,0,0,3.519,3.249H179.934s13.536-6.311,12.574-15.131c-.762-7.038-1.56-12.774-2.217-17.137a10.78,10.78,0,0,0-10.721-9.173H62.849a3.519,3.519,0,0,0-3.519,3.566Z" transform="translate(10.262 -51.984)" fill="#f5f5f5"/>
      <path id="Path_1499" data-name="Path 1499" d="M59.33,76v34.626a3.3,3.3,0,0,0,3.519,3.249H73.183s13.536-6.311,12.574-15.131c-.774-7-1.56-12.75-2.182-17.1A10.78,10.78,0,0,0,72.854,72.47h-9.97A3.519,3.519,0,0,0,59.33,76Z" transform="translate(10.262 -51.978)" fill="#e6e6e6"/>
      <path id="Path_1500" data-name="Path 1500" d="M187.007,97.28H84.724s-3.378,7.484-9.114,10.557h99.937S186.127,103,187.007,97.28Z" transform="translate(13.078 -47.687)" fill="#e0e0e0"/>
      <path id="Path_1501" data-name="Path 1501" d="M179.12,103.29H80.38l1.466,3.531H179.12Z" transform="translate(13.903 -46.647)" fill="#ebebeb"/>
      <path id="Path_1502" data-name="Path 1502" d="M182.132,99.53H83.38l1.478,3.531h97.274Z" transform="translate(14.422 -47.298)" fill="#ebebeb"/>
      <rect id="Rectangle_254" data-name="Rectangle 254" width="2.498" height="1.032" transform="translate(103.831 47.974) rotate(180)" fill="#e0e0e0"/>
      <rect id="Rectangle_255" data-name="Rectangle 255" width="2.498" height="1.032" transform="translate(107.35 47.974) rotate(180)" fill="#e0e0e0"/>
    </g>
    <g id="freepik--Shadow--inject-3" transform="translate(65.815 465.444)">
      <ellipse id="freepik--path--inject-3" cx="227.426" cy="13.278" rx="227.426" ry="13.278" fill="#f5f5f5"/>
    </g>
    <g id="freepik--Plant--inject-3" transform="translate(81.004 384.239)">
      <path id="Path_1503" data-name="Path 1503" d="M91.911,345.227c.246,1.724-4.434,2.862-8.211,3.519.317,3.132,2.346,6.3,5.267,9.255,3.624-2.041,8.786-4.692,9.747-4.07s-4.293,4.082-7.624,6.123a69.2,69.2,0,0,0,7.5,5.677c1.619-1.513,3.519-2.85,4.692-2.123s.856,3.085.27,5.185c3.941,2.287,6.885,3.683,6.885,3.683a80.1,80.1,0,0,0,2.639-11.178c-.2-.387-.4-.786-.586-1.173-.633-1.466,0-2.088,1.032-2.287a39.446,39.446,0,0,0,.07-8.058c-4.457-.938-9.876-2.663-7.847-5.337,1.173-1.607,3.519-1.795,5.794-1.4a9.232,9.232,0,0,0-1.1-1.49c-8.105-8.938-13.759,0-13.759,0-4.692-3.929-11.343-2.874-12.774,3.273C86.539,344.113,91.606,343.1,91.911,345.227Z" transform="translate(-66.527 -335.362)" fill="#7380f2"/>
      <path id="Path_1504" data-name="Path 1504" d="M91.911,345.227c.246,1.724-4.434,2.862-8.211,3.519.317,3.132,2.346,6.3,5.267,9.255,3.624-2.041,8.786-4.692,9.747-4.07s-4.293,4.082-7.624,6.123a69.2,69.2,0,0,0,7.5,5.677c1.619-1.513,3.519-2.85,4.692-2.123s.856,3.085.27,5.185c3.941,2.287,6.885,3.683,6.885,3.683a80.1,80.1,0,0,0,2.639-11.178c-.2-.387-.4-.786-.586-1.173-.633-1.466,0-2.088,1.032-2.287a39.446,39.446,0,0,0,.07-8.058c-4.457-.938-9.876-2.663-7.847-5.337,1.173-1.607,3.519-1.795,5.794-1.4a9.232,9.232,0,0,0-1.1-1.49c-8.105-8.938-13.759,0-13.759,0-4.692-3.929-11.343-2.874-12.774,3.273C86.539,344.113,91.606,343.1,91.911,345.227Z" transform="translate(-66.527 -335.362)" fill="#fff" opacity="0.3"/>
      <path id="Path_1505" data-name="Path 1505" d="M102.609,410.085l-1.173-.094c0-.61,4.8-60.443-8.633-66.085a4.586,4.586,0,0,0-4.07.106c-4.844,2.522-7.167,13-7.19,13.1l-1.173-.246c.094-.446,2.463-11.12,7.8-13.9a5.736,5.736,0,0,1,5.067-.141C107.465,348.8,102.809,407.633,102.609,410.085Z" transform="translate(-67.103 -334.545)" fill="#7380f2"/>
      <path id="Path_1506" data-name="Path 1506" d="M101.017,409.95c-.235-2.686-5.724-65.991,4.528-72.724,2.463-1.619,4.692-1.959,6.51-1.02,4.844,2.452,5.478,12.8,5.5,13.243l-1.173.07c0-.106-.622-10.123-4.856-12.258-1.466-.739-3.261-.422-5.337.938-9.665,6.346-4.058,70.988-4.012,71.645Z" transform="translate(-63.821 -335.69)" fill="#7380f2"/>
      <path id="Path_1507" data-name="Path 1507" d="M102.1,411.517c-.07-2.064-1.759-50.52,7.566-54.766a6.58,6.58,0,0,1,5.56,0c6.4,2.815,10.357,14.756,10.557,15.249l-1.114.364c0-.117-3.965-11.941-9.888-14.545a5.325,5.325,0,0,0-4.586,0c-7.155,3.249-7.4,39.881-6.885,53.651Z" transform="translate(-63.371 -332.153)" fill="#7380f2"/>
      <path id="Path_1508" data-name="Path 1508" d="M101.66,410.231l-1.173-.129c1.654-14.427,4.8-52.866-.34-57.475a2.018,2.018,0,0,0-2.1-.657c-3.5,1.419-5.548,13.853-6.064,18.568l-1.173-.129c.2-1.806,2.076-17.688,6.8-19.495a3.073,3.073,0,0,1,3.3.868C107.56,357.706,101.906,408.085,101.66,410.231Z" transform="translate(-65.297 -333.085)" fill="#7380f2"/>
      <path id="Path_1509" data-name="Path 1509" d="M83.37,378.15h42.145L122,425.35H86.889Z" transform="translate(-66.584 -328.345)" fill="#263238"/>
      <path id="Path_1510" data-name="Path 1510" d="M94.28,378.15l1.173,47.2h24.656l3.519-47.2Z" transform="translate(-64.697 -328.345)" fill="#fff" opacity="0.2"/>
      <path id="Path_1511" data-name="Path 1511" d="M89.271,364.077c-.434,1.173-3.707.246-6.275-.669-.88,2.041-.68,4.692.082,7.507,2.921,0,7.038.094,7.4.833s-4.047,1.091-6.78,1.173A47.763,47.763,0,0,0,86.385,379c1.513-.387,3.144-.551,3.589.281s-.528,2.193-1.607,3.284c1.642,2.768,2.979,4.692,2.979,4.692a55.01,55.01,0,0,0,5.454-6.029c0-.305,0-.622,0-.938.117-1.173.716-1.3,1.431-1.067a28.15,28.15,0,0,0,2.8-4.95c-2.428-2.1-5.185-5.02-3.015-5.982,1.314-.563,2.756.082,4.047,1.173a5.993,5.993,0,0,0-.164-1.3c-1.935-8.293-8.481-4.692-8.481-4.692-1.56-4.035-6.017-5.642-9-2.346C86.35,361.543,89.822,362.658,89.271,364.077Z" transform="translate(-66.749 -331.597)" fill="#7380f2"/>
      <path id="Path_1512" data-name="Path 1512" d="M89.271,364.077c-.434,1.173-3.707.246-6.275-.669-.88,2.041-.68,4.692.082,7.507,2.921,0,7.038.094,7.4.833s-4.047,1.091-6.78,1.173A47.763,47.763,0,0,0,86.385,379c1.513-.387,3.144-.551,3.589.281s-.528,2.193-1.607,3.284c1.642,2.768,2.979,4.692,2.979,4.692a55.01,55.01,0,0,0,5.454-6.029c0-.305,0-.622,0-.938.117-1.173.716-1.3,1.431-1.067a28.15,28.15,0,0,0,2.8-4.95c-2.428-2.1-5.185-5.02-3.015-5.982,1.314-.563,2.756.082,4.047,1.173a5.993,5.993,0,0,0-.164-1.3c-1.935-8.293-8.481-4.692-8.481-4.692-1.56-4.035-6.017-5.642-9-2.346C86.35,361.543,89.822,362.658,89.271,364.077Z" transform="translate(-66.749 -331.597)" fill="#fff" opacity="0.3"/>
      <path id="Path_1513" data-name="Path 1513" d="M115.593,369.8a15.823,15.823,0,0,0-3.847.809,8.973,8.973,0,0,1-.575-2.792c-.27-8.492,5.865-4.915,9.032-7.413a7.038,7.038,0,0,1,5.384-1.689,11.36,11.36,0,0,0-.727,1.466,1.314,1.314,0,0,0,1.02,1.806,3.824,3.824,0,0,0,2.346-.282,3.516,3.516,0,0,0,.61-.422,11.732,11.732,0,0,1,1.173,2.839,16.621,16.621,0,0,1,.551,3.636,10.434,10.434,0,0,0-1.431.411,1.325,1.325,0,0,0-.528,2.017,6.275,6.275,0,0,0,1.759,1.232,19.845,19.845,0,0,1-1.079,3.976l-.434.07c-.3.059-.61.141-.915.223l-.5.188a1.272,1.272,0,0,0-.293,2.205,4.356,4.356,0,0,0,.633.387,9.384,9.384,0,0,1-3.366,3.39,34.278,34.278,0,0,1-3.589-1.888c.258-.34.516-.68.751-1.032a2.006,2.006,0,0,0,.364-1.337,1.877,1.877,0,0,0-.692-1.173,1.806,1.806,0,0,0-1.337-.364,1.877,1.877,0,0,0-1.173.692,11.884,11.884,0,0,1-.9,1.173,22.146,22.146,0,0,1-4.317-4.2h.129a13.768,13.768,0,0,1,2.346-.4,1.806,1.806,0,0,0-.457-3.519Z" transform="translate(-61.777 -331.714)" fill="#7380f2"/>
      <path id="Path_1514" data-name="Path 1514" d="M115.593,369.8a15.823,15.823,0,0,0-3.847.809,8.973,8.973,0,0,1-.575-2.792c-.27-8.492,5.865-4.915,9.032-7.413a7.038,7.038,0,0,1,5.384-1.689,11.36,11.36,0,0,0-.727,1.466,1.314,1.314,0,0,0,1.02,1.806,3.824,3.824,0,0,0,2.346-.282,3.516,3.516,0,0,0,.61-.422,11.732,11.732,0,0,1,1.173,2.839,16.621,16.621,0,0,1,.551,3.636,10.434,10.434,0,0,0-1.431.411,1.325,1.325,0,0,0-.528,2.017,6.275,6.275,0,0,0,1.759,1.232,19.845,19.845,0,0,1-1.079,3.976l-.434.07c-.3.059-.61.141-.915.223l-.5.188a1.272,1.272,0,0,0-.293,2.205,4.356,4.356,0,0,0,.633.387,9.384,9.384,0,0,1-3.366,3.39,34.278,34.278,0,0,1-3.589-1.888c.258-.34.516-.68.751-1.032a2.006,2.006,0,0,0,.364-1.337,1.877,1.877,0,0,0-.692-1.173,1.806,1.806,0,0,0-1.337-.364,1.877,1.877,0,0,0-1.173.692,11.884,11.884,0,0,1-.9,1.173,22.146,22.146,0,0,1-4.317-4.2h.129a13.768,13.768,0,0,1,2.346-.4,1.806,1.806,0,0,0-.457-3.519Z" transform="translate(-61.777 -331.714)" fill="#fff" opacity="0.5"/>
      <path id="Path_1515" data-name="Path 1515" d="M118.579,343.92a10.559,10.559,0,0,1,2.346-1.267A6.063,6.063,0,0,0,120,340.94c-3.589-4.586-5.208,0-8,.07a4.786,4.786,0,0,0-3.519,1.466,9.945,9.945,0,0,1,1.02.446.9.9,0,0,1,.258,1.408,2.6,2.6,0,0,1-1.372.9,3.838,3.838,0,0,1-.516,0,8.832,8.832,0,0,0,.633,2.006,11.2,11.2,0,0,0,1.314,2.147,7.373,7.373,0,0,1,.927-.411.9.9,0,0,1,1.173.821,4.106,4.106,0,0,1-.387,1.419,13.781,13.781,0,0,0,2.346,1.63l.258-.164.586-.282a1.77,1.77,0,0,1,.352-.117.9.9,0,0,1,.868.188.915.915,0,0,1,.27.868,3.8,3.8,0,0,1-.152.481,6.392,6.392,0,0,0,3.249.3,21.7,21.7,0,0,0,1.056-2.569l-.845-.211a1.4,1.4,0,0,1-.774-.54,1.255,1.255,0,0,1-.164-.938,1.173,1.173,0,0,1,.54-.774,1.255,1.255,0,0,1,.938-.164c.328.094.669.164,1,.246a14.907,14.907,0,0,0,.434-4.094h-.082a9.108,9.108,0,0,0-1.431.833,1.235,1.235,0,1,1-1.337-2.076Z" transform="translate(-62.346 -335.134)" fill="#7380f2"/>
      <path id="Path_1516" data-name="Path 1516" d="M118.579,343.92a10.559,10.559,0,0,1,2.346-1.267A6.063,6.063,0,0,0,120,340.94c-3.589-4.586-5.208,0-8,.07a4.786,4.786,0,0,0-3.519,1.466,9.945,9.945,0,0,1,1.02.446.9.9,0,0,1,.258,1.408,2.6,2.6,0,0,1-1.372.9,3.838,3.838,0,0,1-.516,0,8.832,8.832,0,0,0,.633,2.006,11.2,11.2,0,0,0,1.314,2.147,7.373,7.373,0,0,1,.927-.411.9.9,0,0,1,1.173.821,4.106,4.106,0,0,1-.387,1.419,13.781,13.781,0,0,0,2.346,1.63l.258-.164.586-.282a1.77,1.77,0,0,1,.352-.117.9.9,0,0,1,.868.188.915.915,0,0,1,.27.868,3.8,3.8,0,0,1-.152.481,6.392,6.392,0,0,0,3.249.3,21.7,21.7,0,0,0,1.056-2.569l-.845-.211a1.4,1.4,0,0,1-.774-.54,1.255,1.255,0,0,1-.164-.938,1.173,1.173,0,0,1,.54-.774,1.255,1.255,0,0,1,.938-.164c.328.094.669.164,1,.246a14.907,14.907,0,0,0,.434-4.094h-.082a9.108,9.108,0,0,0-1.431.833,1.235,1.235,0,1,1-1.337-2.076Z" transform="translate(-62.346 -335.134)" fill="#fff" opacity="0.3"/>
      <path id="Path_1517" data-name="Path 1517" d="M90.971,351.566c-.246,1.724,4.434,2.862,8.211,3.519-.317,3.132-2.346,6.3-5.278,9.243-3.613-2.029-8.786-4.692-9.736-4.07s4.258,4.141,7.566,6.146a67.677,67.677,0,0,1-7.5,5.654c-1.619-1.513-3.519-2.839-4.692-2.123s-.856,3.1-.27,5.185c-3.941,2.346-6.885,3.695-6.885,3.695a80.1,80.1,0,0,1-2.639-11.178c.2-.4.4-.786.575-1.173.645-1.466,0-2.088-1.02-2.346a38.614,38.614,0,0,1-.07-8.058c4.457-.927,9.876-2.663,7.847-5.337-1.173-1.607-3.46-1.795-5.794-1.384a9.383,9.383,0,0,1,1.1-1.5c8.105-8.938,13.759,0,13.759,0,4.692-3.929,11.331-2.862,12.762,3.273C96.343,350.44,91.276,349.431,90.971,351.566Z" transform="translate(-69.059 -334.276)" fill="#7380f2"/>
      <path id="Path_1518" data-name="Path 1518" d="M90.971,351.566c-.246,1.724,4.434,2.862,8.211,3.519-.317,3.132-2.346,6.3-5.278,9.243-3.613-2.029-8.786-4.692-9.736-4.07s4.258,4.141,7.566,6.146a67.677,67.677,0,0,1-7.5,5.654c-1.619-1.513-3.519-2.839-4.692-2.123s-.856,3.1-.27,5.185c-3.941,2.346-6.885,3.695-6.885,3.695a80.1,80.1,0,0,1-2.639-11.178c.2-.4.4-.786.575-1.173.645-1.466,0-2.088-1.02-2.346a38.614,38.614,0,0,1-.07-8.058c4.457-.927,9.876-2.663,7.847-5.337-1.173-1.607-3.46-1.795-5.794-1.384a9.383,9.383,0,0,1,1.1-1.5c8.105-8.938,13.759,0,13.759,0,4.692-3.929,11.331-2.862,12.762,3.273C96.343,350.44,91.276,349.431,90.971,351.566Z" transform="translate(-69.059 -334.276)" fill="#fff" opacity="0.5"/>
    </g>
    <g id="freepik--Lamp--inject-3" transform="translate(445.527 262.169)">
      <path id="Path_1519" data-name="Path 1519" d="M386.422,447l22.462-149.26V447h6.029V296.81L437.4,447h6.463l-28.151-188-.8.117V253h-6.029v6.088l-.833-.094L379.83,447Z" transform="translate(-379.83 -227.922)" fill="#7380f2"/>
      <path id="Path_1520" data-name="Path 1520" d="M386.422,447l22.462-149.26V447h6.029V296.81L437.4,447h6.463l-28.151-188-.8.117V253h-6.029v6.088l-.833-.094L379.83,447Z" transform="translate(-379.83 -227.922)" fill="#5c5b99" opacity="0.3"/>
      <path id="Path_1521" data-name="Path 1521" d="M442.684,283.547H380.54l5.032-51.927h52.08Z" transform="translate(-379.707 -231.62)" fill="#7380f2"/>
      <g id="Group_55" data-name="Group 55" transform="translate(0.833)" opacity="0.5">
        <path id="Path_1522" data-name="Path 1522" d="M442.684,283.547H380.54l5.032-51.927h52.08Z" transform="translate(-380.54 -231.62)" fill="#5c5b99"/>
      </g>
    </g>
    <g id="freepik--Fingerprint--inject-3" transform="translate(327.854 194.035)">
      <path id="Path_1523" data-name="Path 1523" d="M303.544,226.172H283.111a1.642,1.642,0,0,1-1.642-1.642V176.145a1.374,1.374,0,1,0-1.173,0v48.373a2.8,2.8,0,0,0,2.815,2.815h20.433a1.642,1.642,0,0,1,1.642,1.642v27.694h1.173V228.987a2.815,2.815,0,0,0-2.815-2.815Z" transform="translate(-279.509 -173.533)" fill="#7380f2"/>
      <path id="Path_1524" data-name="Path 1524" d="M303.544,226.172H283.111a1.642,1.642,0,0,1-1.642-1.642V176.145a1.374,1.374,0,1,0-1.173,0v48.373a2.8,2.8,0,0,0,2.815,2.815h20.433a1.642,1.642,0,0,1,1.642,1.642v27.694h1.173V228.987a2.815,2.815,0,0,0-2.815-2.815Z" transform="translate(-279.509 -173.533)" fill="#fff" opacity="0.4"/>
      <rect id="Rectangle_256" data-name="Rectangle 256" width="50.848" height="53.335" rx="2.69" transform="translate(0.788 81.975)" fill="#7380f2"/>
      <rect id="Rectangle_257" data-name="Rectangle 257" width="50.848" height="53.335" rx="2.69" transform="translate(0.788 81.975)" fill="#fff" opacity="0.4"/>
      <rect id="Rectangle_258" data-name="Rectangle 258" width="6.838" height="6.838" transform="translate(22.792 112.648)" fill="#fff" opacity="0.2"/>
      <rect id="Rectangle_259" data-name="Rectangle 259" width="6.838" height="6.838" transform="translate(30.217 90.374)" fill="#fff" opacity="0.2"/>
      <rect id="Rectangle_260" data-name="Rectangle 260" width="6.838" height="6.838" transform="translate(15.368 120.073)" fill="#fff" opacity="0.2"/>
      <rect id="Rectangle_261" data-name="Rectangle 261" width="6.838" height="6.838" transform="translate(30.217 97.799)" fill="#fff" opacity="0.2"/>
      <rect id="Rectangle_262" data-name="Rectangle 262" width="6.838" height="6.838" transform="translate(30.217 105.224)" fill="#fff" opacity="0.2"/>
      <rect id="Rectangle_263" data-name="Rectangle 263" width="6.838" height="6.838" transform="translate(22.792 97.799)" fill="#fff" opacity="0.2"/>
      <rect id="Rectangle_264" data-name="Rectangle 264" width="6.838" height="7.225" transform="translate(22.792 82.562)" fill="#fff" opacity="0.2"/>
      <rect id="Rectangle_265" data-name="Rectangle 265" width="6.838" height="6.838" transform="translate(15.368 112.648)" fill="#fff" opacity="0.2"/>
      <rect id="Rectangle_266" data-name="Rectangle 266" width="6.838" height="6.838" transform="translate(22.792 90.374)" fill="#fff" opacity="0.2"/>
      <rect id="Rectangle_267" data-name="Rectangle 267" width="6.838" height="6.838" transform="translate(22.792 120.073)" fill="#fff" opacity="0.2"/>
      <rect id="Rectangle_268" data-name="Rectangle 268" width="6.838" height="6.838" transform="translate(30.217 120.073)" fill="#fff" opacity="0.2"/>
      <rect id="Rectangle_269" data-name="Rectangle 269" width="6.838" height="6.838" transform="translate(22.792 105.224)" fill="#fff" opacity="0.2"/>
      <rect id="Rectangle_270" data-name="Rectangle 270" width="6.838" height="7.225" transform="translate(30.217 82.562)" fill="#fff" opacity="0.2"/>
      <rect id="Rectangle_271" data-name="Rectangle 271" width="5.982" height="6.838" transform="translate(1.374 112.648)" fill="#fff" opacity="0.2"/>
      <rect id="Rectangle_272" data-name="Rectangle 272" width="5.982" height="6.838" transform="translate(1.374 90.374)" fill="#fff" opacity="0.2"/>
      <rect id="Rectangle_273" data-name="Rectangle 273" width="5.982" height="6.838" transform="translate(1.374 105.224)" fill="#fff" opacity="0.2"/>
      <rect id="Rectangle_274" data-name="Rectangle 274" width="5.982" height="6.838" transform="translate(1.374 97.799)" fill="#fff" opacity="0.2"/>
      <rect id="Rectangle_275" data-name="Rectangle 275" width="6.838" height="6.838" transform="translate(30.217 112.648)" fill="#fff" opacity="0.2"/>
      <path id="Path_1525" data-name="Path 1525" d="M317.935,251.151h5.947v-4.692a2.569,2.569,0,0,0-2.569-2.569H317.9Z" transform="translate(-272.868 -161.363)" fill="#fff" opacity="0.2"/>
      <rect id="Rectangle_276" data-name="Rectangle 276" width="6.838" height="6.838" transform="translate(37.642 90.374)" fill="#fff" opacity="0.2"/>
      <rect id="Rectangle_277" data-name="Rectangle 277" width="5.982" height="6.838" transform="translate(1.374 120.073)" fill="#fff" opacity="0.2"/>
      <rect id="Rectangle_278" data-name="Rectangle 278" width="6.838" height="6.838" transform="translate(37.642 97.799)" fill="#fff" opacity="0.2"/>
      <rect id="Rectangle_279" data-name="Rectangle 279" width="6.838" height="6.838" transform="translate(37.642 105.224)" fill="#fff" opacity="0.2"/>
      <rect id="Rectangle_280" data-name="Rectangle 280" width="6.838" height="6.838" transform="translate(37.642 112.648)" fill="#fff" opacity="0.2"/>
      <rect id="Rectangle_281" data-name="Rectangle 281" width="6.838" height="6.838" transform="translate(37.642 120.073)" fill="#fff" opacity="0.2"/>
      <rect id="Rectangle_282" data-name="Rectangle 282" width="5.982" height="6.838" transform="translate(45.067 120.073)" fill="#fff" opacity="0.2"/>
      <rect id="Rectangle_283" data-name="Rectangle 283" width="6.838" height="7.225" transform="translate(37.642 82.562)" fill="#fff" opacity="0.2"/>
      <rect id="Rectangle_284" data-name="Rectangle 284" width="6.838" height="7.225" transform="translate(22.792 127.51)" fill="#fff" opacity="0.2"/>
      <rect id="Rectangle_285" data-name="Rectangle 285" width="6.838" height="7.225" transform="translate(30.217 127.51)" fill="#fff" opacity="0.2"/>
      <rect id="Rectangle_286" data-name="Rectangle 286" width="5.982" height="6.838" transform="translate(45.067 105.224)" fill="#fff" opacity="0.2"/>
      <rect id="Rectangle_287" data-name="Rectangle 287" width="6.838" height="7.225" transform="translate(37.642 127.51)" fill="#fff" opacity="0.2"/>
      <rect id="Rectangle_288" data-name="Rectangle 288" width="5.982" height="6.838" transform="translate(45.067 112.648)" fill="#fff" opacity="0.2"/>
      <path id="Path_1526" data-name="Path 1526" d="M286.65,282.24h-5.97v4.692a2.569,2.569,0,0,0,2.569,2.557h3.4Z" transform="translate(-279.306 -154.73)" fill="#fff" opacity="0.2"/>
      <path id="Path_1527" data-name="Path 1527" d="M317.93,282.245v7.214h3.413a2.569,2.569,0,0,0,2.569-2.557V282.21Z" transform="translate(-272.863 -154.735)" fill="#fff" opacity="0.2"/>
      <path id="Path_1528" data-name="Path 1528" d="M286.65,251.145V243.92h-3.4a2.569,2.569,0,0,0-2.569,2.569v4.692Z" transform="translate(-279.306 -161.358)" fill="#fff" opacity="0.2"/>
      <rect id="Rectangle_289" data-name="Rectangle 289" width="5.982" height="6.838" transform="translate(45.067 97.799)" fill="#fff" opacity="0.2"/>
      <rect id="Rectangle_290" data-name="Rectangle 290" width="5.982" height="6.838" transform="translate(45.067 90.374)" fill="#fff" opacity="0.2"/>
      <rect id="Rectangle_291" data-name="Rectangle 291" width="6.838" height="6.838" transform="translate(7.931 105.224)" fill="#fff" opacity="0.2"/>
      <rect id="Rectangle_292" data-name="Rectangle 292" width="6.838" height="6.838" transform="translate(7.931 120.073)" fill="#fff" opacity="0.2"/>
      <rect id="Rectangle_293" data-name="Rectangle 293" width="6.838" height="7.225" transform="translate(15.368 82.562)" fill="#fff" opacity="0.2"/>
      <rect id="Rectangle_294" data-name="Rectangle 294" width="6.838" height="6.838" transform="translate(7.931 112.648)" fill="#fff" opacity="0.2"/>
      <rect id="Rectangle_295" data-name="Rectangle 295" width="6.838" height="6.838" transform="translate(15.368 97.799)" fill="#fff" opacity="0.2"/>
      <rect id="Rectangle_296" data-name="Rectangle 296" width="6.838" height="6.838" transform="translate(15.368 90.374)" fill="#fff" opacity="0.2"/>
      <rect id="Rectangle_297" data-name="Rectangle 297" width="6.838" height="7.225" transform="translate(15.368 127.51)" fill="#fff" opacity="0.2"/>
      <rect id="Rectangle_298" data-name="Rectangle 298" width="6.838" height="7.225" transform="translate(7.931 127.51)" fill="#fff" opacity="0.2"/>
      <rect id="Rectangle_299" data-name="Rectangle 299" width="6.838" height="7.225" transform="translate(7.931 82.562)" fill="#fff" opacity="0.2"/>
      <rect id="Rectangle_300" data-name="Rectangle 300" width="6.838" height="6.838" transform="translate(15.368 105.224)" fill="#fff" opacity="0.2"/>
      <rect id="Rectangle_301" data-name="Rectangle 301" width="6.838" height="6.838" transform="translate(7.931 97.799)" fill="#fff" opacity="0.2"/>
      <rect id="Rectangle_302" data-name="Rectangle 302" width="6.838" height="6.838" transform="translate(7.931 90.374)" fill="#fff" opacity="0.2"/>
      <path id="Path_1529" data-name="Path 1529" d="M315.832,260.906a10.024,10.024,0,0,0-.434-1.572A12.41,12.41,0,0,0,294,255.686a12.1,12.1,0,0,0-1.63,2.663,12.375,12.375,0,0,0-1.1,5.1V274.1a12.127,12.127,0,0,0,.375,3.015h0a10.746,10.746,0,0,0,.786,2.182h0a12.12,12.12,0,0,0,1.056,1.865h0a12.3,12.3,0,0,0,.974,1.173,12.667,12.667,0,0,0,1.349,1.29,13.147,13.147,0,0,0,1.232.891,12.786,12.786,0,0,0,2.346,1.173h0c.4.141.8.27,1.173.375a14.078,14.078,0,0,0,1.56.293,10.291,10.291,0,0,0,1.173.082h.317a12.9,12.9,0,0,0,1.912-.141c.4-.07.8-.153,1.173-.246h0a12.5,12.5,0,0,0,4.023-1.865,11.512,11.512,0,0,0,1.255-1.009,12.526,12.526,0,0,0,2.651-3.449,11.651,11.651,0,0,0,.856-2.088,11.848,11.848,0,0,0,.528-3.249h0V263.381A12.172,12.172,0,0,0,315.832,260.906Zm-2.78,19.413a11.119,11.119,0,0,1-2.44,2.639,9.507,9.507,0,0,1-1.091.751,11.19,11.19,0,0,1-3.249,1.349h0a11.63,11.63,0,0,1-1.173.2,11.384,11.384,0,0,1-1.419.094h-.528a3.874,3.874,0,0,1-1.173-.117,11.893,11.893,0,0,1-1.454-.328,10.578,10.578,0,0,1-1.173-.422,11.954,11.954,0,0,1-2.346-1.337,10.729,10.729,0,0,1-1.114-.962,10.333,10.333,0,0,1-1.173-1.314,11.25,11.25,0,0,1-.915-1.419h0a10.733,10.733,0,0,1-.938-2.346,11.132,11.132,0,0,1-.41-3.015V263.439a11.143,11.143,0,0,1,2.346-6.827,11.319,11.319,0,0,1,3.777-3.167,11.061,11.061,0,0,1,5.149-1.255,11.26,11.26,0,0,1,10.979,8.774h0a11.212,11.212,0,0,1,.27,2.452V274.16a11.951,11.951,0,0,1-.211,2.064h0a11.264,11.264,0,0,1-.88,2.639A10.285,10.285,0,0,1,313.052,280.318Z" transform="translate(-277.474 -160.128)" fill="#fff"/>
      <path id="Path_1530" data-name="Path 1530" d="M304.767,268.543c-1.255,3.976-2.885,9.208-1.947,15.249.059.387.129.774.211,1.173a10.271,10.271,0,0,1-1.173-.082c-.082-.411-.152-.809-.2-1.173-.891-6.217.762-11.507,2.017-15.53,1.337-4.27,1.888-6.357-.129-7.214a1.935,1.935,0,0,0-1.935.258c-3.2,2.123-6.064,11.284-7.2,18.122q-.141.809-.246,1.548c-.34-.387-.657-.786-.974-1.173h0c.082-.563.188-1.173.3-1.748h0c1.29-6.78,4.047-15.4,7.472-17.665a3.108,3.108,0,0,1,3.038-.364C307.043,261.224,306.046,264.45,304.767,268.543Z" transform="translate(-277.142 -158.628)" fill="#fff"/>
      <path id="Path_1531" data-name="Path 1531" d="M302.382,267.8c-1.173,3.765-2.9,9.278-2.557,15.143a5.609,5.609,0,0,0,.094,1.243,10.579,10.579,0,0,1-1.173-.375h0c0-.434-.059-.856-.07-1.29-.235-5.865,1.466-11.331,2.639-15.073a19.729,19.729,0,0,0,.985-3.812c-1.419,1.267-5.865,11.589-5.947,17.595a8.281,8.281,0,0,0,.059,1.454,13.154,13.154,0,0,1-1.232-.891,13.688,13.688,0,0,1,.059-1.525c.493-6.217,4.234-15.589,6.275-17.442a1.173,1.173,0,0,1,1.255-.364C303.93,262.869,303.379,264.616,302.382,267.8Z" transform="translate(-276.798 -158.161)" fill="#fff"/>
      <path id="Path_1532" data-name="Path 1532" d="M306.217,284a10.464,10.464,0,0,0,.493,1.079c-.375.094-.774.176-1.173.246a10.125,10.125,0,0,1-.493-1.173c-.962-2.51-1.466-6.322.282-11.53,3.413-10.158,2.815-12.574.281-13.911a4.5,4.5,0,0,0-4.293-.141c-3.519,1.736-6.557,8.011-8.516,17.442-.152.716-.293,1.443-.422,2.193a10.742,10.742,0,0,1-.786-2.182h0c.246-1.173.516-2.346.8-3.519,2.041-8.07,4.962-13.313,8.41-15.014a5.583,5.583,0,0,1,5.36.141c3.519,1.877,3.6,5.454.282,15.319-1.7,5.067-1.173,8.68-.235,10.967Z" transform="translate(-277.419 -159.118)" fill="#fff"/>
      <path id="Path_1533" data-name="Path 1533" d="M312.065,282.582a11.515,11.515,0,0,1-1.255,1.009l-.481-.152a3.423,3.423,0,0,1-.8-.411,6.087,6.087,0,0,1-2.592-3.789c-.61-2.193.387-5.36,1.454-8.7s2.17-6.838,1.642-9.384a5.982,5.982,0,0,0-3.085-4.352c-2.053-1.02-4.786-.845-7.683.5s-5.384,5.665-6.815,9.008c-.5,1.173-.9,2.252-1.173,3.038v-3.3c.34-.8.727-1.666,1.173-2.534,1.513-2.968,3.636-6.029,6.311-7.272,3.237-1.513,6.334-1.689,8.715-.493a7.108,7.108,0,0,1,3.707,5.161c.586,2.815-.563,6.44-1.677,9.947-1.009,3.179-1.959,6.17-1.443,8.035a4.785,4.785,0,0,0,2.557,3.355l.129.059A3.519,3.519,0,0,0,312.065,282.582Z" transform="translate(-277.473 -159.447)" fill="#fff"/>
      <path id="Path_1534" data-name="Path 1534" d="M315.432,277.472a11.647,11.647,0,0,1-.856,2.088,4.692,4.692,0,0,1-1.654.5H312.3a3.061,3.061,0,0,1-2.733-2.346c-.516-1.748.328-5.032,1.173-8.5a33.536,33.536,0,0,0,1.314-6.745c0-3.613-.938-7.484-7.871-8.715-3.519-.633-8.586,1.619-11.554,6.428-.586.938.176-2.663-.469-2.135.422-.962,1.079-.915,1.724-1.724,1.3-.845,4.926-4.422,10.5-3.73,7.988.985,8.844,6.311,8.844,9.876a32.84,32.84,0,0,1-1.361,7.038c-.774,3.015-1.642,6.44-1.173,7.882a1.912,1.912,0,0,0,1.689,1.5,2.768,2.768,0,0,0,1.3-.235,5.174,5.174,0,0,0,1.748-1.185Z" transform="translate(-277.32 -159.873)" fill="#fff"/>
      <path id="Path_1535" data-name="Path 1535" d="M313.05,270.121v3.12h0a4.974,4.974,0,0,1-1.372,1.783h0a2.346,2.346,0,0,1-1.4.446h-.34a1.067,1.067,0,0,1-.833-.6c-.528-.974.129-2.944.563-4.035a23.788,23.788,0,0,0,1.947-11.073h0a8.021,8.021,0,0,1,.07-1.1.61.61,0,0,1,.622-.551h0a10.031,10.031,0,0,1,.434,1.572c0,.868-.141,1.736-.223,2.6-.164,1.666-.364,3.331-.68,4.985-.082.446.293.27.2.715a21.112,21.112,0,0,1-1.032,2.581c-.281.645-.6,1.279-.821,1.947-.141.4-.657,2.276.4,1.865a2.346,2.346,0,0,0,.95-.9c.106-.164.211-.328.3-.5a13.534,13.534,0,0,0,.868-1.982A6.056,6.056,0,0,0,313.05,270.121Z" transform="translate(-274.423 -158.904)" fill="#fff"/>
    </g>
    <g id="freepik--iris-recognition--inject-3" transform="translate(245.329 64.759)">
      <path id="Path_1536" data-name="Path 1536" d="M243.822,98.73v29.911a1.642,1.642,0,0,1-1.642,1.642H211.765a1.349,1.349,0,0,0-1.173-.786,1.372,1.372,0,1,0,1.173,1.959H242.18A2.827,2.827,0,0,0,245,128.641V98.73Z" transform="translate(-209.153 -57.195)" fill="#7380f2"/>
      <path id="Path_1537" data-name="Path 1537" d="M243.822,98.73v29.911a1.642,1.642,0,0,1-1.642,1.642H211.765a1.349,1.349,0,0,0-1.173-.786,1.372,1.372,0,1,0,1.173,1.959H242.18A2.827,2.827,0,0,0,245,128.641V98.73Z" transform="translate(-209.153 -57.195)" fill="#fff" opacity="0.4"/>
      <rect id="Rectangle_303" data-name="Rectangle 303" width="50.848" height="53.335" rx="2.69" transform="translate(61.918 0) rotate(90)" fill="#7380f2"/>
      <rect id="Rectangle_304" data-name="Rectangle 304" width="50.848" height="53.335" rx="2.69" transform="translate(61.918 0) rotate(90)" fill="#fff" opacity="0.4"/>
      <rect id="Rectangle_305" data-name="Rectangle 305" width="6.838" height="6.838" transform="translate(24.406 22.005)" fill="#fff" opacity="0.2"/>
      <rect id="Rectangle_306" data-name="Rectangle 306" width="6.838" height="6.838" transform="translate(46.681 29.43)" fill="#fff" opacity="0.2"/>
      <rect id="Rectangle_307" data-name="Rectangle 307" width="6.838" height="6.838" transform="translate(16.981 14.568)" fill="#fff" opacity="0.2"/>
      <rect id="Rectangle_308" data-name="Rectangle 308" width="6.838" height="6.838" transform="translate(39.256 29.43)" fill="#fff" opacity="0.2"/>
      <rect id="Rectangle_309" data-name="Rectangle 309" width="6.838" height="6.838" transform="translate(31.831 29.43)" fill="#fff" opacity="0.2"/>
      <rect id="Rectangle_310" data-name="Rectangle 310" width="6.838" height="6.838" transform="translate(39.256 22.005)" fill="#fff" opacity="0.2"/>
      <rect id="Rectangle_311" data-name="Rectangle 311" width="7.225" height="6.838" transform="translate(54.117 22.005)" fill="#fff" opacity="0.2"/>
      <rect id="Rectangle_312" data-name="Rectangle 312" width="6.838" height="6.838" transform="translate(24.406 14.568)" fill="#fff" opacity="0.2"/>
      <rect id="Rectangle_313" data-name="Rectangle 313" width="6.838" height="6.838" transform="translate(46.681 22.005)" fill="#fff" opacity="0.2"/>
      <rect id="Rectangle_314" data-name="Rectangle 314" width="6.838" height="6.838" transform="translate(16.981 22.005)" fill="#fff" opacity="0.2"/>
      <rect id="Rectangle_315" data-name="Rectangle 315" width="6.838" height="6.838" transform="translate(16.981 29.43)" fill="#fff" opacity="0.2"/>
      <rect id="Rectangle_316" data-name="Rectangle 316" width="6.838" height="6.838" transform="translate(31.831 22.005)" fill="#fff" opacity="0.2"/>
      <rect id="Rectangle_317" data-name="Rectangle 317" width="7.225" height="6.838" transform="translate(54.117 29.43)" fill="#fff" opacity="0.2"/>
      <rect id="Rectangle_318" data-name="Rectangle 318" width="6.838" height="5.982" transform="translate(24.406 0.586)" fill="#fff" opacity="0.2"/>
      <rect id="Rectangle_319" data-name="Rectangle 319" width="6.838" height="5.982" transform="translate(46.681 0.586)" fill="#fff" opacity="0.2"/>
      <rect id="Rectangle_320" data-name="Rectangle 320" width="6.838" height="5.982" transform="translate(31.831 0.586)" fill="#fff" opacity="0.2"/>
      <rect id="Rectangle_321" data-name="Rectangle 321" width="6.838" height="5.982" transform="translate(39.256 0.586)" fill="#fff" opacity="0.2"/>
      <rect id="Rectangle_322" data-name="Rectangle 322" width="6.838" height="6.838" transform="translate(24.406 29.43)" fill="#fff" opacity="0.2"/>
      <path id="Path_1538" data-name="Path 1538" d="M255.29,101.07v5.982h4.692a2.569,2.569,0,0,0,2.557-2.569V101.07Z" transform="translate(-201.173 -56.791)" fill="#fff" opacity="0.2"/>
      <rect id="Rectangle_323" data-name="Rectangle 323" width="6.838" height="6.838" transform="translate(46.681 36.855)" fill="#fff" opacity="0.2"/>
      <rect id="Rectangle_324" data-name="Rectangle 324" width="6.838" height="5.982" transform="translate(16.981 0.586)" fill="#fff" opacity="0.2"/>
      <rect id="Rectangle_325" data-name="Rectangle 325" width="6.838" height="6.838" transform="translate(39.256 36.855)" fill="#fff" opacity="0.2"/>
      <rect id="Rectangle_326" data-name="Rectangle 326" width="6.838" height="6.838" transform="translate(31.831 36.855)" fill="#fff" opacity="0.2"/>
      <rect id="Rectangle_327" data-name="Rectangle 327" width="6.838" height="6.838" transform="translate(24.406 36.855)" fill="#fff" opacity="0.2"/>
      <rect id="Rectangle_328" data-name="Rectangle 328" width="6.838" height="6.838" transform="translate(16.981 36.855)" fill="#fff" opacity="0.2"/>
      <rect id="Rectangle_329" data-name="Rectangle 329" width="6.838" height="5.982" transform="translate(16.981 44.279)" fill="#fff" opacity="0.2"/>
      <rect id="Rectangle_330" data-name="Rectangle 330" width="7.225" height="6.838" transform="translate(54.117 36.855)" fill="#fff" opacity="0.2"/>
      <rect id="Rectangle_331" data-name="Rectangle 331" width="7.225" height="6.838" transform="translate(9.169 22.005)" fill="#fff" opacity="0.2"/>
      <rect id="Rectangle_332" data-name="Rectangle 332" width="7.225" height="6.838" transform="translate(9.169 29.43)" fill="#fff" opacity="0.2"/>
      <rect id="Rectangle_333" data-name="Rectangle 333" width="6.838" height="5.982" transform="translate(31.831 44.279)" fill="#fff" opacity="0.2"/>
      <rect id="Rectangle_334" data-name="Rectangle 334" width="7.225" height="6.838" transform="translate(9.169 36.855)" fill="#fff" opacity="0.2"/>
      <rect id="Rectangle_335" data-name="Rectangle 335" width="6.838" height="5.982" transform="translate(24.406 44.279)" fill="#fff" opacity="0.2"/>
      <path id="Path_1539" data-name="Path 1539" d="M224.19,69.79V63.82H219.5a2.569,2.569,0,0,0-2.5,2.557V69.79Z" transform="translate(-207.795 -63.234)" fill="#fff" opacity="0.2"/>
      <path id="Path_1540" data-name="Path 1540" d="M224.19,101.07H217v3.437a2.569,2.569,0,0,0,2.569,2.569h4.692Z" transform="translate(-207.795 -56.791)" fill="#fff" opacity="0.2"/>
      <path id="Path_1541" data-name="Path 1541" d="M255.3,69.79h7.214V66.377a2.569,2.569,0,0,0-2.557-2.557H255.26Z" transform="translate(-201.178 -63.234)" fill="#fff" opacity="0.2"/>
      <rect id="Rectangle_336" data-name="Rectangle 336" width="6.838" height="5.982" transform="translate(39.256 44.279)" fill="#fff" opacity="0.2"/>
      <rect id="Rectangle_337" data-name="Rectangle 337" width="6.838" height="5.982" transform="translate(46.681 44.279)" fill="#fff" opacity="0.2"/>
      <rect id="Rectangle_338" data-name="Rectangle 338" width="6.838" height="6.838" transform="translate(31.831 7.143)" fill="#fff" opacity="0.2"/>
      <rect id="Rectangle_339" data-name="Rectangle 339" width="6.838" height="6.838" transform="translate(16.981 7.143)" fill="#fff" opacity="0.2"/>
      <rect id="Rectangle_340" data-name="Rectangle 340" width="7.225" height="6.838" transform="translate(54.117 14.568)" fill="#fff" opacity="0.2"/>
      <rect id="Rectangle_341" data-name="Rectangle 341" width="6.838" height="6.838" transform="translate(24.406 7.143)" fill="#fff" opacity="0.2"/>
      <rect id="Rectangle_342" data-name="Rectangle 342" width="6.838" height="6.838" transform="translate(39.256 14.568)" fill="#fff" opacity="0.2"/>
      <rect id="Rectangle_343" data-name="Rectangle 343" width="6.838" height="6.838" transform="translate(46.681 14.568)" fill="#fff" opacity="0.2"/>
      <rect id="Rectangle_344" data-name="Rectangle 344" width="7.225" height="6.838" transform="translate(9.169 14.568)" fill="#fff" opacity="0.2"/>
      <rect id="Rectangle_345" data-name="Rectangle 345" width="7.225" height="6.838" transform="translate(9.169 7.143)" fill="#fff" opacity="0.2"/>
      <rect id="Rectangle_346" data-name="Rectangle 346" width="7.225" height="6.838" transform="translate(54.117 7.143)" fill="#fff" opacity="0.2"/>
      <rect id="Rectangle_347" data-name="Rectangle 347" width="6.838" height="6.838" transform="translate(31.831 14.568)" fill="#fff" opacity="0.2"/>
      <rect id="Rectangle_348" data-name="Rectangle 348" width="6.838" height="6.838" transform="translate(39.256 7.143)" fill="#fff" opacity="0.2"/>
      <rect id="Rectangle_349" data-name="Rectangle 349" width="6.838" height="6.838" transform="translate(46.681 7.143)" fill="#fff" opacity="0.2"/>
      <path id="Path_1542" data-name="Path 1542" d="M226,86.021s6.921,8.211,15.471,8.211,15.46-8.211,15.46-8.211-6.92-8.211-15.46-8.211S226,86.021,226,86.021Z" transform="translate(-206.239 -60.814)" fill="none" stroke="#fff" stroke-linecap="round" stroke-linejoin="round" stroke-width="1"/>
      <path id="Path_1543" data-name="Path 1543" d="M245.391,84.6a5.4,5.4,0,1,1-5.384-5.384A5.4,5.4,0,0,1,245.391,84.6Z" transform="translate(-204.751 -60.57)" fill="none" stroke="#fff" stroke-miterlimit="10" stroke-width="1"/>
      <path id="Path_1544" data-name="Path 1544" d="M239.72,82.049a1.748,1.748,0,1,1,1.748,1.736,1.748,1.748,0,0,1-1.748-1.736Z" transform="translate(-203.866 -60.385)" fill="none" stroke="#fff" stroke-miterlimit="10" stroke-width="1"/>
      <line id="Line_23" data-name="Line 23" y1="5.513" transform="translate(35.256 11.472)" fill="none" stroke="#fff" stroke-linecap="round" stroke-linejoin="round" stroke-width="1"/>
      <line id="Line_24" data-name="Line 24" y1="4.481" x2="1.971" transform="translate(40.054 12.903)" fill="none" stroke="#fff" stroke-linecap="round" stroke-linejoin="round" stroke-width="1"/>
      <line id="Line_25" data-name="Line 25" y1="3.273" x2="2.756" transform="translate(44.663 16.152)" fill="none" stroke="#fff" stroke-linecap="round" stroke-linejoin="round" stroke-width="1"/>
      <line id="Line_26" data-name="Line 26" y1="1.771" x2="2.663" transform="translate(48.358 20.175)" fill="none" stroke="#fff" stroke-linecap="round" stroke-linejoin="round" stroke-width="1"/>
      <line id="Line_27" data-name="Line 27" x1="1.971" y1="4.481" transform="translate(28.476 12.903)" fill="none" stroke="#fff" stroke-linecap="round" stroke-linejoin="round" stroke-width="1"/>
      <line id="Line_28" data-name="Line 28" x1="2.756" y1="3.273" transform="translate(23.081 16.152)" fill="none" stroke="#fff" stroke-linecap="round" stroke-linejoin="round" stroke-width="1"/>
      <line id="Line_29" data-name="Line 29" x1="2.663" y1="1.771" transform="translate(19.48 20.175)" fill="none" stroke="#fff" stroke-linecap="round" stroke-linejoin="round" stroke-width="1"/>
    </g>
    <g id="freepik--face-recognition--inject-3" transform="translate(100.664 139.7)">
      <path id="Path_1545" data-name="Path 1545" d="M178.517,127.21a1.349,1.349,0,0,0-1.173.762H146.155a2.827,2.827,0,0,0-2.815,2.815V162.8a1.642,1.642,0,0,1-1.642,1.642H129.17v1.173H141.7a2.827,2.827,0,0,0,2.815-2.815v-32.01a1.642,1.642,0,0,1,1.642-1.642h31.119a1.372,1.372,0,1,0,1.243-1.935Z" transform="translate(-78.322 -127.21)" fill="#7380f2"/>
      <path id="Path_1546" data-name="Path 1546" d="M178.517,127.21a1.349,1.349,0,0,0-1.173.762H146.155a2.827,2.827,0,0,0-2.815,2.815V162.8a1.642,1.642,0,0,1-1.642,1.642H129.17v1.173H141.7a2.827,2.827,0,0,0,2.815-2.815v-32.01a1.642,1.642,0,0,1,1.642-1.642h31.119a1.372,1.372,0,1,0,1.243-1.935Z" transform="translate(-78.322 -127.21)" fill="#fff" opacity="0.4"/>
      <rect id="Rectangle_350" data-name="Rectangle 350" width="50.848" height="53.335" rx="2.69" transform="translate(0 11.143)" fill="#7380f2"/>
      <rect id="Rectangle_351" data-name="Rectangle 351" width="50.848" height="53.335" rx="2.69" transform="translate(0 11.143)" fill="#fff" opacity="0.4"/>
      <rect id="Rectangle_352" data-name="Rectangle 352" width="6.838" height="6.838" transform="translate(22.005 41.816)" fill="#fff" opacity="0.2"/>
      <rect id="Rectangle_353" data-name="Rectangle 353" width="6.838" height="6.838" transform="translate(29.43 19.542)" fill="#fff" opacity="0.2"/>
      <rect id="Rectangle_354" data-name="Rectangle 354" width="6.838" height="6.838" transform="translate(14.568 49.253)" fill="#fff" opacity="0.2"/>
      <rect id="Rectangle_355" data-name="Rectangle 355" width="6.838" height="6.838" transform="translate(29.43 26.967)" fill="#fff" opacity="0.2"/>
      <rect id="Rectangle_356" data-name="Rectangle 356" width="6.838" height="6.838" transform="translate(29.43 34.391)" fill="#fff" opacity="0.2"/>
      <rect id="Rectangle_357" data-name="Rectangle 357" width="6.838" height="6.838" transform="translate(22.005 26.967)" fill="#fff" opacity="0.2"/>
      <rect id="Rectangle_358" data-name="Rectangle 358" width="6.838" height="7.225" transform="translate(22.005 11.73)" fill="#fff" opacity="0.2"/>
      <rect id="Rectangle_359" data-name="Rectangle 359" width="6.838" height="6.838" transform="translate(14.568 41.816)" fill="#fff" opacity="0.2"/>
      <rect id="Rectangle_360" data-name="Rectangle 360" width="6.838" height="6.838" transform="translate(22.005 19.542)" fill="#fff" opacity="0.2"/>
      <rect id="Rectangle_361" data-name="Rectangle 361" width="6.838" height="6.838" transform="translate(22.005 49.253)" fill="#fff" opacity="0.2"/>
      <rect id="Rectangle_362" data-name="Rectangle 362" width="6.838" height="6.838" transform="translate(29.43 49.253)" fill="#fff" opacity="0.2"/>
      <rect id="Rectangle_363" data-name="Rectangle 363" width="6.838" height="6.838" transform="translate(22.005 34.391)" fill="#fff" opacity="0.2"/>
      <rect id="Rectangle_364" data-name="Rectangle 364" width="6.838" height="7.225" transform="translate(29.43 11.73)" fill="#fff" opacity="0.2"/>
      <rect id="Rectangle_365" data-name="Rectangle 365" width="5.982" height="6.838" transform="translate(0.586 41.816)" fill="#fff" opacity="0.2"/>
      <rect id="Rectangle_366" data-name="Rectangle 366" width="5.982" height="6.838" transform="translate(0.586 19.542)" fill="#fff" opacity="0.2"/>
      <rect id="Rectangle_367" data-name="Rectangle 367" width="5.982" height="6.838" transform="translate(0.586 34.391)" fill="#fff" opacity="0.2"/>
      <rect id="Rectangle_368" data-name="Rectangle 368" width="5.982" height="6.838" transform="translate(0.586 26.967)" fill="#fff" opacity="0.2"/>
      <rect id="Rectangle_369" data-name="Rectangle 369" width="6.838" height="6.838" transform="translate(29.43 41.816)" fill="#fff" opacity="0.2"/>
      <path id="Path_1547" data-name="Path 1547" d="M123.57,144.441h5.982v-4.692a2.569,2.569,0,0,0-2.569-2.569H123.57Z" transform="translate(-79.291 -125.485)" fill="#fff" opacity="0.2"/>
      <rect id="Rectangle_370" data-name="Rectangle 370" width="6.838" height="6.838" transform="translate(36.855 19.542)" fill="#fff" opacity="0.2"/>
      <rect id="Rectangle_371" data-name="Rectangle 371" width="5.982" height="6.838" transform="translate(0.586 49.253)" fill="#fff" opacity="0.2"/>
      <rect id="Rectangle_372" data-name="Rectangle 372" width="6.838" height="6.838" transform="translate(36.855 26.967)" fill="#fff" opacity="0.2"/>
      <rect id="Rectangle_373" data-name="Rectangle 373" width="6.838" height="6.838" transform="translate(36.855 34.391)" fill="#fff" opacity="0.2"/>
      <rect id="Rectangle_374" data-name="Rectangle 374" width="6.838" height="6.838" transform="translate(36.855 41.816)" fill="#fff" opacity="0.2"/>
      <rect id="Rectangle_375" data-name="Rectangle 375" width="6.838" height="6.838" transform="translate(36.855 49.253)" fill="#fff" opacity="0.2"/>
      <rect id="Rectangle_376" data-name="Rectangle 376" width="5.982" height="6.838" transform="translate(44.279 49.253)" fill="#fff" opacity="0.2"/>
      <rect id="Rectangle_377" data-name="Rectangle 377" width="6.838" height="7.225" transform="translate(36.855 11.73)" fill="#fff" opacity="0.2"/>
      <rect id="Rectangle_378" data-name="Rectangle 378" width="6.838" height="7.225" transform="translate(22.005 56.678)" fill="#fff" opacity="0.2"/>
      <rect id="Rectangle_379" data-name="Rectangle 379" width="6.838" height="7.225" transform="translate(29.43 56.678)" fill="#fff" opacity="0.2"/>
      <rect id="Rectangle_380" data-name="Rectangle 380" width="5.982" height="6.838" transform="translate(44.279 34.391)" fill="#fff" opacity="0.2"/>
      <rect id="Rectangle_381" data-name="Rectangle 381" width="6.838" height="7.225" transform="translate(36.855 56.678)" fill="#fff" opacity="0.2"/>
      <rect id="Rectangle_382" data-name="Rectangle 382" width="5.982" height="6.838" transform="translate(44.279 41.816)" fill="#fff" opacity="0.2"/>
      <path id="Path_1548" data-name="Path 1548" d="M92.29,175.53H86.32v4.692a2.569,2.569,0,0,0,2.557,2.557H92.29Z" transform="translate(-85.734 -118.852)" fill="#fff" opacity="0.2"/>
      <path id="Path_1549" data-name="Path 1549" d="M123.57,175.535v7.214h3.413a2.569,2.569,0,0,0,2.569-2.557V175.5Z" transform="translate(-79.291 -118.857)" fill="#fff" opacity="0.2"/>
      <path id="Path_1550" data-name="Path 1550" d="M92.29,144.435V137.21H88.877a2.569,2.569,0,0,0-2.557,2.569v4.692Z" transform="translate(-85.734 -125.48)" fill="#fff" opacity="0.2"/>
      <rect id="Rectangle_383" data-name="Rectangle 383" width="5.982" height="6.838" transform="translate(44.279 26.967)" fill="#fff" opacity="0.2"/>
      <rect id="Rectangle_384" data-name="Rectangle 384" width="5.982" height="6.838" transform="translate(44.279 19.542)" fill="#fff" opacity="0.2"/>
      <rect id="Rectangle_385" data-name="Rectangle 385" width="6.838" height="6.838" transform="translate(7.143 34.391)" fill="#fff" opacity="0.2"/>
      <rect id="Rectangle_386" data-name="Rectangle 386" width="6.838" height="6.838" transform="translate(7.143 49.253)" fill="#fff" opacity="0.2"/>
      <rect id="Rectangle_387" data-name="Rectangle 387" width="6.838" height="7.225" transform="translate(14.568 11.73)" fill="#fff" opacity="0.2"/>
      <rect id="Rectangle_388" data-name="Rectangle 388" width="6.838" height="6.838" transform="translate(7.143 41.816)" fill="#fff" opacity="0.2"/>
      <rect id="Rectangle_389" data-name="Rectangle 389" width="6.838" height="6.838" transform="translate(14.568 26.967)" fill="#fff" opacity="0.2"/>
      <rect id="Rectangle_390" data-name="Rectangle 390" width="6.838" height="6.838" transform="translate(14.568 19.542)" fill="#fff" opacity="0.2"/>
      <rect id="Rectangle_391" data-name="Rectangle 391" width="6.838" height="7.225" transform="translate(14.568 56.678)" fill="#fff" opacity="0.2"/>
      <rect id="Rectangle_392" data-name="Rectangle 392" width="6.838" height="7.225" transform="translate(7.143 56.678)" fill="#fff" opacity="0.2"/>
      <rect id="Rectangle_393" data-name="Rectangle 393" width="6.838" height="7.225" transform="translate(7.143 11.73)" fill="#fff" opacity="0.2"/>
      <rect id="Rectangle_394" data-name="Rectangle 394" width="6.838" height="6.838" transform="translate(14.568 34.391)" fill="#fff" opacity="0.2"/>
      <rect id="Rectangle_395" data-name="Rectangle 395" width="6.838" height="6.838" transform="translate(7.143 26.967)" fill="#fff" opacity="0.2"/>
      <rect id="Rectangle_396" data-name="Rectangle 396" width="6.838" height="6.838" transform="translate(7.143 19.542)" fill="#fff" opacity="0.2"/>
      <path id="Path_1551" data-name="Path 1551" d="M109.322,179.816A12.433,12.433,0,0,1,96.9,167.406V156.732a12.422,12.422,0,1,1,24.843,0v10.674a12.433,12.433,0,0,1-12.422,12.41Zm0-34.321a11.261,11.261,0,0,0-11.249,11.237v10.674a11.249,11.249,0,0,0,22.5,0V156.732a11.26,11.26,0,0,0-11.249-11.237Z" transform="translate(-83.904 -124.252)" fill="#fff"/>
      <ellipse id="Ellipse_31" data-name="Ellipse 31" cx="1.314" cy="1.783" rx="1.314" ry="1.783" transform="translate(29.711 32.796)" fill="#fff"/>
      <path id="Path_1552" data-name="Path 1552" d="M104.217,156.953c0,.974-.586,1.771-1.314,1.771s-1.314-.8-1.314-1.771.586-1.783,1.314-1.783S104.217,155.968,104.217,156.953Z" transform="translate(-83.092 -122.374)" fill="#fff"/>
      <path id="Path_1553" data-name="Path 1553" d="M107.915,158.2l-2.475,6.346h2.475Z" transform="translate(-82.426 -121.85)" fill="#fff"/>
      <path id="Path_1554" data-name="Path 1554" d="M107.594,167.592a8.035,8.035,0,0,1-3.284-.516l.5-1.056-.258.528.258-.528s2.1.927,6.58,0l.246,1.173a19.251,19.251,0,0,1-4.047.4Z" transform="translate(-82.622 -120.497)" fill="#fff"/>
    </g>
    <g id="freepik--Interface--inject-3" transform="translate(333.005 71.86)">
      <rect id="Rectangle_397" data-name="Rectangle 397" width="139.829" height="139.829" rx="5.13" transform="translate(0 1.075)" fill="#7380f2"/>
      <rect id="Rectangle_398" data-name="Rectangle 398" width="109.731" height="28.949" rx="4.63" transform="translate(15.049 87.264)" fill="#fff" opacity="0.5"/>
      <path id="Path_1555" data-name="Path 1555" d="M314.739,156.978l3.2,1.736-1.384,2.4-3.3-1.935.059,3.519h-2.756v-3.589l-3.237,1.935L306,158.714l3.2-1.736-3.2-1.759,1.408-2.416,3.237,1.947V151.16H313.4l-.059,3.589,3.237-1.947,1.443,2.416Z" transform="translate(-280.077 -55.227)" fill="#fff"/>
      <path id="Path_1556" data-name="Path 1556" d="M330.968,156.988l3.2,1.736-1.431,2.4-3.237-1.935v3.519h-2.756v-3.589l-3.226,1.935-1.419-2.4,3.2-1.736-3.2-1.759,1.419-2.416,3.226,1.947V151.1H329.5v3.589l3.237-1.947,1.431,2.416Z" transform="translate(-277.293 -55.238)" fill="#fff"/>
      <path id="Path_1557" data-name="Path 1557" d="M347.181,156.988l3.2,1.736-1.443,2.4-3.226-1.935.059,3.519H343v-3.589l-3.237,1.935-1.408-2.4,3.2-1.736-3.2-1.759,1.408-2.416L343,154.689V151.1h2.768l-.059,3.589,3.226-1.947,1.443,2.416Z" transform="translate(-274.48 -55.238)" fill="#fff"/>
      <path id="Path_1558" data-name="Path 1558" d="M363.4,156.988l3.2,1.736-1.443,2.4-3.237-1.935.059,3.519h-2.756v-3.589L356,161.058l-1.408-2.4,3.2-1.736-3.2-1.759L356,152.742l3.226,1.947V151.1h2.756l-.059,3.589,3.237-1.947,1.443,2.416Z" transform="translate(-271.673 -55.238)" fill="#fff"/>
      <path id="Path_1559" data-name="Path 1559" d="M379.611,156.978l3.155,1.736-1.431,2.4-3.19-1.935.059,3.519h-2.756v-3.589l-3.237,2.006-1.419-2.4,3.2-1.736-3.2-1.759,1.419-2.416,3.226,1.947V151.16h2.756l-.059,3.589,3.237-1.947,1.431,2.416Z" transform="translate(-268.871 -55.227)" fill="#fff"/>
      <circle id="Ellipse_32" data-name="Ellipse 32" cx="31.353" cy="31.353" r="31.353" transform="translate(25.569 44.341) rotate(-45)" fill="#fff" opacity="0.5"/>
      <path id="Path_1560" data-name="Path 1560" d="M358.111,105.68H333.6a3.355,3.355,0,0,0-3.366,3.366v14.932a3.366,3.366,0,0,0,3.366,3.366h24.515a3.366,3.366,0,0,0,3.366-3.366V109.046a3.355,3.355,0,0,0-3.366-3.366ZM348.106,122.3h-4.5l.938-6.111a2.979,2.979,0,1,1,2.627,0Z" transform="translate(-275.887 -63.094)" fill="#7380f2"/>
      <path id="Path_1561" data-name="Path 1561" d="M338.221,105.979l-.457-2.346a7.554,7.554,0,0,1,14.815-2.968l.457,2.287,4.328-.868-.469-2.346a11.963,11.963,0,1,0-23.462,4.692l.46,2.345Z" transform="translate(-275.373 -65.786)" fill="#7380f2"/>
      <path id="Path_1562" data-name="Path 1562" d="M363.783,177.795H328.828a1.548,1.548,0,0,1-1.548-1.548h0a1.548,1.548,0,0,1,1.548-1.537h34.954a1.548,1.548,0,0,1,1.548,1.537h0a1.548,1.548,0,0,1-1.548,1.548Z" transform="translate(-276.397 -51.154)" opacity="0.2"/>
    </g>
    <g id="freepik--Character--inject-3" transform="translate(176.827 115.705)">
      <g id="freepik--group--inject-3">
        <path id="Path_1563" data-name="Path 1563" d="M259.69,179.933l12.011-10.2s10.228-10.838,12.387-11.073,6.815.692,8.047,2.24-8,11.612-10.17,13.466-6.5,1.548-6.5,1.548l-11.448,11.061Z" transform="translate(-131.909 -97.783)" fill="#ebb376"/>
        <path id="Path_1564" data-name="Path 1564" d="M182.8,409.11H171.192a.856.856,0,0,0-.809.657l-1.889,8.516a1.419,1.419,0,0,0,1.091,1.677h.3c3.753-.059,6.5-.293,11.214-.293,2.909,0,11.671.3,15.683.3s4.539-3.965,2.9-4.328c-7.366-1.607-12.9-3.824-15.249-5.947A2.346,2.346,0,0,0,182.8,409.11Z" transform="translate(-147.688 -54.457)" fill="#263238"/>
        <path id="Path_1565" data-name="Path 1565" d="M224.785,408.86H213.172a.833.833,0,0,0-.809.657l-1.888,8.5a1.419,1.419,0,0,0,1.091,1.677h.3c3.765-.059,6.5-.293,11.214-.293,2.909,0,11.671.3,15.683.3s4.539-3.965,2.9-4.328c-7.366-1.607-12.9-3.824-15.249-5.947A2.346,2.346,0,0,0,224.785,408.86Z" transform="translate(-140.427 -54.5)" fill="#263238"/>
        <path id="Path_1566" data-name="Path 1566" d="M176.63,225.62h50.731c4.821,26.333,18.615,132.932,7.788,215.978l-16.938,1.853s2.651-127.619-12.5-168.379c-1.748,21.817-3.824,45.018-5.618,57.37-4.41,30.4-14.357,109.614-14.357,109.614l-17.172.469s3.765-76.841,5.407-106.74C175.785,303.376,176.56,232.271,176.63,225.62Z" transform="translate(-147.672 -86.194)" fill="#263238"/>
        <path id="Path_1567" data-name="Path 1567" d="M176.63,225.62h50.731c4.821,26.333,18.615,132.932,7.788,215.978l-16.938,1.853s2.651-127.619-12.5-168.379c-1.748,21.817-3.824,45.018-5.618,57.37-4.41,30.4-14.357,109.614-14.357,109.614l-17.172.469s3.765-76.841,5.407-106.74C175.785,303.376,176.56,232.271,176.63,225.62Z" transform="translate(-147.672 -86.194)" fill="#fff" opacity="0.2"/>
        <path id="Path_1568" data-name="Path 1568" d="M200.23,270.442a136.062,136.062,0,0,1,5.665,21.946c1.419-19.413-4.258-40-4.258-40Z" transform="translate(-142.194 -81.564)" opacity="0.2"/>
        <path id="Path_1569" data-name="Path 1569" d="M215.327,150.79c8.011.974,23.788,37.394,29.817,40.643s29.934-17.172,29.934-17.172l6.029,7.425s-27.142,29.007-37.816,25.805-25.805-30.626-30.392-39.212S215.327,150.79,215.327,150.79Z" transform="translate(-140.271 -99.137)" fill="#7380f2"/>
        <path id="Path_1570" data-name="Path 1570" d="M281.108,181.679s-27.142,29-37.816,25.805c-4.692-1.419-10.158-7.437-15.249-14.474a234.592,234.592,0,0,1-15.131-24.726,14.639,14.639,0,0,1-.258-12.668,21.29,21.29,0,0,1,2.686-4.786c8.011.974,23.788,37.406,29.817,40.655s29.934-17.172,29.934-17.172Z" transform="translate(-140.272 -99.13)" fill="#fff" opacity="0.5"/>
        <path id="Path_1571" data-name="Path 1571" d="M228.033,192.254A234.6,234.6,0,0,1,212.9,167.528a14.639,14.639,0,0,1-.258-12.668C217.207,160.478,226.485,173.968,228.033,192.254Z" transform="translate(-140.274 -98.433)" opacity="0.2"/>
        <path id="Path_1572" data-name="Path 1572" d="M223.042,150.815s-32.268-1.525-56.3,4.539c0,0,9.008,69.8,8.61,100.206l57.475-3.1S231.429,182.18,223.042,150.815Z" transform="translate(-147.986 -99.162)" fill="#7380f2"/>
        <path id="Path_1573" data-name="Path 1573" d="M175.356,255.559c.188-14.134-1.666-36.784-3.695-56.983h0c-.774-7.706-1.572-15.061-2.346-21.442-1.466-12.844-2.616-21.77-2.616-21.77,24.034-6.064,56.3-4.539,56.3-4.539,8.387,31.365,9.841,101.649,9.841,101.649Z" transform="translate(-147.993 -99.16)" fill="#fff" opacity="0.6"/>
        <path id="Path_1574" data-name="Path 1574" d="M171.276,195.08c-.774-7.706-1.572-15.061-2.346-21.442l3.695-2.839S175.886,183.515,171.276,195.08Z" transform="translate(-147.608 -95.676)" opacity="0.2"/>
        <path id="Path_1575" data-name="Path 1575" d="M219.3,223.513l-3.155.152-8.563.4-5.255.246-10.944.516s0-.54-.059-1.525h0c-.094-2.123-.281-6.322-.6-11.612h0c-.223-3.941-.528-8.492-.9-13.255-.27-3.284-.563-6.662-.9-10.005-.5-4.962-1.091-9.865-1.783-14.275-.364-2.346-.762-4.586-1.173-6.6l27.225-1.771s.352,1.724.88,4.692c.352,1.947.774,4.434,1.232,7.343A311.636,311.636,0,0,1,219.3,223.513Z" transform="translate(-144.662 -96.544)" opacity="0.2"/>
        <path id="Path_1576" data-name="Path 1576" d="M206.879,220.857l-5.255.246c3.742-9.513,5.208-22.92,2.7-27.1-3.4-5.654-7.577,5.185-10.557,18.181a23.142,23.142,0,0,1-3.167,7.894c-.094-2.123-.282-6.322-.6-11.612h0a33.828,33.828,0,0,0,3.765-8.95c4.187-14.7,7.906-17.325,12.691-13.466C210.867,189.586,212.157,206.711,206.879,220.857Z" transform="translate(-143.963 -93.313)" opacity="0.2"/>
        <path id="Path_1577" data-name="Path 1577" d="M215.7,222.585c1.067-12.469-.575-33.476-4.234-39.939-4.187-7.413-13.43-7.577-17.876,5.865a34.579,34.579,0,0,1-4.211,8.856c-.27-3.284-.563-6.662-.9-10.005a36.047,36.047,0,0,0,3.343-4.985c5.067-8.973,12.9-13.149,20.644-7.929a10.217,10.217,0,0,1,2.346,2.346,311.634,311.634,0,0,1,4.047,45.617Z" transform="translate(-144.226 -95.44)" opacity="0.2"/>
        <path id="Path_1578" data-name="Path 1578" d="M214.053,170.519c-6.088-4.6-14.31-3.355-19.565,1a10.252,10.252,0,0,1-7.354,2.639c-.364-2.346-.762-4.586-1.173-6.6l27.225-1.771S213.525,167.5,214.053,170.519Z" transform="translate(-144.662 -96.544)" opacity="0.2"/>
        <path id="Path_1579" data-name="Path 1579" d="M182.8,156.206c4.633,4.211,15.988,2.651,15.988,2.651s7.038-1.935,5.6-4.152c-4.176-.692-6.193-2.639-7.038-5.126a11.858,11.858,0,0,1-.422-4.774,23.332,23.332,0,0,1,.352-2.663L183.2,131.75C185.087,138.612,187.339,151.233,182.8,156.206Z" transform="translate(-145.209 -102.43)" fill="#ebb376"/>
        <path id="Path_1580" data-name="Path 1580" d="M185.94,137.38c.563,8.422,7.484,10.744,10.873,11.225a11.858,11.858,0,0,1-.422-4.774Z" transform="translate(-144.665 -101.456)" opacity="0.2"/>
        <path id="Path_1581" data-name="Path 1581" d="M205.194,113.15s3.918,12.668-2.217,18.685-9.747-18.111-9.747-18.111Z" transform="translate(-143.405 -105.647)" fill="#263238"/>
        <path id="Path_1582" data-name="Path 1582" d="M186.54,145.345a11.882,11.882,0,0,0,14.193,2.534,13.219,13.219,0,0,0,6.569-7.214,13.755,13.755,0,0,0,.434-1.337c2.193-8.422,1.173-22.439-7.964-26.38a12.9,12.9,0,0,0-18.028,12.539C182.106,134.894,181.872,140.454,186.54,145.345Z" transform="translate(-145.395 -105.867)" fill="#ebb376"/>
        <path id="Path_1583" data-name="Path 1583" d="M193.881,126.2c-.07.751.375,1.4.88,1.4s.915-.61.938-1.372-.387-1.4-.88-1.4S193.9,125.393,193.881,126.2Z" transform="translate(-143.293 -103.627)" fill="#263238"/>
        <path id="Path_1584" data-name="Path 1584" d="M201.271,126.322c-.07.751.387,1.4.88,1.4s.915-.61.938-1.372-.387-1.4-.88-1.4S201.295,125.6,201.271,126.322Z" transform="translate(-142.015 -103.606)" fill="#263238"/>
        <path id="Path_1585" data-name="Path 1585" d="M198.948,126.39a26.978,26.978,0,0,0,3.519,6.639,4.469,4.469,0,0,1-3.707.61Z" transform="translate(-142.448 -103.357)" fill="#d58745"/>
        <path id="Path_1586" data-name="Path 1586" d="M191.683,123.9a.481.481,0,0,0,.446-.164,3.625,3.625,0,0,1,2.909-1.454.457.457,0,0,0,.493-.411.446.446,0,0,0-.411-.481h0a4.445,4.445,0,0,0-3.695,1.783.446.446,0,0,0,.059.622h0a.939.939,0,0,0,.2.106Z" transform="translate(-143.734 -104.222)" fill="#263238"/>
        <path id="Path_1587" data-name="Path 1587" d="M204.974,124.1a.4.4,0,0,0,.258,0,.446.446,0,0,0,.235-.587h0a4.469,4.469,0,0,0-3.2-2.592.446.446,0,0,0-.5.375h0a.457.457,0,0,0,.375.5h0a3.613,3.613,0,0,1,2.5,2.1.481.481,0,0,0,.34.2Z" transform="translate(-141.93 -104.304)" fill="#263238"/>
        <path id="Path_1588" data-name="Path 1588" d="M189.569,113.58l.622,4.129a3.1,3.1,0,0,0-1.443,3.941c1.431,3.519-.4,8.926-3.015,11.155,0,0-.129-1.5-1.4-1.114s-.7,8.211,1.9,11.953a27.483,27.483,0,0,1-6.862-12.246c-2.17-7.589-1.947-13.219-.457-16.222Z" transform="translate(-146.078 -105.573)" fill="#263238"/>
        <path id="Path_1589" data-name="Path 1589" d="M200.321,134.738a23.038,23.038,0,0,0-.927,3.343,5.306,5.306,0,0,1-.61,0c-2.768-.117-4.012-1.091-4.551-2.135a3.625,3.625,0,0,1-.364-1.654,3.438,3.438,0,0,1,.129-.962,12.9,12.9,0,0,0,5.372,1.372C199.958,134.738,200.321,134.738,200.321,134.738Z" transform="translate(-143.294 -102.157)" fill="#263238"/>
        <path id="Path_1590" data-name="Path 1590" d="M199.371,134.682l-.293.985c-2.6-.129-4.422-.563-5.208-1.4a3.436,3.436,0,0,1,.129-.962A12.9,12.9,0,0,0,199.371,134.682Z" transform="translate(-143.294 -102.16)" fill="#fff"/>
        <path id="Path_1591" data-name="Path 1591" d="M198.731,137.675c-2.768-.117-4.012-1.091-4.551-2.135a8.938,8.938,0,0,1,3.05.751A3.284,3.284,0,0,1,198.731,137.675Z" transform="translate(-143.24 -101.775)" fill="#de5753"/>
        <path id="Path_1592" data-name="Path 1592" d="M196.02,117.33a2.205,2.205,0,0,1,2.71-.692c1.982.575,3.73,2.569,5.771,5.1s6.076,2.545,7.038,1.044-.927-3.6-.927-3.6,1.736-9.63-8.762-11.835-16.023,2.44-16.023,2.44-8.715.293-9.384,8.352a38.075,38.075,0,0,0,.586,9.783s-2.346,2.944,2.064,2.768c5.009-.2,11.026-2.921,11.319-7.788S196.02,117.33,196.02,117.33Z" transform="translate(-146.324 -106.754)" fill="#263238"/>
        <path id="Path_1593" data-name="Path 1593" d="M178.164,130.875a8.985,8.985,0,0,0,5.044,4.633c2.956,1.056,4.692-1.537,4.035-4.446-.586-2.592-2.8-6.334-5.865-6.111S176.967,128.2,178.164,130.875Z" transform="translate(-146.085 -103.608)" fill="#ebb376"/>
        <path id="Path_1594" data-name="Path 1594" d="M169.505,154.66c-8.41,2.452-20.163,59.68-18.615,67.105s31.084,38.708,31.084,38.708l8.211-6.228s-25.1-35.541-25.406-42.966,11.131-34.954,11.131-34.954-.3-9.278-1.548-13.923A16.809,16.809,0,0,0,169.505,154.66Z" transform="translate(-150.752 -98.467)" fill="#7380f2"/>
        <path id="Path_1595" data-name="Path 1595" d="M169.505,154.66c-8.41,2.452-20.163,59.68-18.615,67.105s31.084,38.708,31.084,38.708l8.211-6.228s-25.1-35.541-25.406-42.966,11.131-34.954,11.131-34.954-.3-9.278-1.548-13.923A16.809,16.809,0,0,0,169.505,154.66Z" transform="translate(-150.752 -98.467)" fill="#fff" opacity="0.5"/>
      </g>
    </g>
  </g>
</svg>
