<svg xmlns="http://www.w3.org/2000/svg" width="278.408" height="278.411" viewBox="0 0 278.408 278.411">
  <path id="green_fingerprint_" data-name="green fingerprint " d="M139.266,133.746A13.05,13.05,0,0,0,126.216,146.8a397.622,397.622,0,0,1-15.062,115.035c-1.484,5.285,1.169,16.58,12.572,16.58a13.055,13.055,0,0,0,12.556-9.527A420.862,420.862,0,0,0,152.311,146.8a13.042,13.042,0,0,0-13.045-13.051ZM138.8,89.3c-33.311-.038-56.558,25.6-56.1,54.97a356.761,356.761,0,0,1-7.27,77.515,13.049,13.049,0,0,0,25.557,5.285,382.833,382.833,0,0,0,7.814-83.208c-.223-14.111,10.832-28.543,29.608-28.461,17.025.256,31.077,13.779,31.332,30.163a437.164,437.164,0,0,1-5.769,78.058,13.046,13.046,0,0,0,10.745,15c10.859,1.811,14.578-8.211,15-10.75a463.834,463.834,0,0,0,6.128-82.713C195.367,114.817,169.777,89.76,138.8,89.3ZM78.609,78.548A13.063,13.063,0,0,0,60.251,80.44a94.312,94.312,0,0,0-21.071,60.9,315.793,315.793,0,0,1-4.954,60.93,13.06,13.06,0,0,0,10.527,15.166c10.935,1.9,14.72-8.053,15.166-10.527a342.021,342.021,0,0,0,5.362-65.976A67.2,67.2,0,0,1,80.506,96.905a13.058,13.058,0,0,0-1.9-18.358Zm59.527-33.893a97.2,97.2,0,0,0-24.894,2.7,13.054,13.054,0,1,0,6.014,25.4,78.045,78.045,0,0,1,18.488-2.007c41.017.614,74.894,33.442,75.519,73.181a479.1,479.1,0,0,1-3.034,61.789,13.055,13.055,0,0,0,11.479,14.453c9.092,1.06,13.872-6.46,14.453-11.479a505.2,505.2,0,0,0,3.2-65.171c-.848-53.7-46.259-98.058-101.228-98.874ZM275.2,110.7a13.05,13.05,0,1,0-25.487,5.623c2.561,11.642,2.67,20.342,2.556,33.5a13.047,13.047,0,0,0,12.942,13.159h.109a13.049,13.049,0,0,0,13.051-12.942c.1-12.061.217-23.986-3.17-39.336ZM253.388,61.365A144.647,144.647,0,0,0,137.466.011C99.517-.446,64.416,13.545,38.31,39.663A129.685,129.685,0,0,0,.072,134.121L.006,145.8a13.042,13.042,0,0,0,12.659,13.426c.125.011.261.011.392.011a13.055,13.055,0,0,0,13.034-12.67l.087-12.855a103.738,103.738,0,0,1,30.6-75.584c21.077-21.1,49.668-32.447,80.3-32.006a118.466,118.466,0,0,1,94.953,50.239,13.043,13.043,0,1,0,21.348-14.992Z" transform="translate(-0.001)" fill="#ccffe6"/>
</svg>
