<?xml version="1.0" encoding="UTF-8" standalone="no"?>
<!DOCTYPE svg PUBLIC "-//W3C//DTD SVG 1.1//EN"
 "http://www.w3.org/Graphics/SVG/1.1/DTD/svg11.dtd">
<!-- Generated by graphviz version 2.47.3 (20210619.1520)
 -->
<!-- Title: dependencies Pages: 1 -->
<svg width="3337pt" height="247pt"
 viewBox="0.00 0.00 3337.00 246.80" xmlns="http://www.w3.org/2000/svg" xmlns:xlink="http://www.w3.org/1999/xlink">
<g id="graph0" class="graph" transform="scale(1 1) rotate(0) translate(4 242.8)">
<title>dependencies</title>
<polygon fill="white" stroke="transparent" points="-4,4 -4,-242.8 3333,-242.8 3333,4 -4,4"/>
<text text-anchor="middle" x="1664.5" y="-8.2" font-family="sans-serif" font-size="14.00">dependencies</text>
<g id="clust1" class="cluster">
<title>cluster_AppModule</title>
<polygon fill="none" stroke="black" stroke-dasharray="1,5" points="8,-32.8 8,-230.8 700,-230.8 700,-32.8 8,-32.8"/>
</g>
<g id="clust2" class="cluster">
<title>cluster_AppModule_declarations</title>
<polygon fill="none" stroke="black" points="570,-40.8 570,-92.8 692,-92.8 692,-40.8 570,-40.8"/>
</g>
<g id="clust4" class="cluster">
<title>cluster_AppModule_imports</title>
<polygon fill="none" stroke="black" points="418,-40.8 418,-92.8 562,-92.8 562,-40.8 418,-40.8"/>
</g>
<g id="clust6" class="cluster">
<title>cluster_AppModule_bootstrap</title>
<polygon fill="none" stroke="black" points="347,-170.8 347,-222.8 471,-222.8 471,-170.8 347,-170.8"/>
</g>
<g id="clust7" class="cluster">
<title>cluster_AppModule_providers</title>
<polygon fill="none" stroke="black" points="16,-40.8 16,-92.8 410,-92.8 410,-40.8 16,-40.8"/>
</g>
<g id="clust14" class="cluster">
<title>cluster_AuthenticationModule</title>
<polygon fill="none" stroke="black" stroke-dasharray="1,5" points="708,-32.8 708,-157.8 1742,-157.8 1742,-32.8 708,-32.8"/>
</g>
<g id="clust15" class="cluster">
<title>cluster_AuthenticationModule_declarations</title>
<polygon fill="none" stroke="black" points="928,-40.8 928,-92.8 1734,-92.8 1734,-40.8 928,-40.8"/>
</g>
<g id="clust21" class="cluster">
<title>cluster_AuthenticationModule_imports</title>
<polygon fill="none" stroke="black" points="716,-40.8 716,-92.8 920,-92.8 920,-40.8 716,-40.8"/>
</g>
<g id="clust31" class="cluster">
<title>cluster_DashboardModule</title>
<polygon fill="none" stroke="black" stroke-dasharray="1,5" points="1750,-32.8 1750,-157.8 1948,-157.8 1948,-32.8 1750,-32.8"/>
</g>
<g id="clust33" class="cluster">
<title>cluster_DashboardModule_imports</title>
<polygon fill="none" stroke="black" points="1758,-40.8 1758,-92.8 1940,-92.8 1940,-40.8 1758,-40.8"/>
</g>
<g id="clust43" class="cluster">
<title>cluster_HomeModule</title>
<polygon fill="none" stroke="black" stroke-dasharray="1,5" points="1956,-32.8 1956,-157.8 2841,-157.8 2841,-32.8 1956,-32.8"/>
</g>
<g id="clust44" class="cluster">
<title>cluster_HomeModule_declarations</title>
<polygon fill="none" stroke="black" points="2126,-40.8 2126,-92.8 2833,-92.8 2833,-40.8 2126,-40.8"/>
</g>
<g id="clust50" class="cluster">
<title>cluster_HomeModule_imports</title>
<polygon fill="none" stroke="black" points="1964,-40.8 1964,-92.8 2118,-92.8 2118,-40.8 1964,-40.8"/>
</g>
<g id="clust60" class="cluster">
<title>cluster_UsersModule</title>
<polygon fill="none" stroke="black" stroke-dasharray="1,5" points="2849,-32.8 2849,-157.8 3321,-157.8 3321,-32.8 2849,-32.8"/>
</g>
<g id="clust61" class="cluster">
<title>cluster_UsersModule_declarations</title>
<polygon fill="none" stroke="black" points="3017,-40.8 3017,-92.8 3313,-92.8 3313,-40.8 3017,-40.8"/>
</g>
<g id="clust64" class="cluster">
<title>cluster_UsersModule_imports</title>
<polygon fill="none" stroke="black" points="2857,-40.8 2857,-92.8 3009,-92.8 3009,-40.8 2857,-40.8"/>
</g>
<!-- AppComponent -->
<g id="node1" class="node">
<title>AppComponent</title>
<polygon fill="#ffffb3" stroke="black" points="683.94,-84.8 578.06,-84.8 578.06,-48.8 683.94,-48.8 683.94,-84.8"/>
<text text-anchor="middle" x="631" y="-62.6" font-family="Times,serif" font-size="14.00">AppComponent</text>
</g>
<!-- AppModule -->
<g id="node2" class="node">
<title>AppModule</title>
<polygon fill="#8dd3c7" stroke="black" points="450.66,-149.8 447.66,-153.8 426.66,-153.8 423.66,-149.8 367.34,-149.8 367.34,-113.8 450.66,-113.8 450.66,-149.8"/>
<text text-anchor="middle" x="409" y="-127.6" font-family="Times,serif" font-size="14.00">AppModule</text>
</g>
<!-- AppComponent&#45;&gt;AppModule -->
<g id="edge1" class="edge">
<title>AppComponent&#45;&gt;AppModule</title>
<path fill="none" stroke="black" d="M631,-85.09C631,-107.01 631,-140.8 631,-140.8 631,-140.8 460.76,-140.8 460.76,-140.8"/>
<polygon fill="black" stroke="black" points="460.76,-137.3 450.76,-140.8 460.76,-144.3 460.76,-137.3"/>
</g>
<!-- AppComponent  -->
<g id="node4" class="node">
<title>AppComponent </title>
<polygon fill="#80b1d3" stroke="black" points="463.44,-214.8 354.56,-214.8 354.56,-178.8 463.44,-178.8 463.44,-214.8"/>
<text text-anchor="middle" x="409" y="-192.6" font-family="Times,serif" font-size="14.00">AppComponent </text>
</g>
<!-- AppModule&#45;&gt;AppComponent  -->
<g id="edge3" class="edge">
<title>AppModule&#45;&gt;AppComponent </title>
<path fill="none" stroke="black" stroke-dasharray="1,5" d="M409,-149.91C409,-149.91 409,-168.79 409,-168.79"/>
<polygon fill="black" stroke="black" points="405.5,-168.79 409,-178.79 412.5,-168.79 405.5,-168.79"/>
</g>
<!-- AppRoutingModule -->
<g id="node3" class="node">
<title>AppRoutingModule</title>
<polygon fill="#8dd3c7" stroke="black" points="554.27,-84.8 551.27,-88.8 530.27,-88.8 527.27,-84.8 425.73,-84.8 425.73,-48.8 554.27,-48.8 554.27,-84.8"/>
<text text-anchor="middle" x="490" y="-62.6" font-family="Times,serif" font-size="14.00">AppRoutingModule</text>
</g>
<!-- AppRoutingModule&#45;&gt;AppModule -->
<g id="edge2" class="edge">
<title>AppRoutingModule&#45;&gt;AppModule</title>
<path fill="none" stroke="black" d="M438.22,-84.91C438.22,-84.91 438.22,-103.79 438.22,-103.79"/>
<polygon fill="black" stroke="black" points="434.72,-103.79 438.22,-113.79 441.72,-103.79 434.72,-103.79"/>
</g>
<!-- ErrorInterceptor -->
<g id="node5" class="node">
<title>ErrorInterceptor</title>
<ellipse fill="#fdb462" stroke="black" cx="328" cy="-66.8" rx="73.53" ry="18"/>
<text text-anchor="middle" x="328" y="-62.6" font-family="Times,serif" font-size="14.00">ErrorInterceptor</text>
</g>
<!-- ErrorInterceptor&#45;&gt;AppModule -->
<g id="edge4" class="edge">
<title>ErrorInterceptor&#45;&gt;AppModule</title>
<path fill="none" stroke="black" d="M384.47,-78.42C384.47,-78.42 384.47,-103.65 384.47,-103.65"/>
<polygon fill="black" stroke="black" points="380.97,-103.65 384.47,-113.65 387.97,-103.65 380.97,-103.65"/>
</g>
<!-- TokenIntercepterService -->
<g id="node6" class="node">
<title>TokenIntercepterService</title>
<ellipse fill="#fdb462" stroke="black" cx="130" cy="-66.8" rx="106.46" ry="18"/>
<text text-anchor="middle" x="130" y="-62.6" font-family="Times,serif" font-size="14.00">TokenIntercepterService</text>
</g>
<!-- TokenIntercepterService&#45;&gt;AppModule -->
<g id="edge5" class="edge">
<title>TokenIntercepterService&#45;&gt;AppModule</title>
<path fill="none" stroke="black" d="M130,-84.91C130,-104.14 130,-131.8 130,-131.8 130,-131.8 357.23,-131.8 357.23,-131.8"/>
<polygon fill="black" stroke="black" points="357.23,-135.3 367.23,-131.8 357.23,-128.3 357.23,-135.3"/>
</g>
<!-- ConfirmPasswordComponent -->
<g id="node7" class="node">
<title>ConfirmPasswordComponent</title>
<polygon fill="#ffffb3" stroke="black" points="1726.43,-84.8 1543.57,-84.8 1543.57,-48.8 1726.43,-48.8 1726.43,-84.8"/>
<text text-anchor="middle" x="1635" y="-62.6" font-family="Times,serif" font-size="14.00">ConfirmPasswordComponent</text>
</g>
<!-- AuthenticationModule -->
<g id="node12" class="node">
<title>AuthenticationModule</title>
<polygon fill="#8dd3c7" stroke="black" points="1311.25,-149.8 1308.25,-153.8 1287.25,-153.8 1284.25,-149.8 1168.75,-149.8 1168.75,-113.8 1311.25,-113.8 1311.25,-149.8"/>
<text text-anchor="middle" x="1240" y="-127.6" font-family="Times,serif" font-size="14.00">AuthenticationModule</text>
</g>
<!-- ConfirmPasswordComponent&#45;&gt;AuthenticationModule -->
<g id="edge6" class="edge">
<title>ConfirmPasswordComponent&#45;&gt;AuthenticationModule</title>
<path fill="none" stroke="black" d="M1635,-85.08C1635,-106.12 1635,-137.8 1635,-137.8 1635,-137.8 1321.53,-137.8 1321.53,-137.8"/>
<polygon fill="black" stroke="black" points="1321.53,-134.3 1311.53,-137.8 1321.53,-141.3 1321.53,-134.3"/>
</g>
<!-- LoginComponent -->
<g id="node8" class="node">
<title>LoginComponent</title>
<polygon fill="#ffffb3" stroke="black" points="1525.28,-84.8 1410.72,-84.8 1410.72,-48.8 1525.28,-48.8 1525.28,-84.8"/>
<text text-anchor="middle" x="1468" y="-62.6" font-family="Times,serif" font-size="14.00">LoginComponent</text>
</g>
<!-- LoginComponent&#45;&gt;AuthenticationModule -->
<g id="edge7" class="edge">
<title>LoginComponent&#45;&gt;AuthenticationModule</title>
<path fill="none" stroke="black" d="M1468,-84.82C1468,-102.17 1468,-125.8 1468,-125.8 1468,-125.8 1321.52,-125.8 1321.52,-125.8"/>
<polygon fill="black" stroke="black" points="1321.52,-122.3 1311.52,-125.8 1321.52,-129.3 1321.52,-122.3"/>
</g>
<!-- LoginPageComponent -->
<g id="node9" class="node">
<title>LoginPageComponent</title>
<polygon fill="#ffffb3" stroke="black" points="1392.99,-84.8 1251.01,-84.8 1251.01,-48.8 1392.99,-48.8 1392.99,-84.8"/>
<text text-anchor="middle" x="1322" y="-62.6" font-family="Times,serif" font-size="14.00">LoginPageComponent</text>
</g>
<!-- LoginPageComponent&#45;&gt;AuthenticationModule -->
<g id="edge8" class="edge">
<title>LoginPageComponent&#45;&gt;AuthenticationModule</title>
<path fill="none" stroke="black" d="M1281.19,-84.91C1281.19,-84.91 1281.19,-103.79 1281.19,-103.79"/>
<polygon fill="black" stroke="black" points="1277.69,-103.79 1281.19,-113.79 1284.69,-103.79 1277.69,-103.79"/>
</g>
<!-- ResetPhoneComponent -->
<g id="node10" class="node">
<title>ResetPhoneComponent</title>
<polygon fill="#ffffb3" stroke="black" points="1232.93,-84.8 1085.07,-84.8 1085.07,-48.8 1232.93,-48.8 1232.93,-84.8"/>
<text text-anchor="middle" x="1159" y="-62.6" font-family="Times,serif" font-size="14.00">ResetPhoneComponent</text>
</g>
<!-- ResetPhoneComponent&#45;&gt;AuthenticationModule -->
<g id="edge9" class="edge">
<title>ResetPhoneComponent&#45;&gt;AuthenticationModule</title>
<path fill="none" stroke="black" d="M1200.67,-84.91C1200.67,-84.91 1200.67,-103.79 1200.67,-103.79"/>
<polygon fill="black" stroke="black" points="1197.17,-103.79 1200.67,-113.79 1204.17,-103.79 1197.17,-103.79"/>
</g>
<!-- ResetPinComponent -->
<g id="node11" class="node">
<title>ResetPinComponent</title>
<polygon fill="#ffffb3" stroke="black" points="1067.61,-84.8 936.39,-84.8 936.39,-48.8 1067.61,-48.8 1067.61,-84.8"/>
<text text-anchor="middle" x="1002" y="-62.6" font-family="Times,serif" font-size="14.00">ResetPinComponent</text>
</g>
<!-- ResetPinComponent&#45;&gt;AuthenticationModule -->
<g id="edge10" class="edge">
<title>ResetPinComponent&#45;&gt;AuthenticationModule</title>
<path fill="none" stroke="black" d="M1002,-84.83C1002,-101.2 1002,-122.8 1002,-122.8 1002,-122.8 1158.59,-122.8 1158.59,-122.8"/>
<polygon fill="black" stroke="black" points="1158.59,-126.3 1168.59,-122.8 1158.59,-119.3 1158.59,-126.3"/>
</g>
<!-- AuthenticationRoutingModule -->
<g id="node13" class="node">
<title>AuthenticationRoutingModule</title>
<polygon fill="#8dd3c7" stroke="black" points="911.87,-84.8 908.87,-88.8 887.87,-88.8 884.87,-84.8 724.13,-84.8 724.13,-48.8 911.87,-48.8 911.87,-84.8"/>
<text text-anchor="middle" x="818" y="-62.6" font-family="Times,serif" font-size="14.00">AuthenticationRoutingModule</text>
</g>
<!-- AuthenticationRoutingModule&#45;&gt;AuthenticationModule -->
<g id="edge11" class="edge">
<title>AuthenticationRoutingModule&#45;&gt;AuthenticationModule</title>
<path fill="none" stroke="black" d="M818,-84.91C818,-104.14 818,-131.8 818,-131.8 818,-131.8 1158.41,-131.8 1158.41,-131.8"/>
<polygon fill="black" stroke="black" points="1158.41,-135.3 1168.41,-131.8 1158.41,-128.3 1158.41,-135.3"/>
</g>
<!-- DashboardRoutingModule -->
<g id="node14" class="node">
<title>DashboardRoutingModule</title>
<polygon fill="#8dd3c7" stroke="black" points="1931.81,-84.8 1928.81,-88.8 1907.81,-88.8 1904.81,-84.8 1766.19,-84.8 1766.19,-48.8 1931.81,-48.8 1931.81,-84.8"/>
<text text-anchor="middle" x="1849" y="-62.6" font-family="Times,serif" font-size="14.00">DashboardRoutingModule</text>
</g>
<!-- DashboardModule -->
<g id="node15" class="node">
<title>DashboardModule</title>
<polygon fill="#8dd3c7" stroke="black" points="1909.19,-149.8 1906.19,-153.8 1885.19,-153.8 1882.19,-149.8 1788.81,-149.8 1788.81,-113.8 1909.19,-113.8 1909.19,-149.8"/>
<text text-anchor="middle" x="1849" y="-127.6" font-family="Times,serif" font-size="14.00">DashboardModule</text>
</g>
<!-- DashboardRoutingModule&#45;&gt;DashboardModule -->
<g id="edge12" class="edge">
<title>DashboardRoutingModule&#45;&gt;DashboardModule</title>
<path fill="none" stroke="black" d="M1849,-84.91C1849,-84.91 1849,-103.79 1849,-103.79"/>
<polygon fill="black" stroke="black" points="1845.5,-103.79 1849,-113.79 1852.5,-103.79 1845.5,-103.79"/>
</g>
<!-- DeviceComponent -->
<g id="node16" class="node">
<title>DeviceComponent</title>
<polygon fill="#ffffb3" stroke="black" points="2825.47,-84.8 2704.53,-84.8 2704.53,-48.8 2825.47,-48.8 2825.47,-84.8"/>
<text text-anchor="middle" x="2765" y="-62.6" font-family="Times,serif" font-size="14.00">DeviceComponent</text>
</g>
<!-- HomeModule -->
<g id="node21" class="node">
<title>HomeModule</title>
<polygon fill="#8dd3c7" stroke="black" points="2465.76,-149.8 2462.76,-153.8 2441.76,-153.8 2438.76,-149.8 2372.24,-149.8 2372.24,-113.8 2465.76,-113.8 2465.76,-149.8"/>
<text text-anchor="middle" x="2419" y="-127.6" font-family="Times,serif" font-size="14.00">HomeModule</text>
</g>
<!-- DeviceComponent&#45;&gt;HomeModule -->
<g id="edge13" class="edge">
<title>DeviceComponent&#45;&gt;HomeModule</title>
<path fill="none" stroke="black" d="M2765,-84.91C2765,-104.14 2765,-131.8 2765,-131.8 2765,-131.8 2476.02,-131.8 2476.02,-131.8"/>
<polygon fill="black" stroke="black" points="2476.02,-128.3 2466.02,-131.8 2476.02,-135.3 2476.02,-128.3"/>
</g>
<!-- FooterComponent -->
<g id="node17" class="node">
<title>FooterComponent</title>
<polygon fill="#ffffb3" stroke="black" points="2686.88,-84.8 2569.12,-84.8 2569.12,-48.8 2686.88,-48.8 2686.88,-84.8"/>
<text text-anchor="middle" x="2628" y="-62.6" font-family="Times,serif" font-size="14.00">FooterComponent</text>
</g>
<!-- FooterComponent&#45;&gt;HomeModule -->
<g id="edge14" class="edge">
<title>FooterComponent&#45;&gt;HomeModule</title>
<path fill="none" stroke="black" d="M2628,-84.83C2628,-101.2 2628,-122.8 2628,-122.8 2628,-122.8 2475.9,-122.8 2475.9,-122.8"/>
<polygon fill="black" stroke="black" points="2475.9,-119.3 2465.9,-122.8 2475.9,-126.3 2475.9,-119.3"/>
</g>
<!-- HomeComponent -->
<g id="node18" class="node">
<title>HomeComponent</title>
<polygon fill="#ffffb3" stroke="black" points="2550.55,-84.8 2435.45,-84.8 2435.45,-48.8 2550.55,-48.8 2550.55,-84.8"/>
<text text-anchor="middle" x="2493" y="-62.6" font-family="Times,serif" font-size="14.00">HomeComponent</text>
</g>
<!-- HomeComponent&#45;&gt;HomeModule -->
<g id="edge15" class="edge">
<title>HomeComponent&#45;&gt;HomeModule</title>
<path fill="none" stroke="black" d="M2450.55,-84.91C2450.55,-84.91 2450.55,-103.79 2450.55,-103.79"/>
<polygon fill="black" stroke="black" points="2447.05,-103.79 2450.55,-113.79 2454.05,-103.79 2447.05,-103.79"/>
</g>
<!-- HomePageComponent -->
<g id="node19" class="node">
<title>HomePageComponent</title>
<polygon fill="#ffffb3" stroke="black" points="2417.26,-84.8 2274.74,-84.8 2274.74,-48.8 2417.26,-48.8 2417.26,-84.8"/>
<text text-anchor="middle" x="2346" y="-62.6" font-family="Times,serif" font-size="14.00">HomePageComponent</text>
</g>
<!-- HomePageComponent&#45;&gt;HomeModule -->
<g id="edge16" class="edge">
<title>HomePageComponent&#45;&gt;HomeModule</title>
<path fill="none" stroke="black" d="M2394.75,-84.91C2394.75,-84.91 2394.75,-103.79 2394.75,-103.79"/>
<polygon fill="black" stroke="black" points="2391.25,-103.79 2394.75,-113.79 2398.25,-103.79 2391.25,-103.79"/>
</g>
<!-- NavbarComponent -->
<g id="node20" class="node">
<title>NavbarComponent</title>
<polygon fill="#ffffb3" stroke="black" points="2256.03,-84.8 2133.97,-84.8 2133.97,-48.8 2256.03,-48.8 2256.03,-84.8"/>
<text text-anchor="middle" x="2195" y="-62.6" font-family="Times,serif" font-size="14.00">NavbarComponent</text>
</g>
<!-- NavbarComponent&#45;&gt;HomeModule -->
<g id="edge17" class="edge">
<title>NavbarComponent&#45;&gt;HomeModule</title>
<path fill="none" stroke="black" d="M2195,-84.82C2195,-102.17 2195,-125.8 2195,-125.8 2195,-125.8 2362.04,-125.8 2362.04,-125.8"/>
<polygon fill="black" stroke="black" points="2362.04,-129.3 2372.04,-125.8 2362.04,-122.3 2362.04,-129.3"/>
</g>
<!-- HomeRoutingModule -->
<g id="node22" class="node">
<title>HomeRoutingModule</title>
<polygon fill="#8dd3c7" stroke="black" points="2110.38,-84.8 2107.38,-88.8 2086.38,-88.8 2083.38,-84.8 1971.62,-84.8 1971.62,-48.8 2110.38,-48.8 2110.38,-84.8"/>
<text text-anchor="middle" x="2041" y="-62.6" font-family="Times,serif" font-size="14.00">HomeRoutingModule</text>
</g>
<!-- HomeRoutingModule&#45;&gt;HomeModule -->
<g id="edge18" class="edge">
<title>HomeRoutingModule&#45;&gt;HomeModule</title>
<path fill="none" stroke="black" d="M2041,-85.08C2041,-106.12 2041,-137.8 2041,-137.8 2041,-137.8 2361.89,-137.8 2361.89,-137.8"/>
<polygon fill="black" stroke="black" points="2361.89,-141.3 2371.89,-137.8 2361.89,-134.3 2361.89,-141.3"/>
</g>
<!-- EditProfileComponent -->
<g id="node23" class="node">
<title>EditProfileComponent</title>
<polygon fill="#ffffb3" stroke="black" points="3305.27,-84.8 3162.73,-84.8 3162.73,-48.8 3305.27,-48.8 3305.27,-84.8"/>
<text text-anchor="middle" x="3234" y="-62.6" font-family="Times,serif" font-size="14.00">EditProfileComponent</text>
</g>
<!-- UsersModule -->
<g id="node25" class="node">
<title>UsersModule</title>
<polygon fill="#8dd3c7" stroke="black" points="3130.92,-149.8 3127.92,-153.8 3106.92,-153.8 3103.92,-149.8 3039.08,-149.8 3039.08,-113.8 3130.92,-113.8 3130.92,-149.8"/>
<text text-anchor="middle" x="3085" y="-127.6" font-family="Times,serif" font-size="14.00">UsersModule</text>
</g>
<!-- EditProfileComponent&#45;&gt;UsersModule -->
<g id="edge19" class="edge">
<title>EditProfileComponent&#45;&gt;UsersModule</title>
<path fill="none" stroke="black" d="M3234,-84.91C3234,-104.14 3234,-131.8 3234,-131.8 3234,-131.8 3140.92,-131.8 3140.92,-131.8"/>
<polygon fill="black" stroke="black" points="3140.92,-128.3 3130.92,-131.8 3140.92,-135.3 3140.92,-128.3"/>
</g>
<!-- ProfileComponent -->
<g id="node24" class="node">
<title>ProfileComponent</title>
<polygon fill="#ffffb3" stroke="black" points="3144.93,-84.8 3025.07,-84.8 3025.07,-48.8 3144.93,-48.8 3144.93,-84.8"/>
<text text-anchor="middle" x="3085" y="-62.6" font-family="Times,serif" font-size="14.00">ProfileComponent</text>
</g>
<!-- ProfileComponent&#45;&gt;UsersModule -->
<g id="edge20" class="edge">
<title>ProfileComponent&#45;&gt;UsersModule</title>
<path fill="none" stroke="black" d="M3085,-84.91C3085,-84.91 3085,-103.79 3085,-103.79"/>
<polygon fill="black" stroke="black" points="3081.5,-103.79 3085,-113.79 3088.5,-103.79 3081.5,-103.79"/>
</g>
<!-- UsersRoutingModule -->
<g id="node26" class="node">
<title>UsersRoutingModule</title>
<polygon fill="#8dd3c7" stroke="black" points="3001.04,-84.8 2998.04,-88.8 2977.04,-88.8 2974.04,-84.8 2864.96,-84.8 2864.96,-48.8 3001.04,-48.8 3001.04,-84.8"/>
<text text-anchor="middle" x="2933" y="-62.6" font-family="Times,serif" font-size="14.00">UsersRoutingModule</text>
</g>
<!-- UsersRoutingModule&#45;&gt;UsersModule -->
<g id="edge21" class="edge">
<title>UsersRoutingModule&#45;&gt;UsersModule</title>
<path fill="none" stroke="black" d="M2933,-85.09C2933,-107.01 2933,-140.8 2933,-140.8 2933,-140.8 3028.98,-140.8 3028.98,-140.8"/>
<polygon fill="black" stroke="black" points="3028.98,-144.3 3038.98,-140.8 3028.98,-137.3 3028.98,-144.3"/>
</g>
</g>
</svg>
