<?xml version="1.0" encoding="UTF-8" standalone="no"?>
<!DOCTYPE svg PUBLIC "-//W3C//DTD SVG 1.1//EN"
 "http://www.w3.org/Graphics/SVG/1.1/DTD/svg11.dtd">
<!-- Generated by graphviz version 2.47.3 (20210619.1520)
 -->
<!-- Title: dependencies Pages: 1 -->
<svg width="5045pt" height="247pt"
 viewBox="0.00 0.00 5045.00 246.80" xmlns="http://www.w3.org/2000/svg" xmlns:xlink="http://www.w3.org/1999/xlink">
<g id="graph0" class="graph" transform="scale(1 1) rotate(0) translate(4 242.8)">
<title>dependencies</title>
<polygon fill="white" stroke="transparent" points="-4,4 -4,-242.8 5041,-242.8 5041,4 -4,4"/>
<text text-anchor="middle" x="2518.5" y="-8.2" font-family="sans-serif" font-size="14.00">dependencies</text>
<g id="clust1" class="cluster">
<title>cluster_AppModule</title>
<polygon fill="none" stroke="black" stroke-dasharray="1,5" points="8,-32.8 8,-230.8 534,-230.8 534,-32.8 8,-32.8"/>
</g>
<g id="clust2" class="cluster">
<title>cluster_AppModule_declarations</title>
<polygon fill="none" stroke="black" points="404,-40.8 404,-92.8 526,-92.8 526,-40.8 404,-40.8"/>
</g>
<g id="clust4" class="cluster">
<title>cluster_AppModule_imports</title>
<polygon fill="none" stroke="black" points="252,-40.8 252,-92.8 396,-92.8 396,-40.8 252,-40.8"/>
</g>
<g id="clust6" class="cluster">
<title>cluster_AppModule_bootstrap</title>
<polygon fill="none" stroke="black" points="262,-170.8 262,-222.8 386,-222.8 386,-170.8 262,-170.8"/>
</g>
<g id="clust7" class="cluster">
<title>cluster_AppModule_providers</title>
<polygon fill="none" stroke="black" points="16,-40.8 16,-92.8 244,-92.8 244,-40.8 16,-40.8"/>
</g>
<g id="clust14" class="cluster">
<title>cluster_AuthenticationModule</title>
<polygon fill="none" stroke="black" stroke-dasharray="1,5" points="542,-32.8 542,-157.8 1730,-157.8 1730,-32.8 542,-32.8"/>
</g>
<g id="clust15" class="cluster">
<title>cluster_AuthenticationModule_declarations</title>
<polygon fill="none" stroke="black" points="762,-40.8 762,-92.8 1722,-92.8 1722,-40.8 762,-40.8"/>
</g>
<g id="clust22" class="cluster">
<title>cluster_AuthenticationModule_imports</title>
<polygon fill="none" stroke="black" points="550,-40.8 550,-92.8 754,-92.8 754,-40.8 550,-40.8"/>
</g>
<g id="clust32" class="cluster">
<title>cluster_DashboardModule</title>
<polygon fill="none" stroke="black" stroke-dasharray="1,5" points="1738,-32.8 1738,-157.8 2437,-157.8 2437,-32.8 1738,-32.8"/>
</g>
<g id="clust33" class="cluster">
<title>cluster_DashboardModule_declarations</title>
<polygon fill="none" stroke="black" points="1936,-40.8 1936,-92.8 2429,-92.8 2429,-40.8 1936,-40.8"/>
</g>
<g id="clust34" class="cluster">
<title>cluster_DashboardModule_imports</title>
<polygon fill="none" stroke="black" points="1746,-40.8 1746,-92.8 1928,-92.8 1928,-40.8 1746,-40.8"/>
</g>
<g id="clust47" class="cluster">
<title>cluster_HomeModule</title>
<polygon fill="none" stroke="black" stroke-dasharray="1,5" points="2445,-32.8 2445,-157.8 3420,-157.8 3420,-32.8 2445,-32.8"/>
</g>
<g id="clust48" class="cluster">
<title>cluster_HomeModule_declarations</title>
<polygon fill="none" stroke="black" points="2615,-40.8 2615,-92.8 3412,-92.8 3412,-40.8 2615,-40.8"/>
</g>
<g id="clust55" class="cluster">
<title>cluster_HomeModule_imports</title>
<polygon fill="none" stroke="black" points="2453,-40.8 2453,-92.8 2607,-92.8 2607,-40.8 2453,-40.8"/>
</g>
<g id="clust65" class="cluster">
<title>cluster_ManagementModule</title>
<polygon fill="none" stroke="black" stroke-dasharray="1,5" points="3428,-32.8 3428,-157.8 3638,-157.8 3638,-32.8 3428,-32.8"/>
</g>
<g id="clust67" class="cluster">
<title>cluster_ManagementModule_imports</title>
<polygon fill="none" stroke="black" points="3436,-40.8 3436,-92.8 3630,-92.8 3630,-40.8 3436,-40.8"/>
</g>
<g id="clust77" class="cluster">
<title>cluster_UsersModule</title>
<polygon fill="none" stroke="black" stroke-dasharray="1,5" points="3646,-32.8 3646,-157.8 5029,-157.8 5029,-32.8 3646,-32.8"/>
</g>
<g id="clust78" class="cluster">
<title>cluster_UsersModule_declarations</title>
<polygon fill="none" stroke="black" points="3814,-40.8 3814,-92.8 5021,-92.8 5021,-40.8 3814,-40.8"/>
</g>
<g id="clust87" class="cluster">
<title>cluster_UsersModule_imports</title>
<polygon fill="none" stroke="black" points="3654,-40.8 3654,-92.8 3806,-92.8 3806,-40.8 3654,-40.8"/>
</g>
<!-- AppComponent -->
<g id="node1" class="node">
<title>AppComponent</title>
<polygon fill="#ffffb3" stroke="black" points="517.94,-84.8 412.06,-84.8 412.06,-48.8 517.94,-48.8 517.94,-84.8"/>
<text text-anchor="middle" x="465" y="-62.6" font-family="Times,serif" font-size="14.00">AppComponent</text>
</g>
<!-- AppModule -->
<g id="node2" class="node">
<title>AppModule</title>
<polygon fill="#8dd3c7" stroke="black" points="365.66,-149.8 362.66,-153.8 341.66,-153.8 338.66,-149.8 282.34,-149.8 282.34,-113.8 365.66,-113.8 365.66,-149.8"/>
<text text-anchor="middle" x="324" y="-127.6" font-family="Times,serif" font-size="14.00">AppModule</text>
</g>
<!-- AppComponent&#45;&gt;AppModule -->
<g id="edge1" class="edge">
<title>AppComponent&#45;&gt;AppModule</title>
<path fill="none" stroke="black" d="M465,-84.81C465,-107.29 465,-142.8 465,-142.8 465,-142.8 375.92,-142.8 375.92,-142.8"/>
<polygon fill="black" stroke="black" points="375.92,-139.3 365.92,-142.8 375.92,-146.3 375.92,-139.3"/>
</g>
<!-- AppComponent  -->
<g id="node4" class="node">
<title>AppComponent </title>
<polygon fill="#80b1d3" stroke="black" points="378.44,-214.8 269.56,-214.8 269.56,-178.8 378.44,-178.8 378.44,-214.8"/>
<text text-anchor="middle" x="324" y="-192.6" font-family="Times,serif" font-size="14.00">AppComponent </text>
</g>
<!-- AppModule&#45;&gt;AppComponent  -->
<g id="edge3" class="edge">
<title>AppModule&#45;&gt;AppComponent </title>
<path fill="none" stroke="black" stroke-dasharray="1,5" d="M324,-149.91C324,-149.91 324,-168.79 324,-168.79"/>
<polygon fill="black" stroke="black" points="320.5,-168.79 324,-178.79 327.5,-168.79 320.5,-168.79"/>
</g>
<!-- AppRoutingModule -->
<g id="node3" class="node">
<title>AppRoutingModule</title>
<polygon fill="#8dd3c7" stroke="black" points="388.27,-84.8 385.27,-88.8 364.27,-88.8 361.27,-84.8 259.73,-84.8 259.73,-48.8 388.27,-48.8 388.27,-84.8"/>
<text text-anchor="middle" x="324" y="-62.6" font-family="Times,serif" font-size="14.00">AppRoutingModule</text>
</g>
<!-- AppRoutingModule&#45;&gt;AppModule -->
<g id="edge2" class="edge">
<title>AppRoutingModule&#45;&gt;AppModule</title>
<path fill="none" stroke="black" d="M324,-84.91C324,-84.91 324,-103.79 324,-103.79"/>
<polygon fill="black" stroke="black" points="320.5,-103.79 324,-113.79 327.5,-103.79 320.5,-103.79"/>
</g>
<!-- TokenIntercepterService -->
<g id="node5" class="node">
<title>TokenIntercepterService</title>
<ellipse fill="#fdb462" stroke="black" cx="130" cy="-66.8" rx="106.46" ry="18"/>
<text text-anchor="middle" x="130" y="-62.6" font-family="Times,serif" font-size="14.00">TokenIntercepterService</text>
</g>
<!-- TokenIntercepterService&#45;&gt;AppModule -->
<g id="edge4" class="edge">
<title>TokenIntercepterService&#45;&gt;AppModule</title>
<path fill="none" stroke="black" d="M130,-84.91C130,-104.14 130,-131.8 130,-131.8 130,-131.8 271.9,-131.8 271.9,-131.8"/>
<polygon fill="black" stroke="black" points="271.9,-135.3 281.9,-131.8 271.9,-128.3 271.9,-135.3"/>
</g>
<!-- AuthCardComponent -->
<g id="node6" class="node">
<title>AuthCardComponent</title>
<polygon fill="#ffffb3" stroke="black" points="1714.04,-84.8 1577.96,-84.8 1577.96,-48.8 1714.04,-48.8 1714.04,-84.8"/>
<text text-anchor="middle" x="1646" y="-62.6" font-family="Times,serif" font-size="14.00">AuthCardComponent</text>
</g>
<!-- AuthenticationModule -->
<g id="node12" class="node">
<title>AuthenticationModule</title>
<polygon fill="#8dd3c7" stroke="black" points="1227.25,-149.8 1224.25,-153.8 1203.25,-153.8 1200.25,-149.8 1084.75,-149.8 1084.75,-113.8 1227.25,-113.8 1227.25,-149.8"/>
<text text-anchor="middle" x="1156" y="-127.6" font-family="Times,serif" font-size="14.00">AuthenticationModule</text>
</g>
<!-- AuthCardComponent&#45;&gt;AuthenticationModule -->
<g id="edge5" class="edge">
<title>AuthCardComponent&#45;&gt;AuthenticationModule</title>
<path fill="none" stroke="black" d="M1646,-85.05C1646,-107.82 1646,-143.8 1646,-143.8 1646,-143.8 1237.51,-143.8 1237.51,-143.8"/>
<polygon fill="black" stroke="black" points="1237.51,-140.3 1227.51,-143.8 1237.51,-147.3 1237.51,-140.3"/>
</g>
<!-- ConfirmPasswordComponent -->
<g id="node7" class="node">
<title>ConfirmPasswordComponent</title>
<polygon fill="#ffffb3" stroke="black" points="1560.43,-84.8 1377.57,-84.8 1377.57,-48.8 1560.43,-48.8 1560.43,-84.8"/>
<text text-anchor="middle" x="1469" y="-62.6" font-family="Times,serif" font-size="14.00">ConfirmPasswordComponent</text>
</g>
<!-- ConfirmPasswordComponent&#45;&gt;AuthenticationModule -->
<g id="edge6" class="edge">
<title>ConfirmPasswordComponent&#45;&gt;AuthenticationModule</title>
<path fill="none" stroke="black" d="M1469,-85.08C1469,-106.12 1469,-137.8 1469,-137.8 1469,-137.8 1237.42,-137.8 1237.42,-137.8"/>
<polygon fill="black" stroke="black" points="1237.42,-134.3 1227.42,-137.8 1237.42,-141.3 1237.42,-134.3"/>
</g>
<!-- LoginComponent -->
<g id="node8" class="node">
<title>LoginComponent</title>
<polygon fill="#ffffb3" stroke="black" points="1359.28,-84.8 1244.72,-84.8 1244.72,-48.8 1359.28,-48.8 1359.28,-84.8"/>
<text text-anchor="middle" x="1302" y="-62.6" font-family="Times,serif" font-size="14.00">LoginComponent</text>
</g>
<!-- LoginComponent&#45;&gt;AuthenticationModule -->
<g id="edge7" class="edge">
<title>LoginComponent&#45;&gt;AuthenticationModule</title>
<path fill="none" stroke="black" d="M1302,-84.91C1302,-104.14 1302,-131.8 1302,-131.8 1302,-131.8 1237.29,-131.8 1237.29,-131.8"/>
<polygon fill="black" stroke="black" points="1237.29,-128.3 1227.29,-131.8 1237.29,-135.3 1237.29,-128.3"/>
</g>
<!-- LoginPageComponent -->
<g id="node9" class="node">
<title>LoginPageComponent</title>
<polygon fill="#ffffb3" stroke="black" points="1226.99,-84.8 1085.01,-84.8 1085.01,-48.8 1226.99,-48.8 1226.99,-84.8"/>
<text text-anchor="middle" x="1156" y="-62.6" font-family="Times,serif" font-size="14.00">LoginPageComponent</text>
</g>
<!-- LoginPageComponent&#45;&gt;AuthenticationModule -->
<g id="edge8" class="edge">
<title>LoginPageComponent&#45;&gt;AuthenticationModule</title>
<path fill="none" stroke="black" d="M1156,-84.91C1156,-84.91 1156,-103.79 1156,-103.79"/>
<polygon fill="black" stroke="black" points="1152.5,-103.79 1156,-113.79 1159.5,-103.79 1152.5,-103.79"/>
</g>
<!-- ResetPhoneComponent -->
<g id="node10" class="node">
<title>ResetPhoneComponent</title>
<polygon fill="#ffffb3" stroke="black" points="1066.93,-84.8 919.07,-84.8 919.07,-48.8 1066.93,-48.8 1066.93,-84.8"/>
<text text-anchor="middle" x="993" y="-62.6" font-family="Times,serif" font-size="14.00">ResetPhoneComponent</text>
</g>
<!-- ResetPhoneComponent&#45;&gt;AuthenticationModule -->
<g id="edge9" class="edge">
<title>ResetPhoneComponent&#45;&gt;AuthenticationModule</title>
<path fill="none" stroke="black" d="M993,-84.81C993,-100.85 993,-121.8 993,-121.8 993,-121.8 1074.51,-121.8 1074.51,-121.8"/>
<polygon fill="black" stroke="black" points="1074.51,-125.3 1084.51,-121.8 1074.51,-118.3 1074.51,-125.3"/>
</g>
<!-- ResetPinComponent -->
<g id="node11" class="node">
<title>ResetPinComponent</title>
<polygon fill="#ffffb3" stroke="black" points="901.61,-84.8 770.39,-84.8 770.39,-48.8 901.61,-48.8 901.61,-84.8"/>
<text text-anchor="middle" x="836" y="-62.6" font-family="Times,serif" font-size="14.00">ResetPinComponent</text>
</g>
<!-- ResetPinComponent&#45;&gt;AuthenticationModule -->
<g id="edge10" class="edge">
<title>ResetPinComponent&#45;&gt;AuthenticationModule</title>
<path fill="none" stroke="black" d="M836,-85.07C836,-103.36 836,-128.8 836,-128.8 836,-128.8 1074.58,-128.8 1074.58,-128.8"/>
<polygon fill="black" stroke="black" points="1074.58,-132.3 1084.58,-128.8 1074.58,-125.3 1074.58,-132.3"/>
</g>
<!-- AuthenticationRoutingModule -->
<g id="node13" class="node">
<title>AuthenticationRoutingModule</title>
<polygon fill="#8dd3c7" stroke="black" points="745.87,-84.8 742.87,-88.8 721.87,-88.8 718.87,-84.8 558.13,-84.8 558.13,-48.8 745.87,-48.8 745.87,-84.8"/>
<text text-anchor="middle" x="652" y="-62.6" font-family="Times,serif" font-size="14.00">AuthenticationRoutingModule</text>
</g>
<!-- AuthenticationRoutingModule&#45;&gt;AuthenticationModule -->
<g id="edge11" class="edge">
<title>AuthenticationRoutingModule&#45;&gt;AuthenticationModule</title>
<path fill="none" stroke="black" d="M652,-84.93C652,-105.37 652,-135.8 652,-135.8 652,-135.8 1074.59,-135.8 1074.59,-135.8"/>
<polygon fill="black" stroke="black" points="1074.59,-139.3 1084.59,-135.8 1074.59,-132.3 1074.59,-139.3"/>
</g>
<!-- DashboardRoutingModule -->
<g id="node14" class="node">
<title>DashboardRoutingModule</title>
<polygon fill="#8dd3c7" stroke="black" points="1919.81,-84.8 1916.81,-88.8 1895.81,-88.8 1892.81,-84.8 1754.19,-84.8 1754.19,-48.8 1919.81,-48.8 1919.81,-84.8"/>
<text text-anchor="middle" x="1837" y="-62.6" font-family="Times,serif" font-size="14.00">DashboardRoutingModule</text>
</g>
<!-- DashboardModule -->
<g id="node15" class="node">
<title>DashboardModule</title>
<polygon fill="#8dd3c7" stroke="black" points="2077.19,-149.8 2074.19,-153.8 2053.19,-153.8 2050.19,-149.8 1956.81,-149.8 1956.81,-113.8 2077.19,-113.8 2077.19,-149.8"/>
<text text-anchor="middle" x="2017" y="-127.6" font-family="Times,serif" font-size="14.00">DashboardModule</text>
</g>
<!-- DashboardRoutingModule&#45;&gt;DashboardModule -->
<g id="edge12" class="edge">
<title>DashboardRoutingModule&#45;&gt;DashboardModule</title>
<path fill="none" stroke="black" d="M1809.45,-84.82C1809.45,-102.17 1809.45,-125.8 1809.45,-125.8 1809.45,-125.8 1946.69,-125.8 1946.69,-125.8"/>
<polygon fill="black" stroke="black" points="1946.69,-129.3 1956.69,-125.8 1946.69,-122.3 1946.69,-129.3"/>
</g>
<!-- DashboardRoutingModule&#45;&gt;DashboardModule -->
<g id="edge16" class="edge">
<title>DashboardRoutingModule&#45;&gt;DashboardModule</title>
<path fill="none" stroke="black" d="M1864.55,-85.04C1864.55,-100.37 1864.55,-119.8 1864.55,-119.8 1864.55,-119.8 1946.75,-119.8 1946.75,-119.8"/>
<polygon fill="black" stroke="black" points="1946.75,-123.3 1956.75,-119.8 1946.75,-116.3 1946.75,-123.3"/>
</g>
<!-- DashboardComponent -->
<g id="node16" class="node">
<title>DashboardComponent</title>
<polygon fill="#ffffb3" stroke="black" points="2420.97,-84.8 2279.03,-84.8 2279.03,-48.8 2420.97,-48.8 2420.97,-84.8"/>
<text text-anchor="middle" x="2350" y="-62.6" font-family="Times,serif" font-size="14.00">DashboardComponent</text>
</g>
<!-- DashboardComponent&#45;&gt;DashboardModule -->
<g id="edge13" class="edge">
<title>DashboardComponent&#45;&gt;DashboardModule</title>
<path fill="none" stroke="black" d="M2350,-84.82C2350,-102.17 2350,-125.8 2350,-125.8 2350,-125.8 2087.3,-125.8 2087.3,-125.8"/>
<polygon fill="black" stroke="black" points="2087.3,-122.3 2077.3,-125.8 2087.3,-129.3 2087.3,-122.3"/>
</g>
<!-- LatestOrdersComponent -->
<g id="node17" class="node">
<title>LatestOrdersComponent</title>
<polygon fill="#ffffb3" stroke="black" points="2260.63,-84.8 2107.37,-84.8 2107.37,-48.8 2260.63,-48.8 2260.63,-84.8"/>
<text text-anchor="middle" x="2184" y="-62.6" font-family="Times,serif" font-size="14.00">LatestOrdersComponent</text>
</g>
<!-- LatestOrdersComponent&#45;&gt;DashboardModule -->
<g id="edge14" class="edge">
<title>LatestOrdersComponent&#45;&gt;DashboardModule</title>
<path fill="none" stroke="black" d="M2184,-85.04C2184,-100.37 2184,-119.8 2184,-119.8 2184,-119.8 2087.29,-119.8 2087.29,-119.8"/>
<polygon fill="black" stroke="black" points="2087.29,-116.3 2077.29,-119.8 2087.29,-123.3 2087.29,-116.3"/>
</g>
<!-- SalesStatusComponent -->
<g id="node18" class="node">
<title>SalesStatusComponent</title>
<polygon fill="#ffffb3" stroke="black" points="2089.6,-84.8 1944.4,-84.8 1944.4,-48.8 2089.6,-48.8 2089.6,-84.8"/>
<text text-anchor="middle" x="2017" y="-62.6" font-family="Times,serif" font-size="14.00">SalesStatusComponent</text>
</g>
<!-- SalesStatusComponent&#45;&gt;DashboardModule -->
<g id="edge15" class="edge">
<title>SalesStatusComponent&#45;&gt;DashboardModule</title>
<path fill="none" stroke="black" d="M2017,-84.91C2017,-84.91 2017,-103.79 2017,-103.79"/>
<polygon fill="black" stroke="black" points="2013.5,-103.79 2017,-113.79 2020.5,-103.79 2013.5,-103.79"/>
</g>
<!-- DeviceComponent -->
<g id="node19" class="node">
<title>DeviceComponent</title>
<polygon fill="#ffffb3" stroke="black" points="3404.47,-84.8 3283.53,-84.8 3283.53,-48.8 3404.47,-48.8 3404.47,-84.8"/>
<text text-anchor="middle" x="3344" y="-62.6" font-family="Times,serif" font-size="14.00">DeviceComponent</text>
</g>
<!-- HomeModule -->
<g id="node25" class="node">
<title>HomeModule</title>
<polygon fill="#8dd3c7" stroke="black" points="3028.76,-149.8 3025.76,-153.8 3004.76,-153.8 3001.76,-149.8 2935.24,-149.8 2935.24,-113.8 3028.76,-113.8 3028.76,-149.8"/>
<text text-anchor="middle" x="2982" y="-127.6" font-family="Times,serif" font-size="14.00">HomeModule</text>
</g>
<!-- DeviceComponent&#45;&gt;HomeModule -->
<g id="edge17" class="edge">
<title>DeviceComponent&#45;&gt;HomeModule</title>
<path fill="none" stroke="black" d="M3344,-85.09C3344,-107.01 3344,-140.8 3344,-140.8 3344,-140.8 3038.95,-140.8 3038.95,-140.8"/>
<polygon fill="black" stroke="black" points="3038.95,-137.3 3028.95,-140.8 3038.95,-144.3 3038.95,-137.3"/>
</g>
<!-- FilterPipe -->
<g id="node20" class="node">
<title>FilterPipe</title>
<polygon fill="#ffffb3" stroke="black" points="3265.72,-84.8 3194.28,-84.8 3194.28,-48.8 3265.72,-48.8 3265.72,-84.8"/>
<text text-anchor="middle" x="3230" y="-62.6" font-family="Times,serif" font-size="14.00">FilterPipe</text>
</g>
<!-- FilterPipe&#45;&gt;HomeModule -->
<g id="edge18" class="edge">
<title>FilterPipe&#45;&gt;HomeModule</title>
<path fill="none" stroke="black" d="M3230,-84.91C3230,-104.14 3230,-131.8 3230,-131.8 3230,-131.8 3038.94,-131.8 3038.94,-131.8"/>
<polygon fill="black" stroke="black" points="3038.94,-128.3 3028.94,-131.8 3038.94,-135.3 3038.94,-128.3"/>
</g>
<!-- FooterComponent -->
<g id="node21" class="node">
<title>FooterComponent</title>
<polygon fill="#ffffb3" stroke="black" points="3175.88,-84.8 3058.12,-84.8 3058.12,-48.8 3175.88,-48.8 3175.88,-84.8"/>
<text text-anchor="middle" x="3117" y="-62.6" font-family="Times,serif" font-size="14.00">FooterComponent</text>
</g>
<!-- FooterComponent&#45;&gt;HomeModule -->
<g id="edge19" class="edge">
<title>FooterComponent&#45;&gt;HomeModule</title>
<path fill="none" stroke="black" d="M3117,-84.83C3117,-101.2 3117,-122.8 3117,-122.8 3117,-122.8 3038.84,-122.8 3038.84,-122.8"/>
<polygon fill="black" stroke="black" points="3038.84,-119.3 3028.84,-122.8 3038.84,-126.3 3038.84,-119.3"/>
</g>
<!-- HomeComponent -->
<g id="node22" class="node">
<title>HomeComponent</title>
<polygon fill="#ffffb3" stroke="black" points="3039.55,-84.8 2924.45,-84.8 2924.45,-48.8 3039.55,-48.8 3039.55,-84.8"/>
<text text-anchor="middle" x="2982" y="-62.6" font-family="Times,serif" font-size="14.00">HomeComponent</text>
</g>
<!-- HomeComponent&#45;&gt;HomeModule -->
<g id="edge20" class="edge">
<title>HomeComponent&#45;&gt;HomeModule</title>
<path fill="none" stroke="black" d="M2982,-84.91C2982,-84.91 2982,-103.79 2982,-103.79"/>
<polygon fill="black" stroke="black" points="2978.5,-103.79 2982,-113.79 2985.5,-103.79 2978.5,-103.79"/>
</g>
<!-- HomePageComponent -->
<g id="node23" class="node">
<title>HomePageComponent</title>
<polygon fill="#ffffb3" stroke="black" points="2906.26,-84.8 2763.74,-84.8 2763.74,-48.8 2906.26,-48.8 2906.26,-84.8"/>
<text text-anchor="middle" x="2835" y="-62.6" font-family="Times,serif" font-size="14.00">HomePageComponent</text>
</g>
<!-- HomePageComponent&#45;&gt;HomeModule -->
<g id="edge21" class="edge">
<title>HomePageComponent&#45;&gt;HomeModule</title>
<path fill="none" stroke="black" d="M2835,-84.91C2835,-104.14 2835,-131.8 2835,-131.8 2835,-131.8 2925.08,-131.8 2925.08,-131.8"/>
<polygon fill="black" stroke="black" points="2925.08,-135.3 2935.08,-131.8 2925.08,-128.3 2925.08,-135.3"/>
</g>
<!-- NavbarComponent -->
<g id="node24" class="node">
<title>NavbarComponent</title>
<polygon fill="#ffffb3" stroke="black" points="2745.03,-84.8 2622.97,-84.8 2622.97,-48.8 2745.03,-48.8 2745.03,-84.8"/>
<text text-anchor="middle" x="2684" y="-62.6" font-family="Times,serif" font-size="14.00">NavbarComponent</text>
</g>
<!-- NavbarComponent&#45;&gt;HomeModule -->
<g id="edge22" class="edge">
<title>NavbarComponent&#45;&gt;HomeModule</title>
<path fill="none" stroke="black" d="M2684,-85.08C2684,-106.12 2684,-137.8 2684,-137.8 2684,-137.8 2925.11,-137.8 2925.11,-137.8"/>
<polygon fill="black" stroke="black" points="2925.11,-141.3 2935.11,-137.8 2925.11,-134.3 2925.11,-141.3"/>
</g>
<!-- HomeRoutingModule -->
<g id="node26" class="node">
<title>HomeRoutingModule</title>
<polygon fill="#8dd3c7" stroke="black" points="2599.38,-84.8 2596.38,-88.8 2575.38,-88.8 2572.38,-84.8 2460.62,-84.8 2460.62,-48.8 2599.38,-48.8 2599.38,-84.8"/>
<text text-anchor="middle" x="2530" y="-62.6" font-family="Times,serif" font-size="14.00">HomeRoutingModule</text>
</g>
<!-- HomeRoutingModule&#45;&gt;HomeModule -->
<g id="edge23" class="edge">
<title>HomeRoutingModule&#45;&gt;HomeModule</title>
<path fill="none" stroke="black" d="M2530,-85.05C2530,-107.82 2530,-143.8 2530,-143.8 2530,-143.8 2924.91,-143.8 2924.91,-143.8"/>
<polygon fill="black" stroke="black" points="2924.91,-147.3 2934.91,-143.8 2924.91,-140.3 2924.91,-147.3"/>
</g>
<!-- ManagementRoutingModule -->
<g id="node27" class="node">
<title>ManagementRoutingModule</title>
<polygon fill="#8dd3c7" stroke="black" points="3621.75,-84.8 3618.75,-88.8 3597.75,-88.8 3594.75,-84.8 3444.25,-84.8 3444.25,-48.8 3621.75,-48.8 3621.75,-84.8"/>
<text text-anchor="middle" x="3533" y="-62.6" font-family="Times,serif" font-size="14.00">ManagementRoutingModule</text>
</g>
<!-- ManagementModule -->
<g id="node28" class="node">
<title>ManagementModule</title>
<polygon fill="#8dd3c7" stroke="black" points="3599.13,-149.8 3596.13,-153.8 3575.13,-153.8 3572.13,-149.8 3466.87,-149.8 3466.87,-113.8 3599.13,-113.8 3599.13,-149.8"/>
<text text-anchor="middle" x="3533" y="-127.6" font-family="Times,serif" font-size="14.00">ManagementModule</text>
</g>
<!-- ManagementRoutingModule&#45;&gt;ManagementModule -->
<g id="edge24" class="edge">
<title>ManagementRoutingModule&#45;&gt;ManagementModule</title>
<path fill="none" stroke="black" d="M3533,-84.91C3533,-84.91 3533,-103.79 3533,-103.79"/>
<polygon fill="black" stroke="black" points="3529.5,-103.79 3533,-113.79 3536.5,-103.79 3529.5,-103.79"/>
</g>
<!-- AccountComponent -->
<g id="node29" class="node">
<title>AccountComponent</title>
<polygon fill="#ffffb3" stroke="black" points="5013.26,-84.8 4884.74,-84.8 4884.74,-48.8 5013.26,-48.8 5013.26,-84.8"/>
<text text-anchor="middle" x="4949" y="-62.6" font-family="Times,serif" font-size="14.00">AccountComponent</text>
</g>
<!-- UsersModule -->
<g id="node37" class="node">
<title>UsersModule</title>
<polygon fill="#8dd3c7" stroke="black" points="4373.92,-149.8 4370.92,-153.8 4349.92,-153.8 4346.92,-149.8 4282.08,-149.8 4282.08,-113.8 4373.92,-113.8 4373.92,-149.8"/>
<text text-anchor="middle" x="4328" y="-127.6" font-family="Times,serif" font-size="14.00">UsersModule</text>
</g>
<!-- AccountComponent&#45;&gt;UsersModule -->
<g id="edge25" class="edge">
<title>AccountComponent&#45;&gt;UsersModule</title>
<path fill="none" stroke="black" d="M4949,-84.81C4949,-107.29 4949,-142.8 4949,-142.8 4949,-142.8 4383.92,-142.8 4383.92,-142.8"/>
<polygon fill="black" stroke="black" points="4383.92,-139.3 4373.92,-142.8 4383.92,-146.3 4383.92,-139.3"/>
</g>
<!-- ContactComponent -->
<g id="node30" class="node">
<title>ContactComponent</title>
<polygon fill="#ffffb3" stroke="black" points="4866.38,-84.8 4741.62,-84.8 4741.62,-48.8 4866.38,-48.8 4866.38,-84.8"/>
<text text-anchor="middle" x="4804" y="-62.6" font-family="Times,serif" font-size="14.00">ContactComponent</text>
</g>
<!-- ContactComponent&#45;&gt;UsersModule -->
<g id="edge26" class="edge">
<title>ContactComponent&#45;&gt;UsersModule</title>
<path fill="none" stroke="black" d="M4804,-84.93C4804,-105.37 4804,-135.8 4804,-135.8 4804,-135.8 4384.07,-135.8 4384.07,-135.8"/>
<polygon fill="black" stroke="black" points="4384.07,-132.3 4374.07,-135.8 4384.07,-139.3 4384.07,-132.3"/>
</g>
<!-- CreateUserComponent -->
<g id="node31" class="node">
<title>CreateUserComponent</title>
<polygon fill="#ffffb3" stroke="black" points="4723.29,-84.8 4578.71,-84.8 4578.71,-48.8 4723.29,-48.8 4723.29,-84.8"/>
<text text-anchor="middle" x="4651" y="-62.6" font-family="Times,serif" font-size="14.00">CreateUserComponent</text>
</g>
<!-- CreateUserComponent&#45;&gt;UsersModule -->
<g id="edge27" class="edge">
<title>CreateUserComponent&#45;&gt;UsersModule</title>
<path fill="none" stroke="black" d="M4651,-85.07C4651,-103.36 4651,-128.8 4651,-128.8 4651,-128.8 4383.93,-128.8 4383.93,-128.8"/>
<polygon fill="black" stroke="black" points="4383.94,-125.3 4373.93,-128.8 4383.93,-132.3 4383.94,-125.3"/>
</g>
<!-- EditProfileComponent -->
<g id="node32" class="node">
<title>EditProfileComponent</title>
<polygon fill="#ffffb3" stroke="black" points="4560.27,-84.8 4417.73,-84.8 4417.73,-48.8 4560.27,-48.8 4560.27,-84.8"/>
<text text-anchor="middle" x="4489" y="-62.6" font-family="Times,serif" font-size="14.00">EditProfileComponent</text>
</g>
<!-- EditProfileComponent&#45;&gt;UsersModule -->
<g id="edge28" class="edge">
<title>EditProfileComponent&#45;&gt;UsersModule</title>
<path fill="none" stroke="black" d="M4489,-84.81C4489,-100.85 4489,-121.8 4489,-121.8 4489,-121.8 4384.14,-121.8 4384.14,-121.8"/>
<polygon fill="black" stroke="black" points="4384.14,-118.3 4374.14,-121.8 4384.14,-125.3 4384.14,-118.3"/>
</g>
<!-- PermissionComponent -->
<g id="node33" class="node">
<title>PermissionComponent</title>
<polygon fill="#ffffb3" stroke="black" points="4399.55,-84.8 4256.45,-84.8 4256.45,-48.8 4399.55,-48.8 4399.55,-84.8"/>
<text text-anchor="middle" x="4328" y="-62.6" font-family="Times,serif" font-size="14.00">PermissionComponent</text>
</g>
<!-- PermissionComponent&#45;&gt;UsersModule -->
<g id="edge29" class="edge">
<title>PermissionComponent&#45;&gt;UsersModule</title>
<path fill="none" stroke="black" d="M4328,-84.91C4328,-84.91 4328,-103.79 4328,-103.79"/>
<polygon fill="black" stroke="black" points="4324.5,-103.79 4328,-113.79 4331.5,-103.79 4324.5,-103.79"/>
</g>
<!-- ProfileComponent -->
<g id="node34" class="node">
<title>ProfileComponent</title>
<polygon fill="#ffffb3" stroke="black" points="4238.93,-84.8 4119.07,-84.8 4119.07,-48.8 4238.93,-48.8 4238.93,-84.8"/>
<text text-anchor="middle" x="4179" y="-62.6" font-family="Times,serif" font-size="14.00">ProfileComponent</text>
</g>
<!-- ProfileComponent&#45;&gt;UsersModule -->
<g id="edge30" class="edge">
<title>ProfileComponent&#45;&gt;UsersModule</title>
<path fill="none" stroke="black" d="M4179,-84.81C4179,-100.85 4179,-121.8 4179,-121.8 4179,-121.8 4272.08,-121.8 4272.08,-121.8"/>
<polygon fill="black" stroke="black" points="4272.08,-125.3 4282.08,-121.8 4272.08,-118.3 4272.08,-125.3"/>
</g>
<!-- SettingsComponent -->
<g id="node35" class="node">
<title>SettingsComponent</title>
<polygon fill="#ffffb3" stroke="black" points="4101.45,-84.8 3974.55,-84.8 3974.55,-48.8 4101.45,-48.8 4101.45,-84.8"/>
<text text-anchor="middle" x="4038" y="-62.6" font-family="Times,serif" font-size="14.00">SettingsComponent</text>
</g>
<!-- SettingsComponent&#45;&gt;UsersModule -->
<g id="edge31" class="edge">
<title>SettingsComponent&#45;&gt;UsersModule</title>
<path fill="none" stroke="black" d="M4038,-85.07C4038,-103.36 4038,-128.8 4038,-128.8 4038,-128.8 4272.05,-128.8 4272.05,-128.8"/>
<polygon fill="black" stroke="black" points="4272.05,-132.3 4282.05,-128.8 4272.05,-125.3 4272.05,-132.3"/>
</g>
<!-- UsersListComponent -->
<g id="node36" class="node">
<title>UsersListComponent</title>
<polygon fill="#ffffb3" stroke="black" points="3956.48,-84.8 3821.52,-84.8 3821.52,-48.8 3956.48,-48.8 3956.48,-84.8"/>
<text text-anchor="middle" x="3889" y="-62.6" font-family="Times,serif" font-size="14.00">UsersListComponent</text>
</g>
<!-- UsersListComponent&#45;&gt;UsersModule -->
<g id="edge32" class="edge">
<title>UsersListComponent&#45;&gt;UsersModule</title>
<path fill="none" stroke="black" d="M3889,-84.93C3889,-105.37 3889,-135.8 3889,-135.8 3889,-135.8 4272.26,-135.8 4272.26,-135.8"/>
<polygon fill="black" stroke="black" points="4272.26,-139.3 4282.26,-135.8 4272.26,-132.3 4272.26,-139.3"/>
</g>
<!-- UsersRoutingModule -->
<g id="node38" class="node">
<title>UsersRoutingModule</title>
<polygon fill="#8dd3c7" stroke="black" points="3798.04,-84.8 3795.04,-88.8 3774.04,-88.8 3771.04,-84.8 3661.96,-84.8 3661.96,-48.8 3798.04,-48.8 3798.04,-84.8"/>
<text text-anchor="middle" x="3730" y="-62.6" font-family="Times,serif" font-size="14.00">UsersRoutingModule</text>
</g>
<!-- UsersRoutingModule&#45;&gt;UsersModule -->
<g id="edge33" class="edge">
<title>UsersRoutingModule&#45;&gt;UsersModule</title>
<path fill="none" stroke="black" d="M3730,-84.81C3730,-107.29 3730,-142.8 3730,-142.8 3730,-142.8 4272.07,-142.8 4272.07,-142.8"/>
<polygon fill="black" stroke="black" points="4272.07,-146.3 4282.07,-142.8 4272.07,-139.3 4272.07,-146.3"/>
</g>
</g>
</svg>
